InriaSans-Regular.ufo
<glyph name="exclam" format="2">
	<advance width="280"/>
	<unicode hex="0021"/>
	<outline>
		<contour>
			<point x="173" y="182" type="line"/>
			<point x="181" y="430" type="line"/>
			<point x="181" y="680" type="line"/>
			<point x="99" y="680" type="line"/>
			<point x="99" y="430" type="line"/>
			<point x="107" y="182" type="line"/>
		</contour>
		<contour>
			<point x="186" y="0" type="line"/>
			<point x="186" y="91" type="line"/>
			<point x="94" y="91" type="line"/>
			<point x="94" y="0" type="line"/>
		</contour>
	</outline>
</glyph>
<glyph name="quotedbl" format="1">
  <advance width="353"/>
  <unicode hex="0022"/>
  <outline>
    <contour>
      <point x="123" y="430" type="line"/>
      <point x="136" y="602" type="line"/>
      <point x="136" y="680" type="line"/>
      <point x="56" y="680" type="line"/>
      <point x="56" y="602" type="line"/>
      <point x="69" y="430" type="line"/>
    </contour>
    <contour>
      <point x="284" y="430" type="line"/>
      <point x="297" y="602" type="line"/>
      <point x="297" y="680" type="line"/>
      <point x="217" y="680" type="line"/>
      <point x="217" y="602" type="line"/>
      <point x="230" y="430" type="line"/>
    </contour>
  </outline>
</glyph>
<glyph name="numbersign" format="1">
  <advance width="638"/>
  <unicode hex="0023"/>
  <outline>
    <contour>
      <point x="299" y="0" type="line"/>
      <point x="370" y="0" type="line"/>
      <point x="431" y="195" type="line"/>
      <point x="552" y="195" type="line"/>
      <point x="552" y="261" type="line"/>
      <point x="451" y="261" type="line"/>
      <point x="500" y="418" type="line"/>
      <point x="622" y="418" type="line"/>
      <point x="622" y="484" type="line"/>
      <point x="521" y="484" type="line"/>
      <point x="582" y="680" type="line"/>
      <point x="510" y="680" type="line"/>
      <point x="449" y="484" type="line"/>
      <point x="278" y="484" type="line"/>
      <point x="339" y="680" type="line"/>
      <point x="267" y="680" type="line"/>
      <point x="206" y="484" type="line"/>
      <point x="86" y="484" type="line"/>
      <point x="86" y="418" type="line"/>
      <point x="186" y="418" type="line"/>
      <point x="137" y="261" type="line"/>
      <point x="16" y="261" type="line"/>
      <point x="16" y="195" type="line"/>
      <point x="117" y="195" type="line"/>
      <point x="56" y="0" type="line"/>
      <point x="127" y="0" type="line"/>
      <point x="188" y="195" type="line"/>
      <point x="360" y="195" type="line"/>
    </contour>
    <contour>
      <point x="208" y="261" type="line"/>
      <point x="257" y="418" type="line"/>
      <point x="429" y="418" type="line"/>
      <point x="380" y="261" type="line"/>
    </contour>
  </outline>
</glyph>
<glyph name="ampersand" format="1">
  <advance width="560"/>
  <unicode hex="0026"/>
  <outline>
    <contour>
      <point x="234" y="65" type="curve" smooth="yes"/>
      <point x="173" y="65"/>
      <point x="126" y="96"/>
      <point x="126" y="167" type="curve" smooth="yes"/>
      <point x="126" y="219"/>
      <point x="152" y="258"/>
      <point x="225" y="302" type="curve" smooth="yes"/>
      <point x="296" y="345" type="line" smooth="yes"/>
      <point x="372" y="391"/>
      <point x="425" y="440"/>
      <point x="425" y="531" type="curve" smooth="yes"/>
      <point x="425" y="632"/>
      <point x="359" y="690"/>
      <point x="255" y="690" type="curve" smooth="yes"/>
      <point x="143" y="690"/>
      <point x="81" y="622"/>
      <point x="81" y="534" type="curve" smooth="yes"/>
      <point x="81" y="473"/>
      <point x="111" y="417"/>
      <point x="176" y="362" type="curve"/>
      <point x="86" y="304"/>
      <point x="42" y="249"/>
      <point x="42" y="165" type="curve" smooth="yes"/>
      <point x="42" y="61"/>
      <point x="110" y="-10"/>
      <point x="229" y="-10" type="curve" smooth="yes"/>
      <point x="330" y="-10"/>
      <point x="394" y="44"/>
      <point x="405" y="116" type="curve"/>
      <point x="469" y="0" type="line"/>
      <point x="561" y="0" type="line"/>
      <point x="400" y="277" type="line"/>
      <point x="333" y="237" type="line"/>
      <point x="383" y="143"/>
      <point x="330" y="65"/>
    </contour>
    <contour>
      <point x="163" y="532" type="curve" smooth="yes"/>
      <point x="163" y="588"/>
      <point x="202" y="616"/>
      <point x="256" y="616" type="curve" smooth="yes"/>
      <point x="305" y="616"/>
      <point x="342" y="590"/>
      <point x="342" y="530" type="curve" smooth="yes"/>
      <point x="342" y="477"/>
      <point x="315" y="448"/>
      <point x="256" y="411" type="curve" smooth="yes"/>
      <point x="235" y="398" type="line"/>
      <point x="181" y="450"/>
      <point x="163" y="494"/>
    </contour>
  </outline>
</glyph>
<glyph name="quotesingle" format="2">
	<advance width="192"/>
	<unicode hex="0027"/>
	<outline>
		<contour>
			<point x="123" y="430" type="line"/>
			<point x="136" y="602" type="line"/>
			<point x="136" y="680" type="line"/>
			<point x="56" y="680" type="line"/>
			<point x="56" y="602" type="line"/>
			<point x="69" y="430" type="line"/>
		</contour>
	</outline>
</glyph>
<glyph name="parenleft" format="1">
  <advance width="315"/>
  <unicode hex="0028"/>
  <outline>
    <contour>
      <point x="60" y="317" type="curve" smooth="yes"/>
      <point x="60" y="280" type="line" smooth="yes"/>
      <point x="60" y="119"/>
      <point x="122" y="-29"/>
      <point x="257" y="-153" type="curve"/>
      <point x="312" y="-97" type="line"/>
      <point x="197" y="15"/>
      <point x="145" y="136"/>
      <point x="145" y="280" type="curve" smooth="yes"/>
      <point x="145" y="317" type="line" smooth="yes"/>
      <point x="145" y="460"/>
      <point x="197" y="581"/>
      <point x="312" y="694" type="curve"/>
      <point x="257" y="750" type="line"/>
      <point x="122" y="626"/>
      <point x="60" y="478"/>
    </contour>
  </outline>
</glyph>
<glyph name="parenright" format="1">
  <advance width="315"/>
  <unicode hex="0029"/>
  <outline>
    <contour>
      <point x="255" y="280" type="curve" smooth="yes"/>
      <point x="255" y="317" type="line" smooth="yes"/>
      <point x="255" y="478"/>
      <point x="193" y="626"/>
      <point x="58" y="750" type="curve"/>
      <point x="2" y="694" type="line"/>
      <point x="118" y="581"/>
      <point x="170" y="460"/>
      <point x="170" y="317" type="curve" smooth="yes"/>
      <point x="170" y="280" type="line" smooth="yes"/>
      <point x="170" y="136"/>
      <point x="118" y="15"/>
      <point x="2" y="-97" type="curve"/>
      <point x="58" y="-153" type="line"/>
      <point x="193" y="-29"/>
      <point x="255" y="119"/>
    </contour>
  </outline>
</glyph>
<glyph name="asterisk" format="1">
  <advance width="404"/>
  <unicode hex="002A"/>
  <outline>
    <contour>
      <point x="343" y="361" type="line"/>
      <point x="324" y="387" type="line"/>
      <point x="233" y="481" type="line"/>
      <point x="362" y="504" type="line"/>
      <point x="392" y="515" type="line"/>
      <point x="370" y="585" type="line"/>
      <point x="339" y="575" type="line"/>
      <point x="221" y="518" type="line"/>
      <point x="239" y="648" type="line"/>
      <point x="239" y="680" type="line"/>
      <point x="165" y="680" type="line"/>
      <point x="165" y="648" type="line"/>
      <point x="182" y="518" type="line"/>
      <point x="64" y="574" type="line"/>
      <point x="34" y="585" type="line"/>
      <point x="11" y="514" type="line"/>
      <point x="42" y="504" type="line"/>
      <point x="171" y="480" type="line"/>
      <point x="80" y="386" type="line"/>
      <point x="61" y="361" type="line"/>
      <point x="121" y="317" type="line"/>
      <point x="140" y="342" type="line"/>
      <point x="202" y="459" type="line"/>
      <point x="264" y="343" type="line"/>
      <point x="283" y="317" type="line"/>
    </contour>
  </outline>
</glyph>
<glyph name="plus" format="1">
  <advance width="588"/>
  <unicode hex="002B"/>
  <outline>
    <contour>
      <point x="501" y="262" type="line"/>
      <point x="501" y="334" type="line"/>
      <point x="331" y="334" type="line"/>
      <point x="331" y="509" type="line"/>
      <point x="256" y="509" type="line"/>
      <point x="256" y="334" type="line"/>
      <point x="87" y="334" type="line"/>
      <point x="87" y="262" type="line"/>
      <point x="256" y="262" type="line"/>
      <point x="256" y="87" type="line"/>
      <point x="331" y="87" type="line"/>
      <point x="331" y="262" type="line"/>
    </contour>
  </outline>
</glyph>
<glyph name="comma" format="1">
  <advance width="192"/>
  <unicode hex="002C"/>
  <outline>
    <contour>
      <point x="137" y="91" type="line"/>
      <point x="55" y="91" type="line"/>
      <point x="55" y="-24"/>
      <point x="49" y="-82"/>
      <point x="0" y="-178" type="curve"/>
      <point x="54" y="-208" type="line"/>
      <point x="116" y="-108"/>
      <point x="137" y="-25"/>
      <point x="137" y="72" type="curve" smooth="yes"/>
    </contour>
  </outline>
</glyph>
<glyph name="hyphen" format="1">
  <advance width="392"/>
  <unicode hex="002D"/>
  <outline>
    <contour>
      <point x="56" y="267" type="line"/>
      <point x="336" y="267" type="line"/>
      <point x="336" y="339" type="line"/>
      <point x="56" y="339" type="line"/>
    </contour>
  </outline>
</glyph>
<glyph name="period" format="1">
  <advance width="192"/>
  <unicode hex="002E"/>
  <outline>
    <contour>
      <point x="142" y="0" type="line"/>
      <point x="142" y="91" type="line"/>
      <point x="50" y="91" type="line"/>
      <point x="50" y="0" type="line"/>
    </contour>
  </outline>
</glyph>
<glyph name="slash" format="2">
	<advance width="364"/>
	<unicode hex="002F"/>
	<outline>
		<contour>
			<point x="289" y="740" type="line"/>
			<point x="-39" y="-143" type="line"/>
			<point x="44" y="-143" type="line"/>
			<point x="373" y="740" type="line"/>
		</contour>
	</outline>
</glyph>
<glyph name="zero" format="1">
  <advance width="613"/>
  <unicode hex="0030"/>
  <outline>
    <contour>
      <point x="537" y="415" type="line" smooth="yes"/>
      <point x="537" y="595"/>
      <point x="451" y="690"/>
      <point x="306" y="690" type="curve" smooth="yes"/>
      <point x="162" y="690"/>
      <point x="76" y="595"/>
      <point x="76" y="415" type="curve" smooth="yes"/>
      <point x="76" y="266" type="line" smooth="yes"/>
      <point x="76" y="85"/>
      <point x="161" y="-10"/>
      <point x="306" y="-10" type="curve" smooth="yes"/>
      <point x="451" y="-10"/>
      <point x="537" y="85"/>
      <point x="537" y="266" type="curve" smooth="yes"/>
    </contour>
    <contour>
      <point x="449" y="415" type="curve" smooth="yes"/>
      <point x="449" y="266" type="line" smooth="yes"/>
      <point x="449" y="128"/>
      <point x="396" y="68"/>
      <point x="306" y="68" type="curve" smooth="yes"/>
      <point x="217" y="68"/>
      <point x="164" y="128"/>
      <point x="164" y="266" type="curve" smooth="yes"/>
      <point x="164" y="415" type="line" smooth="yes"/>
      <point x="164" y="553"/>
      <point x="217" y="611"/>
      <point x="306" y="611" type="curve" smooth="yes"/>
      <point x="396" y="611"/>
      <point x="449" y="553"/>
    </contour>
  </outline>
</glyph>
<glyph name="one" format="2">
	<advance width="366"/>
	<unicode hex="0031"/>
	<outline>
		<contour>
			<point x="19" y="586" type="line"/>
			<point x="57" y="520" type="line"/>
			<point x="175" y="588" type="line"/>
			<point x="175" y="0" type="line"/>
			<point x="260" y="0" type="line"/>
			<point x="260" y="680" type="line"/>
			<point x="181" y="680" type="line"/>
		</contour>
	</outline>
</glyph>
<glyph name="two" format="1">
  <advance width="493"/>
  <unicode hex="0032"/>
  <outline>
    <contour>
      <point x="435" y="0" type="line"/>
      <point x="435" y="79" type="line"/>
      <point x="132" y="79" type="line"/>
      <point x="134" y="170"/>
      <point x="163" y="227"/>
      <point x="226" y="260" type="curve" smooth="yes"/>
      <point x="291" y="294" type="line" smooth="yes"/>
      <point x="367" y="332"/>
      <point x="437" y="380"/>
      <point x="437" y="488" type="curve" smooth="yes"/>
      <point x="437" y="505" type="line" smooth="yes"/>
      <point x="437" y="614"/>
      <point x="378" y="690"/>
      <point x="230" y="690" type="curve" smooth="yes"/>
      <point x="173" y="690"/>
      <point x="110" y="677"/>
      <point x="44" y="647" type="curve"/>
      <point x="72" y="574" type="line"/>
      <point x="133" y="600"/>
      <point x="182" y="611"/>
      <point x="228" y="611" type="curve" smooth="yes"/>
      <point x="309" y="611"/>
      <point x="352" y="579"/>
      <point x="352" y="505" type="curve" smooth="yes"/>
      <point x="352" y="488" type="line" smooth="yes"/>
      <point x="352" y="423"/>
      <point x="312" y="395"/>
      <point x="251" y="363" type="curve" smooth="yes"/>
      <point x="186" y="330" type="line" smooth="yes"/>
      <point x="108" y="290"/>
      <point x="47" y="215"/>
      <point x="47" y="66" type="curve" smooth="yes"/>
      <point x="47" y="0" type="line"/>
    </contour>
  </outline>
</glyph>
<glyph name="three" format="1">
  <advance width="498"/>
  <unicode hex="0033"/>
  <outline>
    <contour>
      <point x="432" y="177" type="curve" smooth="yes"/>
      <point x="432" y="193" type="line" smooth="yes"/>
      <point x="432" y="264"/>
      <point x="395" y="316"/>
      <point x="337" y="343" type="curve"/>
      <point x="392" y="371"/>
      <point x="426" y="422"/>
      <point x="426" y="489" type="curve" smooth="yes"/>
      <point x="426" y="503" type="line" smooth="yes"/>
      <point x="426" y="613"/>
      <point x="364" y="690"/>
      <point x="220" y="690" type="curve" smooth="yes"/>
      <point x="162" y="690"/>
      <point x="100" y="677"/>
      <point x="34" y="647" type="curve"/>
      <point x="62" y="574" type="line"/>
      <point x="124" y="600"/>
      <point x="171" y="611"/>
      <point x="218" y="611" type="curve" smooth="yes"/>
      <point x="294" y="611"/>
      <point x="339" y="580"/>
      <point x="339" y="501" type="curve" smooth="yes"/>
      <point x="339" y="487" type="line" smooth="yes"/>
      <point x="339" y="422"/>
      <point x="304" y="381"/>
      <point x="228" y="381" type="curve" smooth="yes"/>
      <point x="128" y="381" type="line"/>
      <point x="128" y="305" type="line"/>
      <point x="228" y="305" type="line" smooth="yes"/>
      <point x="308" y="305"/>
      <point x="346" y="262"/>
      <point x="346" y="195" type="curve" smooth="yes"/>
      <point x="346" y="179" type="line" smooth="yes"/>
      <point x="346" y="100"/>
      <point x="297" y="68"/>
      <point x="215" y="68" type="curve" smooth="yes"/>
      <point x="165" y="68"/>
      <point x="115" y="79"/>
      <point x="49" y="106" type="curve"/>
      <point x="23" y="34" type="line"/>
      <point x="92" y="3"/>
      <point x="157" y="-10"/>
      <point x="217" y="-10" type="curve" smooth="yes"/>
      <point x="368" y="-10"/>
      <point x="432" y="67"/>
    </contour>
  </outline>
</glyph>
<glyph name="four" format="1">
  <advance width="508"/>
  <unicode hex="0034"/>
  <outline>
    <contour>
      <point x="481" y="163" type="line"/>
      <point x="481" y="240" type="line"/>
      <point x="406" y="240" type="line"/>
      <point x="406" y="364" type="line"/>
      <point x="324" y="364" type="line"/>
      <point x="324" y="240" type="line"/>
      <point x="129" y="240" type="line"/>
      <point x="231" y="393"/>
      <point x="311" y="534"/>
      <point x="367" y="680" type="curve"/>
      <point x="275" y="680" type="line"/>
      <point x="220" y="532"/>
      <point x="134" y="386"/>
      <point x="32" y="230" type="curve"/>
      <point x="32" y="163" type="line"/>
      <point x="324" y="163" type="line"/>
      <point x="324" y="0" type="line"/>
      <point x="406" y="0" type="line"/>
      <point x="406" y="163" type="line"/>
    </contour>
  </outline>
</glyph>
<glyph name="five" format="1">
  <advance width="507"/>
  <unicode hex="0035"/>
  <outline>
    <contour>
      <point x="68" y="354" type="line"/>
      <point x="119" y="314" type="line"/>
      <point x="161" y="333"/>
      <point x="199" y="343"/>
      <point x="239" y="343" type="curve" smooth="yes"/>
      <point x="324" y="343"/>
      <point x="366" y="295"/>
      <point x="366" y="222" type="curve" smooth="yes"/>
      <point x="366" y="192" type="line" smooth="yes"/>
      <point x="366" y="103"/>
      <point x="317" y="68"/>
      <point x="234" y="68" type="curve" smooth="yes"/>
      <point x="184" y="68"/>
      <point x="133" y="78"/>
      <point x="68" y="106" type="curve"/>
      <point x="41" y="34" type="line"/>
      <point x="110" y="3"/>
      <point x="175" y="-10"/>
      <point x="235" y="-10" type="curve" smooth="yes"/>
      <point x="388" y="-10"/>
      <point x="454" y="73"/>
      <point x="454" y="192" type="curve" smooth="yes"/>
      <point x="454" y="222" type="line" smooth="yes"/>
      <point x="454" y="353"/>
      <point x="373" y="420"/>
      <point x="248" y="420" type="curve" smooth="yes"/>
      <point x="213" y="420"/>
      <point x="182" y="415"/>
      <point x="153" y="405" type="curve"/>
      <point x="165" y="600" type="line"/>
      <point x="426" y="600" type="line"/>
      <point x="426" y="680" type="line"/>
      <point x="88" y="680" type="line"/>
    </contour>
  </outline>
</glyph>
<glyph name="six" format="1">
  <advance width="564"/>
  <unicode hex="0036"/>
  <outline>
    <contour>
      <point x="512" y="193" type="curve" smooth="yes"/>
      <point x="512" y="223" type="line" smooth="yes"/>
      <point x="512" y="344"/>
      <point x="440" y="425"/>
      <point x="323" y="425" type="curve" smooth="yes"/>
      <point x="262" y="425"/>
      <point x="207" y="399"/>
      <point x="160" y="357" type="curve"/>
      <point x="160" y="415" type="line" smooth="yes"/>
      <point x="160" y="559"/>
      <point x="221" y="611"/>
      <point x="317" y="611" type="curve" smooth="yes"/>
      <point x="356" y="611"/>
      <point x="404" y="602"/>
      <point x="462" y="575" type="curve"/>
      <point x="493" y="648" type="line"/>
      <point x="426" y="679"/>
      <point x="366" y="690"/>
      <point x="314" y="690" type="curve" smooth="yes"/>
      <point x="167" y="690"/>
      <point x="77" y="601"/>
      <point x="77" y="415" type="curve" smooth="yes"/>
      <point x="77" y="267" type="line" smooth="yes"/>
      <point x="77" y="91"/>
      <point x="156" y="-10"/>
      <point x="300" y="-10" type="curve" smooth="yes"/>
      <point x="431" y="-10"/>
      <point x="512" y="73"/>
    </contour>
    <contour>
      <point x="160" y="267" type="curve" smooth="yes"/>
      <point x="160" y="280" type="line"/>
      <point x="205" y="323"/>
      <point x="257" y="348"/>
      <point x="313" y="348" type="curve" smooth="yes"/>
      <point x="386" y="348"/>
      <point x="428" y="299"/>
      <point x="428" y="223" type="curve" smooth="yes"/>
      <point x="428" y="193" type="line" smooth="yes"/>
      <point x="428" y="116"/>
      <point x="381" y="68"/>
      <point x="300" y="68" type="curve" smooth="yes"/>
      <point x="209" y="68"/>
      <point x="160" y="133"/>
    </contour>
  </outline>
</glyph>
<glyph name="seven" format="1">
  <advance width="470"/>
  <unicode hex="0037"/>
  <outline>
    <contour>
      <point x="435" y="610" type="curve"/>
      <point x="435" y="680" type="line"/>
      <point x="28" y="680" type="line"/>
      <point x="28" y="600" type="line"/>
      <point x="342" y="600" type="line"/>
      <point x="245" y="400"/>
      <point x="176" y="200"/>
      <point x="140" y="0" type="curve"/>
      <point x="229" y="0" type="line"/>
      <point x="265" y="203"/>
      <point x="335" y="406"/>
    </contour>
  </outline>
</glyph>
<glyph name="eight" format="1">
  <advance width="558"/>
  <unicode hex="0038"/>
  <outline>
    <contour>
      <point x="496" y="179" type="curve" smooth="yes"/>
      <point x="496" y="261"/>
      <point x="457" y="312"/>
      <point x="384" y="348" type="curve"/>
      <point x="453" y="394"/>
      <point x="481" y="447"/>
      <point x="481" y="512" type="curve" smooth="yes"/>
      <point x="481" y="611"/>
      <point x="415" y="690"/>
      <point x="277" y="690" type="curve" smooth="yes"/>
      <point x="142" y="690"/>
      <point x="76" y="602"/>
      <point x="76" y="507" type="curve" smooth="yes"/>
      <point x="76" y="430"/>
      <point x="111" y="377"/>
      <point x="172" y="343" type="curve"/>
      <point x="94" y="293"/>
      <point x="62" y="237"/>
      <point x="62" y="166" type="curve" smooth="yes"/>
      <point x="62" y="69"/>
      <point x="125" y="-10"/>
      <point x="274" y="-10" type="curve" smooth="yes"/>
      <point x="427" y="-10"/>
      <point x="496" y="72"/>
    </contour>
    <contour>
      <point x="263" y="393" type="line" smooth="yes"/>
      <point x="189" y="418"/>
      <point x="161" y="451"/>
      <point x="161" y="507" type="curve" smooth="yes"/>
      <point x="161" y="577"/>
      <point x="210" y="614"/>
      <point x="279" y="614" type="curve" smooth="yes"/>
      <point x="357" y="614"/>
      <point x="396" y="571"/>
      <point x="396" y="504" type="curve" smooth="yes"/>
      <point x="396" y="460"/>
      <point x="378" y="420"/>
      <point x="318" y="374" type="curve"/>
    </contour>
    <contour>
      <point x="147" y="177" type="curve" smooth="yes"/>
      <point x="147" y="224"/>
      <point x="170" y="265"/>
      <point x="238" y="314" type="curve"/>
      <point x="296" y="294" type="line" smooth="yes"/>
      <point x="381" y="265"/>
      <point x="411" y="236"/>
      <point x="411" y="175" type="curve" smooth="yes"/>
      <point x="411" y="104"/>
      <point x="361" y="65"/>
      <point x="277" y="65" type="curve" smooth="yes"/>
      <point x="190" y="65"/>
      <point x="147" y="109"/>
    </contour>
  </outline>
</glyph>
<glyph name="nine" format="1">
  <advance width="564"/>
  <unicode hex="0039"/>
  <outline>
    <contour>
      <point x="486" y="264" type="curve" smooth="yes"/>
      <point x="486" y="412" type="line" smooth="yes"/>
      <point x="486" y="588"/>
      <point x="407" y="690"/>
      <point x="264" y="690" type="curve" smooth="yes"/>
      <point x="132" y="690"/>
      <point x="52" y="603"/>
      <point x="52" y="486" type="curve" smooth="yes"/>
      <point x="52" y="456" type="line" smooth="yes"/>
      <point x="52" y="335"/>
      <point x="123" y="254"/>
      <point x="240" y="254" type="curve" smooth="yes"/>
      <point x="301" y="254"/>
      <point x="356" y="281"/>
      <point x="404" y="323" type="curve"/>
      <point x="404" y="264" type="line" smooth="yes"/>
      <point x="404" y="120"/>
      <point x="342" y="68"/>
      <point x="247" y="68" type="curve" smooth="yes"/>
      <point x="208" y="68"/>
      <point x="159" y="78"/>
      <point x="101" y="104" type="curve"/>
      <point x="71" y="31" type="line"/>
      <point x="138" y="0"/>
      <point x="197" y="-10"/>
      <point x="249" y="-10" type="curve" smooth="yes"/>
      <point x="397" y="-10"/>
      <point x="486" y="78"/>
    </contour>
    <contour>
      <point x="135" y="456" type="curve" smooth="yes"/>
      <point x="135" y="486" type="line" smooth="yes"/>
      <point x="135" y="559"/>
      <point x="183" y="611"/>
      <point x="263" y="611" type="curve" smooth="yes"/>
      <point x="354" y="611"/>
      <point x="404" y="546"/>
      <point x="404" y="412" type="curve" smooth="yes"/>
      <point x="404" y="400" type="line"/>
      <point x="359" y="357"/>
      <point x="307" y="331"/>
      <point x="251" y="331" type="curve" smooth="yes"/>
      <point x="177" y="331"/>
      <point x="135" y="380"/>
    </contour>
  </outline>
</glyph>
<glyph name="colon" format="1">
  <advance width="192"/>
  <unicode hex="003A"/>
  <outline>
    <contour>
      <point x="142" y="403" type="line"/>
      <point x="142" y="495" type="line"/>
      <point x="50" y="495" type="line"/>
      <point x="50" y="403" type="line"/>
    </contour>
    <contour>
      <point x="142" y="0" type="line"/>
      <point x="142" y="91" type="line"/>
      <point x="50" y="91" type="line"/>
      <point x="50" y="0" type="line"/>
    </contour>
  </outline>
</glyph>
<glyph name="semicolon" format="1">
  <advance width="192"/>
  <unicode hex="003B"/>
  <outline>
    <contour>
      <point x="142" y="403" type="line"/>
      <point x="142" y="495" type="line"/>
      <point x="50" y="495" type="line"/>
      <point x="50" y="403" type="line"/>
    </contour>
    <contour>
      <point x="137" y="91" type="line"/>
      <point x="55" y="91" type="line"/>
      <point x="55" y="-23"/>
      <point x="49" y="-82"/>
      <point x="0" y="-178" type="curve"/>
      <point x="54" y="-208" type="line"/>
      <point x="116" y="-109"/>
      <point x="137" y="-25"/>
      <point x="137" y="72" type="curve" smooth="yes"/>
    </contour>
  </outline>
</glyph>
<glyph name="less" format="1">
  <advance width="588"/>
  <unicode hex="003C"/>
  <outline>
    <contour>
      <point x="501" y="187" type="line"/>
      <point x="203" y="302" type="line"/>
      <point x="501" y="414" type="line"/>
      <point x="501" y="492" type="line"/>
      <point x="87" y="327" type="line"/>
      <point x="87" y="272" type="line"/>
      <point x="501" y="104" type="line"/>
    </contour>
  </outline>
</glyph>
<glyph name="equal" format="1">
  <advance width="588"/>
  <unicode hex="003D"/>
  <outline>
    <contour>
      <point x="87" y="366" type="line"/>
      <point x="501" y="366" type="line"/>
      <point x="501" y="438" type="line"/>
      <point x="87" y="438" type="line"/>
    </contour>
    <contour>
      <point x="87" y="166" type="line"/>
      <point x="501" y="166" type="line"/>
      <point x="501" y="238" type="line"/>
      <point x="87" y="238" type="line"/>
    </contour>
  </outline>
</glyph>
<glyph name="greater" format="1">
  <advance width="588"/>
  <unicode hex="003E"/>
  <outline>
    <contour>
      <point x="501" y="269" type="line"/>
      <point x="501" y="324" type="line"/>
      <point x="87" y="492" type="line"/>
      <point x="87" y="410" type="line"/>
      <point x="385" y="295" type="line"/>
      <point x="87" y="183" type="line"/>
      <point x="87" y="104" type="line"/>
    </contour>
  </outline>
</glyph>
<glyph name="question" format="1">
  <advance width="434"/>
  <unicode hex="003F"/>
  <outline>
    <contour>
      <point x="197" y="614" type="curve" smooth="yes"/>
      <point x="275" y="614"/>
      <point x="315" y="576"/>
      <point x="315" y="517" type="curve" smooth="yes"/>
      <point x="315" y="499" type="line" smooth="yes"/>
      <point x="315" y="450"/>
      <point x="301" y="420"/>
      <point x="269" y="391" type="curve" smooth="yes"/>
      <point x="235" y="360" type="line" smooth="yes"/>
      <point x="177" y="306"/>
      <point x="158" y="272"/>
      <point x="158" y="205" type="curve" smooth="yes"/>
      <point x="158" y="182" type="line"/>
      <point x="242" y="182" type="line"/>
      <point x="242" y="202" type="line" smooth="yes"/>
      <point x="242" y="243"/>
      <point x="249" y="266"/>
      <point x="293" y="306" type="curve" smooth="yes"/>
      <point x="327" y="337" type="line" smooth="yes"/>
      <point x="376" y="381"/>
      <point x="400" y="429"/>
      <point x="400" y="503" type="curve" smooth="yes"/>
      <point x="400" y="521" type="line" smooth="yes"/>
      <point x="400" y="617"/>
      <point x="339" y="690"/>
      <point x="200" y="690" type="curve" smooth="yes"/>
      <point x="143" y="690"/>
      <point x="77" y="678"/>
      <point x="10" y="647" type="curve"/>
      <point x="38" y="575" type="line"/>
      <point x="100" y="603"/>
      <point x="151" y="614"/>
    </contour>
    <contour>
      <point x="247" y="0" type="line"/>
      <point x="247" y="91" type="line"/>
      <point x="155" y="91" type="line"/>
      <point x="155" y="0" type="line"/>
    </contour>
  </outline>
</glyph>
<glyph name="at" format="1">
  <advance width="950"/>
  <unicode hex="0040"/>
  <outline>
    <contour>
      <point x="731" y="-167" type="curve"/>
      <point x="704" y="-99" type="line"/>
      <point x="635" y="-133"/>
      <point x="548" y="-153"/>
      <point x="466" y="-153" type="curve" smooth="yes"/>
      <point x="247" y="-153"/>
      <point x="125" y="-11"/>
      <point x="125" y="204" type="curve" smooth="yes"/>
      <point x="125" y="442"/>
      <point x="273" y="620"/>
      <point x="493" y="620" type="curve" smooth="yes"/>
      <point x="692" y="620"/>
      <point x="826" y="474"/>
      <point x="826" y="285" type="curve" smooth="yes"/>
      <point x="826" y="152"/>
      <point x="761" y="66"/>
      <point x="692" y="66" type="curve" smooth="yes"/>
      <point x="654" y="66"/>
      <point x="630" y="88"/>
      <point x="643" y="157" type="curve"/>
      <point x="686" y="408" type="line"/>
      <point x="627" y="446"/>
      <point x="565" y="470"/>
      <point x="500" y="470" type="curve" smooth="yes"/>
      <point x="380" y="470"/>
      <point x="308" y="394"/>
      <point x="288" y="261" type="curve" smooth="yes"/>
      <point x="280" y="206" type="line" smooth="yes"/>
      <point x="261" y="83"/>
      <point x="307" y="-7"/>
      <point x="401" y="-7" type="curve" smooth="yes"/>
      <point x="454" y="-7"/>
      <point x="508" y="17"/>
      <point x="565" y="81" type="curve"/>
      <point x="577" y="24"/>
      <point x="621" y="-2"/>
      <point x="685" y="-2" type="curve" smooth="yes"/>
      <point x="810" y="-2"/>
      <point x="904" y="119"/>
      <point x="904" y="285" type="curve" smooth="yes"/>
      <point x="904" y="514"/>
      <point x="737" y="690"/>
      <point x="493" y="690" type="curve" smooth="yes"/>
      <point x="228" y="690"/>
      <point x="48" y="482"/>
      <point x="48" y="204" type="curve" smooth="yes"/>
      <point x="48" y="-50"/>
      <point x="200" y="-223"/>
      <point x="466" y="-223" type="curve" smooth="yes"/>
      <point x="559" y="-223"/>
      <point x="653" y="-202"/>
    </contour>
    <contour>
      <point x="364" y="206" type="curve" smooth="yes"/>
      <point x="372" y="261" type="line" smooth="yes"/>
      <point x="385" y="345"/>
      <point x="426" y="396"/>
      <point x="505" y="396" type="curve" smooth="yes"/>
      <point x="535" y="396"/>
      <point x="565" y="387"/>
      <point x="598" y="369" type="curve"/>
      <point x="565" y="173" type="line"/>
      <point x="510" y="94"/>
      <point x="461" y="66"/>
      <point x="423" y="66" type="curve" smooth="yes"/>
      <point x="372" y="66"/>
      <point x="350" y="116"/>
    </contour>
  </outline>
</glyph>
<glyph name="A" format="1">
  <advance width="577"/>
  <unicode hex="0041"/>
  <outline>
    <contour>
      <point x="466" y="0" type="line"/>
      <point x="556" y="0" type="line"/>
      <point x="329" y="680" type="line"/>
      <point x="247" y="680" type="line"/>
      <point x="21" y="0" type="line"/>
      <point x="106" y="0" type="line"/>
      <point x="157" y="158" type="line"/>
      <point x="415" y="158" type="line"/>
    </contour>
    <contour>
      <point x="220" y="354" type="line"/>
      <point x="286" y="564" type="line"/>
      <point x="351" y="354" type="line"/>
      <point x="389" y="237" type="line"/>
      <point x="182" y="237" type="line"/>
    </contour>
  </outline>
</glyph>
<glyph name="B" format="1">
  <advance width="585"/>
  <unicode hex="0042"/>
  <outline>
    <contour>
      <point x="106" y="0" type="line"/>
      <point x="331" y="0" type="line" smooth="yes"/>
      <point x="465" y="0"/>
      <point x="527" y="71"/>
      <point x="527" y="181" type="curve" smooth="yes"/>
      <point x="527" y="203" type="line" smooth="yes"/>
      <point x="527" y="275"/>
      <point x="489" y="328"/>
      <point x="419" y="351" type="curve"/>
      <point x="470" y="377"/>
      <point x="497" y="424"/>
      <point x="497" y="483" type="curve" smooth="yes"/>
      <point x="497" y="505" type="line" smooth="yes"/>
      <point x="497" y="611"/>
      <point x="437" y="680"/>
      <point x="306" y="680" type="curve" smooth="yes"/>
      <point x="106" y="680" type="line"/>
    </contour>
    <contour>
      <point x="306" y="600" type="line" smooth="yes"/>
      <point x="373" y="600"/>
      <point x="407" y="564"/>
      <point x="407" y="505" type="curve" smooth="yes"/>
      <point x="407" y="481" type="line" smooth="yes"/>
      <point x="407" y="421"/>
      <point x="373" y="385"/>
      <point x="306" y="385" type="curve" smooth="yes"/>
      <point x="193" y="385" type="line"/>
      <point x="193" y="600" type="line"/>
    </contour>
    <contour>
      <point x="331" y="305" type="line" smooth="yes"/>
      <point x="401" y="305"/>
      <point x="437" y="266"/>
      <point x="437" y="205" type="curve" smooth="yes"/>
      <point x="437" y="181" type="line" smooth="yes"/>
      <point x="437" y="117"/>
      <point x="401" y="79"/>
      <point x="331" y="79" type="curve" smooth="yes"/>
      <point x="193" y="79" type="line"/>
      <point x="193" y="305" type="line"/>
    </contour>
  </outline>
</glyph>
<glyph name="C" format="1">
  <advance width="529"/>
  <unicode hex="0043"/>
  <outline>
    <contour>
      <point x="165" y="265" type="curve" smooth="yes"/>
      <point x="165" y="415" type="line" smooth="yes"/>
      <point x="165" y="540"/>
      <point x="214" y="609"/>
      <point x="318" y="609" type="curve" smooth="yes"/>
      <point x="362" y="609"/>
      <point x="407" y="598"/>
      <point x="463" y="573" type="curve"/>
      <point x="491" y="648" type="line"/>
      <point x="430" y="677"/>
      <point x="370" y="690"/>
      <point x="315" y="690" type="curve" smooth="yes"/>
      <point x="158" y="690"/>
      <point x="75" y="584"/>
      <point x="75" y="415" type="curve" smooth="yes"/>
      <point x="75" y="265" type="line" smooth="yes"/>
      <point x="75" y="95"/>
      <point x="158" y="-10"/>
      <point x="315" y="-10" type="curve" smooth="yes"/>
      <point x="370" y="-10"/>
      <point x="428" y="2"/>
      <point x="493" y="32" type="curve"/>
      <point x="464" y="106" type="line"/>
      <point x="403" y="79"/>
      <point x="363" y="70"/>
      <point x="318" y="70" type="curve" smooth="yes"/>
      <point x="214" y="70"/>
      <point x="165" y="139"/>
    </contour>
  </outline>
</glyph>
<glyph name="D" format="1">
  <advance width="637"/>
  <unicode hex="0044"/>
  <outline>
    <contour>
      <point x="106" y="0" type="line"/>
      <point x="317" y="0" type="line" smooth="yes"/>
      <point x="473" y="0"/>
      <point x="560" y="99"/>
      <point x="560" y="266" type="curve" smooth="yes"/>
      <point x="560" y="415" type="line" smooth="yes"/>
      <point x="560" y="580"/>
      <point x="473" y="680"/>
      <point x="317" y="680" type="curve" smooth="yes"/>
      <point x="106" y="680" type="line"/>
    </contour>
    <contour>
      <point x="315" y="598" type="line" smooth="yes"/>
      <point x="419" y="598"/>
      <point x="470" y="536"/>
      <point x="470" y="415" type="curve" smooth="yes"/>
      <point x="470" y="266" type="line" smooth="yes"/>
      <point x="470" y="144"/>
      <point x="419" y="81"/>
      <point x="315" y="81" type="curve" smooth="yes"/>
      <point x="193" y="81" type="line"/>
      <point x="193" y="598" type="line"/>
    </contour>
  </outline>
</glyph>
<glyph name="E" format="1">
  <advance width="531"/>
  <unicode hex="0045"/>
  <outline>
    <contour>
      <point x="486" y="81" type="line"/>
      <point x="193" y="81" type="line"/>
      <point x="193" y="303" type="line"/>
      <point x="446" y="303" type="line"/>
      <point x="446" y="385" type="line"/>
      <point x="193" y="385" type="line"/>
      <point x="193" y="598" type="line"/>
      <point x="476" y="598" type="line"/>
      <point x="476" y="680" type="line"/>
      <point x="106" y="680" type="line"/>
      <point x="106" y="0" type="line"/>
      <point x="486" y="0" type="line"/>
    </contour>
  </outline>
</glyph>
<glyph name="F" format="1">
  <advance width="506"/>
  <unicode hex="0046"/>
  <outline>
    <contour>
      <point x="440" y="286" type="line"/>
      <point x="440" y="368" type="line"/>
      <point x="193" y="368" type="line"/>
      <point x="193" y="598" type="line"/>
      <point x="470" y="598" type="line"/>
      <point x="470" y="680" type="line"/>
      <point x="106" y="680" type="line"/>
      <point x="106" y="0" type="line"/>
      <point x="193" y="0" type="line"/>
      <point x="193" y="286" type="line"/>
    </contour>
  </outline>
</glyph>
<glyph name="G" format="1">
  <advance width="604"/>
  <unicode hex="0047"/>
  <outline>
    <contour>
      <point x="536" y="47" type="curve"/>
      <point x="536" y="356" type="line"/>
      <point x="329" y="356" type="line"/>
      <point x="329" y="279" type="line"/>
      <point x="456" y="279" type="line"/>
      <point x="456" y="96" type="line"/>
      <point x="421" y="80"/>
      <point x="373" y="70"/>
      <point x="331" y="70" type="curve" smooth="yes"/>
      <point x="220" y="70"/>
      <point x="166" y="146"/>
      <point x="166" y="266" type="curve" smooth="yes"/>
      <point x="166" y="415" type="line" smooth="yes"/>
      <point x="166" y="541"/>
      <point x="219" y="609"/>
      <point x="329" y="609" type="curve" smooth="yes"/>
      <point x="380" y="609"/>
      <point x="432" y="597"/>
      <point x="493" y="572" type="curve"/>
      <point x="521" y="647" type="line"/>
      <point x="455" y="677"/>
      <point x="388" y="690"/>
      <point x="328" y="690" type="curve" smooth="yes"/>
      <point x="164" y="690"/>
      <point x="76" y="586"/>
      <point x="76" y="415" type="curve" smooth="yes"/>
      <point x="76" y="266" type="line" smooth="yes"/>
      <point x="76" y="101"/>
      <point x="164" y="-10"/>
      <point x="325" y="-10" type="curve" smooth="yes"/>
      <point x="425" y="-10"/>
      <point x="497" y="22"/>
    </contour>
  </outline>
</glyph>
<glyph name="H" format="1">
  <advance width="683"/>
  <unicode hex="0048"/>
  <outline>
    <contour>
      <point x="490" y="0" type="line"/>
      <point x="577" y="0" type="line"/>
      <point x="577" y="680" type="line"/>
      <point x="490" y="680" type="line"/>
      <point x="490" y="385" type="line"/>
      <point x="193" y="385" type="line"/>
      <point x="193" y="680" type="line"/>
      <point x="106" y="680" type="line"/>
      <point x="106" y="0" type="line"/>
      <point x="193" y="0" type="line"/>
      <point x="193" y="303" type="line"/>
      <point x="490" y="303" type="line"/>
    </contour>
  </outline>
</glyph>
<glyph name="I" format="2">
	<advance width="300"/>
	<unicode hex="0049"/>
	<outline>
		<contour>
			<point x="193" y="0" type="line"/>
			<point x="193" y="680" type="line"/>
			<point x="106" y="680" type="line"/>
			<point x="106" y="0" type="line"/>
		</contour>
	</outline>
</glyph>
<glyph name="J" format="1">
  <advance width="363"/>
  <unicode hex="004A"/>
  <outline>
    <contour>
      <point x="27" y="-7" type="line"/>
      <point x="216" y="-7"/>
      <point x="270" y="87"/>
      <point x="270" y="224" type="curve" smooth="yes"/>
      <point x="270" y="680" type="line"/>
      <point x="183" y="680" type="line"/>
      <point x="183" y="224" type="line" smooth="yes"/>
      <point x="183" y="114"/>
      <point x="135" y="76"/>
      <point x="27" y="76" type="curve"/>
    </contour>
  </outline>
</glyph>
<glyph name="K" format="1">
  <advance width="596"/>
  <unicode hex="004B"/>
  <outline>
    <contour>
      <point x="477" y="0" type="line"/>
      <point x="583" y="0" type="line"/>
      <point x="347" y="378" type="line"/>
      <point x="429" y="472"/>
      <point x="491" y="562"/>
      <point x="551" y="680" type="curve"/>
      <point x="457" y="680" type="line"/>
      <point x="398" y="563"/>
      <point x="318" y="453"/>
      <point x="193" y="327" type="curve"/>
      <point x="193" y="680" type="line"/>
      <point x="106" y="680" type="line"/>
      <point x="106" y="0" type="line"/>
      <point x="193" y="0" type="line"/>
      <point x="193" y="230" type="line"/>
      <point x="225" y="261"/>
      <point x="255" y="291"/>
      <point x="283" y="321" type="curve"/>
    </contour>
  </outline>
</glyph>
<glyph name="L" format="2">
	<advance width="506"/>
	<unicode hex="004C"/>
	<outline>
		<contour>
			<point x="478" y="81" type="line"/>
			<point x="193" y="81" type="line"/>
			<point x="193" y="680" type="line"/>
			<point x="106" y="680" type="line"/>
			<point x="106" y="0" type="line"/>
			<point x="478" y="0" type="line"/>
		</contour>
	</outline>
</glyph>
<glyph name="M" format="1">
  <advance width="829"/>
  <unicode hex="004D"/>
  <outline>
    <contour>
      <point x="208" y="680" type="line"/>
      <point x="106" y="680" type="line"/>
      <point x="106" y="0" type="line"/>
      <point x="191" y="0" type="line"/>
      <point x="191" y="291" type="line"/>
      <point x="180" y="555" type="line"/>
      <point x="371" y="80" type="line"/>
      <point x="453" y="80" type="line"/>
      <point x="648" y="553" type="line"/>
      <point x="637" y="291" type="line"/>
      <point x="637" y="0" type="line"/>
      <point x="722" y="0" type="line"/>
      <point x="722" y="680" type="line"/>
      <point x="623" y="680" type="line"/>
      <point x="415" y="176" type="line"/>
    </contour>
  </outline>
</glyph>
<glyph name="N" format="1">
  <advance width="690"/>
  <unicode hex="004E"/>
  <outline>
    <contour>
      <point x="106" y="0" type="line"/>
      <point x="191" y="0" type="line"/>
      <point x="191" y="278" type="line"/>
      <point x="185" y="555" type="line"/>
      <point x="302" y="379"/>
      <point x="398" y="195"/>
      <point x="492" y="0" type="curve"/>
      <point x="583" y="0" type="line"/>
      <point x="583" y="680" type="line"/>
      <point x="498" y="680" type="line"/>
      <point x="498" y="404" type="line"/>
      <point x="508" y="144" type="line"/>
      <point x="418" y="335"/>
      <point x="318" y="507"/>
      <point x="197" y="680" type="curve"/>
      <point x="106" y="680" type="line"/>
    </contour>
  </outline>
</glyph>
<glyph name="O" format="1">
  <advance width="647"/>
  <unicode hex="004F"/>
  <outline>
    <contour>
      <point x="569" y="415" type="line" smooth="yes"/>
      <point x="569" y="583"/>
      <point x="481" y="690"/>
      <point x="323" y="690" type="curve" smooth="yes"/>
      <point x="164" y="690"/>
      <point x="77" y="583"/>
      <point x="77" y="415" type="curve" smooth="yes"/>
      <point x="77" y="266" type="line" smooth="yes"/>
      <point x="77" y="97"/>
      <point x="164" y="-10"/>
      <point x="323" y="-10" type="curve" smooth="yes"/>
      <point x="482" y="-10"/>
      <point x="569" y="97"/>
      <point x="569" y="266" type="curve" smooth="yes"/>
    </contour>
    <contour>
      <point x="479" y="415" type="curve" smooth="yes"/>
      <point x="479" y="266" type="line" smooth="yes"/>
      <point x="479" y="141"/>
      <point x="426" y="70"/>
      <point x="323" y="70" type="curve" smooth="yes"/>
      <point x="221" y="70"/>
      <point x="167" y="141"/>
      <point x="167" y="266" type="curve" smooth="yes"/>
      <point x="167" y="415" type="line" smooth="yes"/>
      <point x="167" y="539"/>
      <point x="221" y="609"/>
      <point x="323" y="609" type="curve" smooth="yes"/>
      <point x="426" y="609"/>
      <point x="479" y="539"/>
    </contour>
  </outline>
</glyph>
<glyph name="P" format="1">
  <advance width="564"/>
  <unicode hex="0050"/>
  <outline>
    <contour>
      <point x="106" y="0" type="line"/>
      <point x="193" y="0" type="line"/>
      <point x="193" y="248" type="line"/>
      <point x="318" y="248" type="line" smooth="yes"/>
      <point x="449" y="248"/>
      <point x="519" y="323"/>
      <point x="519" y="438" type="curve" smooth="yes"/>
      <point x="519" y="491" type="line" smooth="yes"/>
      <point x="519" y="605"/>
      <point x="449" y="680"/>
      <point x="318" y="680" type="curve" smooth="yes"/>
      <point x="106" y="680" type="line"/>
    </contour>
    <contour>
      <point x="318" y="598" type="line" smooth="yes"/>
      <point x="390" y="598"/>
      <point x="429" y="558"/>
      <point x="429" y="491" type="curve" smooth="yes"/>
      <point x="429" y="438" type="line" smooth="yes"/>
      <point x="429" y="370"/>
      <point x="390" y="329"/>
      <point x="318" y="329" type="curve" smooth="yes"/>
      <point x="193" y="329" type="line"/>
      <point x="193" y="598" type="line"/>
    </contour>
  </outline>
</glyph>
<glyph name="Q" format="1">
  <advance width="647"/>
  <unicode hex="0051"/>
  <outline>
    <contour>
      <point x="562" y="-94" type="line"/>
      <point x="466" y="-92"/>
      <point x="436" y="-77"/>
      <point x="408" y="2" type="curve"/>
      <point x="513" y="34"/>
      <point x="569" y="130"/>
      <point x="569" y="266" type="curve" smooth="yes"/>
      <point x="569" y="415" type="line" smooth="yes"/>
      <point x="569" y="583"/>
      <point x="481" y="690"/>
      <point x="323" y="690" type="curve" smooth="yes"/>
      <point x="164" y="690"/>
      <point x="77" y="583"/>
      <point x="77" y="415" type="curve" smooth="yes"/>
      <point x="77" y="266" type="line" smooth="yes"/>
      <point x="77" y="97"/>
      <point x="164" y="-10"/>
      <point x="323" y="-10" type="curve" smooth="yes"/>
      <point x="326" y="-10" type="line"/>
      <point x="337" y="-42" type="line" smooth="yes"/>
      <point x="373" y="-139"/>
      <point x="432" y="-183"/>
      <point x="562" y="-183" type="curve"/>
    </contour>
    <contour>
      <point x="479" y="415" type="curve" smooth="yes"/>
      <point x="479" y="266" type="line" smooth="yes"/>
      <point x="479" y="141"/>
      <point x="426" y="70"/>
      <point x="323" y="70" type="curve" smooth="yes"/>
      <point x="221" y="70"/>
      <point x="167" y="141"/>
      <point x="167" y="266" type="curve" smooth="yes"/>
      <point x="167" y="415" type="line" smooth="yes"/>
      <point x="167" y="539"/>
      <point x="221" y="609"/>
      <point x="323" y="609" type="curve" smooth="yes"/>
      <point x="426" y="609"/>
      <point x="479" y="539"/>
    </contour>
  </outline>
</glyph>
<glyph name="R" format="1">
  <advance width="601"/>
  <unicode hex="0052"/>
  <outline>
    <contour>
      <point x="193" y="266" type="line"/>
      <point x="329" y="266" type="line"/>
      <point x="380" y="179"/>
      <point x="424" y="91"/>
      <point x="462" y="0" type="curve"/>
      <point x="562" y="0" type="line"/>
      <point x="520" y="96"/>
      <point x="471" y="191"/>
      <point x="414" y="283" type="curve"/>
      <point x="482" y="311"/>
      <point x="520" y="372"/>
      <point x="520" y="452" type="curve" smooth="yes"/>
      <point x="520" y="495" type="line" smooth="yes"/>
      <point x="520" y="607"/>
      <point x="447" y="680"/>
      <point x="319" y="680" type="curve" smooth="yes"/>
      <point x="106" y="680" type="line"/>
      <point x="106" y="0" type="line"/>
      <point x="193" y="0" type="line"/>
    </contour>
    <contour>
      <point x="319" y="600" type="line" smooth="yes"/>
      <point x="387" y="600"/>
      <point x="430" y="561"/>
      <point x="430" y="495" type="curve" smooth="yes"/>
      <point x="430" y="452" type="line" smooth="yes"/>
      <point x="430" y="386"/>
      <point x="387" y="346"/>
      <point x="319" y="346" type="curve" smooth="yes"/>
      <point x="193" y="346" type="line"/>
      <point x="193" y="600" type="line"/>
    </contour>
  </outline>
</glyph>
<glyph name="S" format="1">
  <advance width="506"/>
  <unicode hex="0053"/>
  <outline>
    <contour>
      <point x="245" y="68" type="curve" smooth="yes"/>
      <point x="187" y="68"/>
      <point x="135" y="80"/>
      <point x="64" y="112" type="curve"/>
      <point x="37" y="38" type="line"/>
      <point x="111" y="4"/>
      <point x="182" y="-10"/>
      <point x="245" y="-10" type="curve" smooth="yes"/>
      <point x="398" y="-10"/>
      <point x="464" y="68"/>
      <point x="464" y="183" type="curve" smooth="yes"/>
      <point x="464" y="283"/>
      <point x="413" y="347"/>
      <point x="312" y="377" type="curve" smooth="yes"/>
      <point x="231" y="401" type="line" smooth="yes"/>
      <point x="159" y="423"/>
      <point x="135" y="458"/>
      <point x="135" y="510" type="curve" smooth="yes"/>
      <point x="135" y="582"/>
      <point x="179" y="611"/>
      <point x="255" y="611" type="curve" smooth="yes"/>
      <point x="302" y="611"/>
      <point x="351" y="599"/>
      <point x="415" y="571" type="curve"/>
      <point x="443" y="646" type="line"/>
      <point x="377" y="676"/>
      <point x="313" y="690"/>
      <point x="253" y="690" type="curve" smooth="yes"/>
      <point x="104" y="690"/>
      <point x="47" y="607"/>
      <point x="47" y="504" type="curve" smooth="yes"/>
      <point x="47" y="413"/>
      <point x="93" y="350"/>
      <point x="195" y="320" type="curve" smooth="yes"/>
      <point x="276" y="296" type="line" smooth="yes"/>
      <point x="347" y="275"/>
      <point x="376" y="235"/>
      <point x="376" y="176" type="curve" smooth="yes"/>
      <point x="376" y="105"/>
      <point x="329" y="68"/>
    </contour>
  </outline>
</glyph>
<glyph name="T" format="2">
	<advance width="509"/>
	<unicode hex="0054"/>
	<outline>
		<contour>
			<point x="13" y="598" type="line"/>
			<point x="211" y="598" type="line"/>
			<point x="211" y="0" type="line"/>
			<point x="298" y="0" type="line"/>
			<point x="298" y="598" type="line"/>
			<point x="496" y="598" type="line"/>
			<point x="496" y="680" type="line"/>
			<point x="13" y="680" type="line"/>
		</contour>
	</outline>
</glyph>
<glyph name="U" format="1">
  <advance width="648"/>
  <unicode hex="0055"/>
  <outline>
    <contour>
      <point x="92" y="680" type="line"/>
      <point x="92" y="244" type="line" smooth="yes"/>
      <point x="92" y="85"/>
      <point x="168" y="-10"/>
      <point x="324" y="-10" type="curve" smooth="yes"/>
      <point x="479" y="-10"/>
      <point x="556" y="85"/>
      <point x="556" y="244" type="curve" smooth="yes"/>
      <point x="556" y="680" type="line"/>
      <point x="466" y="680" type="line"/>
      <point x="466" y="244" type="line" smooth="yes"/>
      <point x="466" y="135"/>
      <point x="423" y="70"/>
      <point x="324" y="70" type="curve" smooth="yes"/>
      <point x="226" y="70"/>
      <point x="182" y="135"/>
      <point x="182" y="244" type="curve" smooth="yes"/>
      <point x="182" y="680" type="line"/>
    </contour>
  </outline>
</glyph>
<glyph name="V" format="2">
	<advance width="563"/>
	<unicode hex="0056"/>
	<outline>
		<contour>
			<point x="543" y="680" type="line"/>
			<point x="457" y="680" type="line"/>
			<point x="351" y="336" type="line"/>
			<point x="285" y="117" type="line"/>
			<point x="220" y="335" type="line"/>
			<point x="112" y="680" type="line"/>
			<point x="20" y="680" type="line"/>
			<point x="238" y="0" type="line"/>
			<point x="326" y="0" type="line"/>
		</contour>
	</outline>
</glyph>
<glyph name="W" format="1">
  <advance width="860"/>
  <unicode hex="0057"/>
  <outline>
    <contour>
      <point x="186" y="392" type="line"/>
      <point x="127" y="680" type="line"/>
      <point x="36" y="680" type="line"/>
      <point x="185" y="0" type="line"/>
      <point x="274" y="0" type="line"/>
      <point x="430" y="556" type="line"/>
      <point x="586" y="0" type="line"/>
      <point x="674" y="0" type="line"/>
      <point x="824" y="680" type="line"/>
      <point x="738" y="680" type="line"/>
      <point x="679" y="392" type="line"/>
      <point x="629" y="120" type="line"/>
      <point x="472" y="680" type="line"/>
      <point x="391" y="680" type="line"/>
      <point x="234" y="117" type="line"/>
    </contour>
  </outline>
</glyph>
<glyph name="X" format="2">
	<advance width="548"/>
	<unicode hex="0058"/>
	<outline>
		<contour>
			<point x="429" y="0" type="line"/>
			<point x="527" y="0" type="line"/>
			<point x="324" y="347" type="line"/>
			<point x="516" y="680" type="line"/>
			<point x="426" y="680" type="line"/>
			<point x="279" y="421" type="line"/>
			<point x="129" y="680" type="line"/>
			<point x="30" y="680" type="line"/>
			<point x="222" y="351" type="line"/>
			<point x="20" y="0" type="line"/>
			<point x="111" y="0" type="line"/>
			<point x="267" y="277" type="line"/>
		</contour>
	</outline>
</glyph>
<glyph name="Y" format="2">
	<advance width="524"/>
	<unicode hex="0059"/>
	<outline>
		<contour>
			<point x="514" y="680" type="line"/>
			<point x="424" y="680" type="line"/>
			<point x="267" y="358" type="line"/>
			<point x="104" y="680" type="line"/>
			<point x="10" y="680" type="line"/>
			<point x="219" y="272" type="line"/>
			<point x="219" y="0" type="line"/>
			<point x="306" y="0" type="line"/>
			<point x="306" y="272" type="line"/>
		</contour>
	</outline>
</glyph>
<glyph name="Z" format="1">
  <advance width="508"/>
  <unicode hex="005A"/>
  <outline>
    <contour>
      <point x="470" y="81" type="line"/>
      <point x="144" y="81" type="line"/>
      <point x="460" y="609" type="line"/>
      <point x="460" y="680" type="line"/>
      <point x="51" y="680" type="line"/>
      <point x="51" y="598" type="line"/>
      <point x="356" y="598" type="line"/>
      <point x="41" y="70" type="line"/>
      <point x="41" y="0" type="line"/>
      <point x="470" y="0" type="line"/>
    </contour>
  </outline>
</glyph>
<glyph name="bracketleft" format="1">
  <advance width="346"/>
  <unicode hex="005B"/>
  <outline>
    <contour>
      <point x="343" y="-71" type="line"/>
      <point x="188" y="-71" type="line"/>
      <point x="188" y="668" type="line"/>
      <point x="343" y="668" type="line"/>
      <point x="343" y="740" type="line"/>
      <point x="106" y="740" type="line"/>
      <point x="106" y="-143" type="line"/>
      <point x="343" y="-143" type="line"/>
    </contour>
  </outline>
</glyph>
<glyph name="backslash" format="2">
	<advance width="364"/>
	<unicode hex="005C"/>
	<outline>
		<contour>
			<point x="74" y="740" type="line"/>
			<point x="-9" y="740" type="line"/>
			<point x="319" y="-143" type="line"/>
			<point x="403" y="-143" type="line"/>
		</contour>
	</outline>
</glyph>
<glyph name="bracketright" format="1">
  <advance width="346"/>
  <unicode hex="005D"/>
  <outline>
    <contour>
      <point x="239" y="740" type="line"/>
      <point x="2" y="740" type="line"/>
      <point x="2" y="668" type="line"/>
      <point x="157" y="668" type="line"/>
      <point x="157" y="-71" type="line"/>
      <point x="2" y="-71" type="line"/>
      <point x="2" y="-143" type="line"/>
      <point x="239" y="-143" type="line"/>
    </contour>
  </outline>
</glyph>
<glyph name="asciicircum" format="1">
  <advance width="588"/>
  <unicode hex="005E"/>
  <outline>
    <contour>
      <point x="405" y="266" type="line"/>
      <point x="487" y="266" type="line"/>
      <point x="320" y="680" type="line"/>
      <point x="265" y="680" type="line"/>
      <point x="100" y="266" type="line"/>
      <point x="178" y="266" type="line"/>
      <point x="291" y="563" type="line"/>
    </contour>
  </outline>
</glyph>
<glyph name="underscore" format="1">
  <advance width="390"/>
  <unicode hex="005F"/>
  <outline>
    <contour>
      <point x="5" y="-157" type="line"/>
      <point x="385" y="-157" type="line"/>
      <point x="385" y="-96" type="line"/>
      <point x="5" y="-96" type="line"/>
    </contour>
  </outline>
</glyph>
<glyph name="grave" format="1">
  <advance width="500"/>
  <unicode hex="0060"/>
  <outline>
    <contour>
      <point x="214" y="579" type="line"/>
      <point x="285" y="579" type="line"/>
      <point x="195" y="745" type="line"/>
      <point x="116" y="709" type="line"/>
    </contour>
  </outline>
</glyph>
<glyph name="a" format="1">
  <advance width="493"/>
  <unicode hex="0061"/>
  <outline>
    <contour>
      <point x="450" y="-5" type="curve" smooth="yes"/>
      <point x="465" y="-5" type="line"/>
      <point x="465" y="70" type="line"/>
      <point x="454" y="70" type="line" smooth="yes"/>
      <point x="418" y="70"/>
      <point x="409" y="93"/>
      <point x="409" y="124" type="curve" smooth="yes"/>
      <point x="409" y="338" type="line" smooth="yes"/>
      <point x="409" y="428"/>
      <point x="376" y="505"/>
      <point x="237" y="505" type="curve" smooth="yes"/>
      <point x="180" y="505"/>
      <point x="125" y="490"/>
      <point x="64" y="462" type="curve"/>
      <point x="90" y="394" type="line"/>
      <point x="142" y="417"/>
      <point x="189" y="429"/>
      <point x="233" y="429" type="curve" smooth="yes"/>
      <point x="296" y="429"/>
      <point x="329" y="406"/>
      <point x="329" y="332" type="curve" smooth="yes"/>
      <point x="329" y="265" type="line"/>
      <point x="285" y="272"/>
      <point x="241" y="277"/>
      <point x="205" y="277" type="curve" smooth="yes"/>
      <point x="82" y="277"/>
      <point x="42" y="216"/>
      <point x="42" y="135" type="curve" smooth="yes"/>
      <point x="42" y="53"/>
      <point x="82" y="-10"/>
      <point x="169" y="-10" type="curve" smooth="yes"/>
      <point x="222" y="-10"/>
      <point x="273" y="10"/>
      <point x="338" y="68" type="curve"/>
      <point x="352" y="26"/>
      <point x="389" y="-5"/>
    </contour>
    <contour>
      <point x="123" y="136" type="curve" smooth="yes"/>
      <point x="123" y="187"/>
      <point x="148" y="212"/>
      <point x="209" y="212" type="curve" smooth="yes"/>
      <point x="242" y="212"/>
      <point x="286" y="208"/>
      <point x="329" y="201" type="curve"/>
      <point x="329" y="138" type="line"/>
      <point x="262" y="75"/>
      <point x="219" y="60"/>
      <point x="185" y="60" type="curve" smooth="yes"/>
      <point x="145" y="60"/>
      <point x="123" y="90"/>
    </contour>
  </outline>
</glyph>
<glyph name="b" format="1">
  <advance width="552"/>
  <unicode hex="0062"/>
  <outline>
    <contour>
      <point x="488" y="218" type="curve" smooth="yes"/>
      <point x="488" y="276" type="line" smooth="yes"/>
      <point x="488" y="421"/>
      <point x="430" y="505"/>
      <point x="326" y="505" type="curve" smooth="yes"/>
      <point x="274" y="505"/>
      <point x="227" y="484"/>
      <point x="167" y="428" type="curve"/>
      <point x="167" y="740" type="line"/>
      <point x="85" y="740" type="line"/>
      <point x="85" y="43" type="line"/>
      <point x="150" y="8"/>
      <point x="218" y="-10"/>
      <point x="283" y="-10" type="curve" smooth="yes"/>
      <point x="417" y="-10"/>
      <point x="488" y="79"/>
    </contour>
    <contour>
      <point x="306" y="428" type="curve" smooth="yes"/>
      <point x="371" y="428"/>
      <point x="403" y="380"/>
      <point x="403" y="276" type="curve" smooth="yes"/>
      <point x="403" y="218" type="line" smooth="yes"/>
      <point x="403" y="123"/>
      <point x="367" y="64"/>
      <point x="278" y="64" type="curve" smooth="yes"/>
      <point x="241" y="64"/>
      <point x="207" y="72"/>
      <point x="167" y="89" type="curve"/>
      <point x="167" y="351" type="line"/>
      <point x="231" y="413"/>
      <point x="268" y="428"/>
    </contour>
  </outline>
</glyph>
<glyph name="c" format="1">
  <advance width="449"/>
  <unicode hex="0063"/>
  <outline>
    <contour>
      <point x="146" y="277" type="line" smooth="yes"/>
      <point x="146" y="377"/>
      <point x="181" y="429"/>
      <point x="263" y="429" type="curve" smooth="yes"/>
      <point x="300" y="429"/>
      <point x="341" y="418"/>
      <point x="385" y="399" type="curve"/>
      <point x="410" y="469" type="line"/>
      <point x="358" y="492"/>
      <point x="306" y="505"/>
      <point x="258" y="505" type="curve" smooth="yes"/>
      <point x="130" y="505"/>
      <point x="62" y="418"/>
      <point x="62" y="277" type="curve" smooth="yes"/>
      <point x="62" y="218" type="line" smooth="yes"/>
      <point x="62" y="76"/>
      <point x="130" y="-10"/>
      <point x="258" y="-10" type="curve" smooth="yes"/>
      <point x="309" y="-10"/>
      <point x="364" y="3"/>
      <point x="417" y="27" type="curve"/>
      <point x="392" y="96" type="line"/>
      <point x="345" y="75"/>
      <point x="302" y="65"/>
      <point x="263" y="65" type="curve" smooth="yes"/>
      <point x="181" y="65"/>
      <point x="146" y="117"/>
      <point x="146" y="218" type="curve" smooth="yes"/>
    </contour>
  </outline>
</glyph>
<glyph name="e" format="1">
  <advance width="504"/>
  <unicode hex="0065"/>
  <outline>
    <contour>
      <point x="447" y="29" type="curve"/>
      <point x="422" y="97" type="line"/>
      <point x="372" y="74"/>
      <point x="318" y="64"/>
      <point x="276" y="64" type="curve" smooth="yes"/>
      <point x="182" y="64"/>
      <point x="143" y="117"/>
      <point x="143" y="218" type="curve" smooth="yes"/>
      <point x="143" y="220" type="line"/>
      <point x="438" y="220" type="line"/>
      <point x="446" y="256"/>
      <point x="450" y="287"/>
      <point x="450" y="316" type="curve" smooth="yes"/>
      <point x="450" y="445"/>
      <point x="365" y="505"/>
      <point x="263" y="505" type="curve" smooth="yes"/>
      <point x="135" y="505"/>
      <point x="62" y="415"/>
      <point x="62" y="278" type="curve" smooth="yes"/>
      <point x="62" y="218" type="line" smooth="yes"/>
      <point x="62" y="76"/>
      <point x="131" y="-10"/>
      <point x="274" y="-10" type="curve" smooth="yes"/>
      <point x="324" y="-10"/>
      <point x="387" y="0"/>
    </contour>
    <contour>
      <point x="263" y="433" type="curve" smooth="yes"/>
      <point x="321" y="433"/>
      <point x="370" y="399"/>
      <point x="370" y="324" type="curve" smooth="yes"/>
      <point x="370" y="314"/>
      <point x="369" y="302"/>
      <point x="367" y="290" type="curve"/>
      <point x="143" y="290" type="line"/>
      <point x="147" y="381"/>
      <point x="186" y="433"/>
    </contour>
  </outline>
</glyph>
<glyph name="f" format="1">
  <advance width="350"/>
  <unicode hex="0066"/>
  <outline>
    <contour>
      <point x="348" y="423" type="line"/>
      <point x="348" y="495" type="line"/>
      <point x="186" y="495" type="line"/>
      <point x="186" y="578" type="line" smooth="yes"/>
      <point x="186" y="646"/>
      <point x="217" y="675"/>
      <point x="273" y="675" type="curve" smooth="yes"/>
      <point x="298" y="675"/>
      <point x="329" y="668"/>
      <point x="362" y="655" type="curve"/>
      <point x="385" y="724" type="line"/>
      <point x="347" y="741"/>
      <point x="302" y="750"/>
      <point x="263" y="750" type="curve" smooth="yes"/>
      <point x="146" y="750"/>
      <point x="104" y="669"/>
      <point x="104" y="577" type="curve" smooth="yes"/>
      <point x="104" y="495" type="line"/>
      <point x="18" y="495" type="line"/>
      <point x="18" y="423" type="line"/>
      <point x="104" y="423" type="line"/>
      <point x="104" y="0" type="line"/>
      <point x="186" y="0" type="line"/>
      <point x="186" y="423" type="line"/>
    </contour>
  </outline>
</glyph>
<glyph name="g" format="1">
  <advance width="520"/>
  <unicode hex="0067"/>
  <outline>
    <contour>
      <point x="484" y="-62" type="curve" smooth="yes"/>
      <point x="484" y="19"/>
      <point x="426" y="63"/>
      <point x="330" y="63" type="curve" smooth="yes"/>
      <point x="218" y="63" type="line" smooth="yes"/>
      <point x="179" y="63"/>
      <point x="162" y="78"/>
      <point x="162" y="103" type="curve" smooth="yes"/>
      <point x="162" y="122"/>
      <point x="171" y="144"/>
      <point x="191" y="166" type="curve"/>
      <point x="207" y="163"/>
      <point x="223" y="161"/>
      <point x="240" y="161" type="curve" smooth="yes"/>
      <point x="257" y="161" type="line" smooth="yes"/>
      <point x="357" y="161"/>
      <point x="438" y="220"/>
      <point x="438" y="328" type="curve" smooth="yes"/>
      <point x="438" y="379"/>
      <point x="419" y="413"/>
      <point x="391" y="437" type="curve"/>
      <point x="499" y="422" type="line"/>
      <point x="499" y="495" type="line"/>
      <point x="321" y="495" type="line"/>
      <point x="301" y="502"/>
      <point x="279" y="505"/>
      <point x="257" y="505" type="curve" smooth="yes"/>
      <point x="240" y="505" type="line" smooth="yes"/>
      <point x="138" y="505"/>
      <point x="58" y="447"/>
      <point x="58" y="333" type="curve" smooth="yes"/>
      <point x="58" y="264"/>
      <point x="88" y="215"/>
      <point x="135" y="187" type="curve"/>
      <point x="106" y="154"/>
      <point x="89" y="120"/>
      <point x="89" y="85" type="curve" smooth="yes"/>
      <point x="89" y="35"/>
      <point x="125" y="-14"/>
      <point x="212" y="-14" type="curve" smooth="yes"/>
      <point x="327" y="-14" type="line" smooth="yes"/>
      <point x="380" y="-14"/>
      <point x="403" y="-34"/>
      <point x="403" y="-70" type="curve" smooth="yes"/>
      <point x="403" y="-120"/>
      <point x="352" y="-151"/>
      <point x="261" y="-151" type="curve" smooth="yes"/>
      <point x="202" y="-151"/>
      <point x="140" y="-138"/>
      <point x="74" y="-100" type="curve"/>
      <point x="46" y="-164" type="line"/>
      <point x="113" y="-205"/>
      <point x="191" y="-223"/>
      <point x="261" y="-223" type="curve" smooth="yes"/>
      <point x="399" y="-223"/>
      <point x="484" y="-160"/>
    </contour>
    <contour>
      <point x="257" y="232" type="curve" smooth="yes"/>
      <point x="240" y="232" type="line" smooth="yes"/>
      <point x="186" y="232"/>
      <point x="140" y="265"/>
      <point x="140" y="333" type="curve" smooth="yes"/>
      <point x="140" y="400"/>
      <point x="186" y="434"/>
      <point x="240" y="434" type="curve" smooth="yes"/>
      <point x="257" y="434" type="line" smooth="yes"/>
      <point x="309" y="434"/>
      <point x="356" y="400"/>
      <point x="356" y="333" type="curve" smooth="yes"/>
      <point x="356" y="265"/>
      <point x="309" y="232"/>
    </contour>
  </outline>
</glyph>
<glyph name="i" format="1">
  <advance width="259"/>
  <unicode hex="0069"/>
  <outline>
    <contour>
      <point x="175" y="616" type="line"/>
      <point x="175" y="708" type="line"/>
      <point x="83" y="708" type="line"/>
      <point x="83" y="616" type="line"/>
    </contour>
    <contour>
      <point x="170" y="0" type="line"/>
      <point x="170" y="495" type="line"/>
      <point x="88" y="495" type="line"/>
      <point x="88" y="0" type="line"/>
    </contour>
  </outline>
</glyph>
<glyph name="j" format="1">
  <advance width="259"/>
  <unicode hex="006A"/>
  <outline>
    <contour>
      <point x="175" y="616" type="line"/>
      <point x="175" y="708" type="line"/>
      <point x="83" y="708" type="line"/>
      <point x="83" y="616" type="line"/>
    </contour>
    <contour>
      <point x="-20" y="-223" type="line"/>
      <point x="126" y="-223"/>
      <point x="170" y="-139"/>
      <point x="170" y="-23" type="curve" smooth="yes"/>
      <point x="170" y="495" type="line"/>
      <point x="88" y="495" type="line"/>
      <point x="88" y="-23" type="line" smooth="yes"/>
      <point x="88" y="-119"/>
      <point x="50" y="-145"/>
      <point x="-20" y="-145" type="curve"/>
    </contour>
  </outline>
</glyph>
<glyph name="l" format="1">
  <advance width="264"/>
  <unicode hex="006C"/>
  <outline>
    <contour>
      <point x="87" y="120" type="line" smooth="yes"/>
      <point x="87" y="46"/>
      <point x="117" y="-5"/>
      <point x="205" y="-5" type="curve" smooth="yes"/>
      <point x="228" y="-5" type="line"/>
      <point x="228" y="70" type="line"/>
      <point x="212" y="70" type="line" smooth="yes"/>
      <point x="177" y="70"/>
      <point x="169" y="88"/>
      <point x="169" y="124" type="curve" smooth="yes"/>
      <point x="169" y="740" type="line"/>
      <point x="87" y="740" type="line"/>
    </contour>
  </outline>
</glyph>
<glyph name="m" format="1">
  <advance width="869"/>
  <unicode hex="006D"/>
  <outline>
    <contour>
      <point x="321" y="428" type="curve" smooth="yes"/>
      <point x="372" y="428"/>
      <point x="396" y="396"/>
      <point x="396" y="326" type="curve" smooth="yes"/>
      <point x="396" y="0" type="line"/>
      <point x="478" y="0" type="line"/>
      <point x="478" y="338" type="line" smooth="yes"/>
      <point x="478" y="344"/>
      <point x="478" y="351"/>
      <point x="477" y="357" type="curve"/>
      <point x="548" y="413"/>
      <point x="592" y="428"/>
      <point x="629" y="428" type="curve" smooth="yes"/>
      <point x="679" y="428"/>
      <point x="703" y="396"/>
      <point x="703" y="326" type="curve" smooth="yes"/>
      <point x="703" y="0" type="line"/>
      <point x="785" y="0" type="line"/>
      <point x="785" y="338" type="line" smooth="yes"/>
      <point x="785" y="444"/>
      <point x="737" y="505"/>
      <point x="649" y="505" type="curve" smooth="yes"/>
      <point x="593" y="505"/>
      <point x="538" y="484"/>
      <point x="465" y="422" type="curve"/>
      <point x="445" y="475"/>
      <point x="403" y="505"/>
      <point x="341" y="505" type="curve" smooth="yes"/>
      <point x="288" y="505"/>
      <point x="236" y="484"/>
      <point x="166" y="426" type="curve"/>
      <point x="166" y="495" type="line"/>
      <point x="88" y="495" type="line"/>
      <point x="88" y="0" type="line"/>
      <point x="170" y="0" type="line"/>
      <point x="170" y="357" type="line"/>
      <point x="240" y="413"/>
      <point x="284" y="428"/>
    </contour>
  </outline>
</glyph>
<glyph name="n" format="1">
  <advance width="571"/>
  <unicode hex="006E"/>
  <outline>
    <contour>
      <point x="326" y="428" type="curve" smooth="yes"/>
      <point x="380" y="428"/>
      <point x="406" y="396"/>
      <point x="406" y="326" type="curve" smooth="yes"/>
      <point x="406" y="0" type="line"/>
      <point x="488" y="0" type="line"/>
      <point x="488" y="338" type="line" smooth="yes"/>
      <point x="488" y="444"/>
      <point x="438" y="505"/>
      <point x="346" y="505" type="curve" smooth="yes"/>
      <point x="292" y="505"/>
      <point x="237" y="486"/>
      <point x="166" y="426" type="curve"/>
      <point x="166" y="495" type="line"/>
      <point x="88" y="495" type="line"/>
      <point x="88" y="0" type="line"/>
      <point x="170" y="0" type="line"/>
      <point x="170" y="357" type="line"/>
      <point x="241" y="414"/>
      <point x="288" y="428"/>
    </contour>
  </outline>
</glyph>
<glyph name="o" format="1">
  <advance width="541"/>
  <unicode hex="006F"/>
  <outline>
    <contour>
      <point x="480" y="278" type="line" smooth="yes"/>
      <point x="480" y="416"/>
      <point x="405" y="505"/>
      <point x="270" y="505" type="curve" smooth="yes"/>
      <point x="135" y="505"/>
      <point x="60" y="416"/>
      <point x="60" y="278" type="curve" smooth="yes"/>
      <point x="60" y="218" type="line" smooth="yes"/>
      <point x="60" y="76"/>
      <point x="136" y="-10"/>
      <point x="270" y="-10" type="curve" smooth="yes"/>
      <point x="404" y="-10"/>
      <point x="480" y="76"/>
      <point x="480" y="218" type="curve" smooth="yes"/>
    </contour>
    <contour>
      <point x="395" y="278" type="curve" smooth="yes"/>
      <point x="395" y="218" type="line" smooth="yes"/>
      <point x="395" y="119"/>
      <point x="351" y="64"/>
      <point x="270" y="64" type="curve" smooth="yes"/>
      <point x="190" y="64"/>
      <point x="145" y="119"/>
      <point x="145" y="218" type="curve" smooth="yes"/>
      <point x="145" y="278" type="line" smooth="yes"/>
      <point x="145" y="373"/>
      <point x="190" y="430"/>
      <point x="270" y="430" type="curve" smooth="yes"/>
      <point x="351" y="430"/>
      <point x="395" y="373"/>
    </contour>
  </outline>
</glyph>
<glyph name="p" format="1">
  <advance width="556"/>
  <unicode hex="0070"/>
  <outline>
    <contour>
      <point x="286" y="-10" type="curve" smooth="yes"/>
      <point x="420" y="-10"/>
      <point x="492" y="79"/>
      <point x="492" y="218" type="curve" smooth="yes"/>
      <point x="492" y="276" type="line" smooth="yes"/>
      <point x="492" y="421"/>
      <point x="433" y="505"/>
      <point x="328" y="505" type="curve" smooth="yes"/>
      <point x="275" y="505"/>
      <point x="227" y="484"/>
      <point x="166" y="425" type="curve"/>
      <point x="166" y="495" type="line"/>
      <point x="88" y="495" type="line"/>
      <point x="88" y="-213" type="line"/>
      <point x="170" y="-213" type="line"/>
      <point x="170" y="13" type="line"/>
      <point x="209" y="-2"/>
      <point x="247" y="-10"/>
    </contour>
    <contour>
      <point x="308" y="428" type="curve" smooth="yes"/>
      <point x="374" y="428"/>
      <point x="407" y="380"/>
      <point x="407" y="276" type="curve" smooth="yes"/>
      <point x="407" y="218" type="line" smooth="yes"/>
      <point x="407" y="123"/>
      <point x="370" y="64"/>
      <point x="279" y="64" type="curve" smooth="yes"/>
      <point x="244" y="64"/>
      <point x="209" y="71"/>
      <point x="170" y="88" type="curve"/>
      <point x="170" y="352" type="line"/>
      <point x="233" y="413"/>
      <point x="269" y="428"/>
    </contour>
  </outline>
</glyph>
<glyph name="q" format="1">
  <advance width="553"/>
  <unicode hex="0071"/>
  <outline>
    <contour>
      <point x="467" y="451" type="line"/>
      <point x="402" y="486"/>
      <point x="334" y="505"/>
      <point x="269" y="505" type="curve" smooth="yes"/>
      <point x="135" y="505"/>
      <point x="64" y="416"/>
      <point x="64" y="276" type="curve" smooth="yes"/>
      <point x="64" y="218" type="line" smooth="yes"/>
      <point x="64" y="74"/>
      <point x="122" y="-10"/>
      <point x="226" y="-10" type="curve" smooth="yes"/>
      <point x="278" y="-10"/>
      <point x="325" y="10"/>
      <point x="385" y="67" type="curve"/>
      <point x="385" y="-213" type="line"/>
      <point x="467" y="-213" type="line"/>
    </contour>
    <contour>
      <point x="149" y="218" type="curve" smooth="yes"/>
      <point x="149" y="276" type="line" smooth="yes"/>
      <point x="149" y="372"/>
      <point x="185" y="430"/>
      <point x="274" y="430" type="curve" smooth="yes"/>
      <point x="311" y="430"/>
      <point x="345" y="422"/>
      <point x="385" y="405" type="curve"/>
      <point x="385" y="143" type="line"/>
      <point x="321" y="81"/>
      <point x="284" y="67"/>
      <point x="246" y="67" type="curve" smooth="yes"/>
      <point x="181" y="67"/>
      <point x="149" y="114"/>
    </contour>
  </outline>
</glyph>
<glyph name="r" format="2">
	<advance width="367"/>
	<unicode hex="0072"/>
	<outline>
		<contour>
			<point x="348" y="423" type="curve"/>
			<point x="348" y="505" type="line"/>
			<point x="287" y="505"/>
			<point x="234" y="482"/>
			<point x="166" y="415" type="curve"/>
			<point x="166" y="495" type="line"/>
			<point x="88" y="495" type="line"/>
			<point x="88" y="0" type="line"/>
			<point x="170" y="0" type="line"/>
			<point x="170" y="346" type="line"/>
			<point x="234" y="406"/>
			<point x="288" y="423"/>
		</contour>
	</outline>
</glyph>
<glyph name="s" format="1">
  <advance width="431"/>
  <unicode hex="0073"/>
  <outline>
    <contour>
      <point x="209" y="63" type="curve" smooth="yes"/>
      <point x="161" y="63"/>
      <point x="117" y="73"/>
      <point x="60" y="96" type="curve"/>
      <point x="38" y="28" type="line"/>
      <point x="98" y="1"/>
      <point x="154" y="-10"/>
      <point x="211" y="-10" type="curve" smooth="yes"/>
      <point x="340" y="-10"/>
      <point x="388" y="53"/>
      <point x="388" y="136" type="curve" smooth="yes"/>
      <point x="388" y="212"/>
      <point x="348" y="259"/>
      <point x="260" y="281" type="curve" smooth="yes"/>
      <point x="205" y="295" type="line" smooth="yes"/>
      <point x="146" y="309"/>
      <point x="129" y="333"/>
      <point x="129" y="367" type="curve" smooth="yes"/>
      <point x="129" y="411"/>
      <point x="160" y="432"/>
      <point x="216" y="432" type="curve" smooth="yes"/>
      <point x="255" y="432"/>
      <point x="299" y="421"/>
      <point x="348" y="399" type="curve"/>
      <point x="374" y="468" type="line"/>
      <point x="319" y="494"/>
      <point x="266" y="505"/>
      <point x="216" y="505" type="curve" smooth="yes"/>
      <point x="97" y="505"/>
      <point x="49" y="438"/>
      <point x="49" y="362" type="curve" smooth="yes"/>
      <point x="49" y="292"/>
      <point x="89" y="240"/>
      <point x="170" y="220" type="curve" smooth="yes"/>
      <point x="225" y="206" type="line" smooth="yes"/>
      <point x="289" y="190"/>
      <point x="309" y="169"/>
      <point x="309" y="131" type="curve" smooth="yes"/>
      <point x="309" y="86"/>
      <point x="277" y="63"/>
    </contour>
  </outline>
</glyph>
<glyph name="t" format="1">
  <advance width="380"/>
  <unicode hex="0074"/>
  <outline>
    <contour>
      <point x="360" y="18" type="curve"/>
      <point x="335" y="85" type="line"/>
      <point x="304" y="70"/>
      <point x="279" y="65"/>
      <point x="255" y="65" type="curve" smooth="yes"/>
      <point x="205" y="65"/>
      <point x="183" y="86"/>
      <point x="183" y="156" type="curve" smooth="yes"/>
      <point x="183" y="423" type="line"/>
      <point x="345" y="423" type="line"/>
      <point x="345" y="495" type="line"/>
      <point x="183" y="495" type="line"/>
      <point x="183" y="633" type="line"/>
      <point x="101" y="633" type="line"/>
      <point x="101" y="495" type="line"/>
      <point x="15" y="495" type="line"/>
      <point x="15" y="423" type="line"/>
      <point x="101" y="423" type="line"/>
      <point x="101" y="153" type="line" smooth="yes"/>
      <point x="101" y="62"/>
      <point x="133" y="-10"/>
      <point x="241" y="-10" type="curve" smooth="yes"/>
      <point x="282" y="-10"/>
      <point x="324" y="0"/>
    </contour>
  </outline>
</glyph>
<glyph name="u" format="1">
  <advance width="559"/>
  <unicode hex="0075"/>
  <outline>
    <contour>
      <point x="393" y="0" type="line"/>
      <point x="470" y="0" type="line"/>
      <point x="470" y="495" type="line"/>
      <point x="388" y="495" type="line"/>
      <point x="388" y="137" type="line"/>
      <point x="319" y="81"/>
      <point x="275" y="67"/>
      <point x="238" y="67" type="curve" smooth="yes"/>
      <point x="188" y="67"/>
      <point x="164" y="98"/>
      <point x="164" y="168" type="curve" smooth="yes"/>
      <point x="164" y="495" type="line"/>
      <point x="82" y="495" type="line"/>
      <point x="82" y="156" type="line" smooth="yes"/>
      <point x="82" y="50"/>
      <point x="130" y="-10"/>
      <point x="218" y="-10" type="curve" smooth="yes"/>
      <point x="272" y="-10"/>
      <point x="323" y="10"/>
      <point x="393" y="70" type="curve"/>
    </contour>
  </outline>
</glyph>
<glyph name="v" format="1">
  <advance width="472"/>
  <unicode hex="0076"/>
  <outline>
    <contour>
      <point x="450" y="495" type="line"/>
      <point x="369" y="495" type="line"/>
      <point x="288" y="254" type="line"/>
      <point x="239" y="103" type="line"/>
      <point x="189" y="254" type="line"/>
      <point x="106" y="495" type="line"/>
      <point x="21" y="495" type="line"/>
      <point x="198" y="0" type="line"/>
      <point x="275" y="0" type="line"/>
    </contour>
  </outline>
</glyph>
<glyph name="w" format="1">
  <advance width="716"/>
  <unicode hex="0077"/>
  <outline>
    <contour>
      <point x="685" y="495" type="line"/>
      <point x="604" y="495" type="line"/>
      <point x="555" y="287" type="line"/>
      <point x="511" y="81" type="line"/>
      <point x="404" y="495" type="line"/>
      <point x="317" y="495" type="line"/>
      <point x="210" y="83" type="line"/>
      <point x="165" y="288" type="line"/>
      <point x="115" y="495" type="line"/>
      <point x="31" y="495" type="line"/>
      <point x="157" y="0" type="line"/>
      <point x="252" y="0" type="line"/>
      <point x="359" y="406" type="line"/>
      <point x="463" y="0" type="line"/>
      <point x="558" y="0" type="line"/>
    </contour>
  </outline>
</glyph>
<glyph name="x" format="1">
  <advance width="463"/>
  <unicode hex="0078"/>
  <outline>
    <contour>
      <point x="350" y="0" type="line"/>
      <point x="440" y="0" type="line"/>
      <point x="276" y="258" type="line"/>
      <point x="427" y="495" type="line"/>
      <point x="341" y="495" type="line"/>
      <point x="234" y="322" type="line"/>
      <point x="125" y="495" type="line"/>
      <point x="34" y="495" type="line"/>
      <point x="186" y="256" type="line"/>
      <point x="22" y="0" type="line"/>
      <point x="109" y="0" type="line"/>
      <point x="227" y="193" type="line"/>
    </contour>
  </outline>
</glyph>
<glyph name="y" format="1">
  <advance width="472"/>
  <unicode hex="0079"/>
  <outline>
    <contour>
      <point x="257" y="-50" type="curve" smooth="yes"/>
      <point x="450" y="495" type="line"/>
      <point x="369" y="495" type="line"/>
      <point x="288" y="254" type="line"/>
      <point x="239" y="100" type="line"/>
      <point x="188" y="254" type="line"/>
      <point x="105" y="495" type="line"/>
      <point x="21" y="495" type="line"/>
      <point x="199" y="-3" type="line"/>
      <point x="189" y="-28" type="line" smooth="yes"/>
      <point x="152" y="-124"/>
      <point x="117" y="-141"/>
      <point x="49" y="-142" type="curve"/>
      <point x="49" y="-223" type="line"/>
      <point x="159" y="-223"/>
      <point x="214" y="-170"/>
    </contour>
  </outline>
</glyph>
<glyph name="z" format="1">
  <advance width="412"/>
  <unicode hex="007A"/>
  <outline>
    <contour>
      <point x="379" y="71" type="line"/>
      <point x="131" y="71" type="line"/>
      <point x="369" y="430" type="line"/>
      <point x="369" y="495" type="line"/>
      <point x="45" y="495" type="line"/>
      <point x="45" y="423" type="line"/>
      <point x="272" y="423" type="line"/>
      <point x="35" y="64" type="line"/>
      <point x="35" y="0" type="line"/>
      <point x="379" y="0" type="line"/>
    </contour>
  </outline>
</glyph>
<glyph name="braceleft" format="1">
  <advance width="377"/>
  <unicode hex="007B"/>
  <outline>
    <contour>
      <point x="374" y="-72" type="line"/>
      <point x="288" y="-72" type="line" smooth="yes"/>
      <point x="222" y="-72"/>
      <point x="204" y="-27"/>
      <point x="216" y="30" type="curve" smooth="yes"/>
      <point x="236" y="128" type="line" smooth="yes"/>
      <point x="255" y="220"/>
      <point x="230" y="278"/>
      <point x="171" y="298" type="curve"/>
      <point x="230" y="318"/>
      <point x="255" y="376"/>
      <point x="236" y="468" type="curve" smooth="yes"/>
      <point x="216" y="566" type="line" smooth="yes"/>
      <point x="204" y="623"/>
      <point x="222" y="668"/>
      <point x="288" y="668" type="curve" smooth="yes"/>
      <point x="374" y="668" type="line"/>
      <point x="374" y="740" type="line"/>
      <point x="285" y="740" type="line" smooth="yes"/>
      <point x="157" y="740"/>
      <point x="111" y="664"/>
      <point x="135" y="547" type="curve" smooth="yes"/>
      <point x="155" y="449" type="line" smooth="yes"/>
      <point x="169" y="381"/>
      <point x="160" y="334"/>
      <point x="85" y="334" type="curve" smooth="yes"/>
      <point x="20" y="334" type="line"/>
      <point x="20" y="262" type="line"/>
      <point x="85" y="262" type="line" smooth="yes"/>
      <point x="160" y="262"/>
      <point x="169" y="215"/>
      <point x="155" y="147" type="curve" smooth="yes"/>
      <point x="135" y="49" type="line" smooth="yes"/>
      <point x="111" y="-68"/>
      <point x="157" y="-144"/>
      <point x="285" y="-144" type="curve" smooth="yes"/>
      <point x="374" y="-144" type="line"/>
    </contour>
  </outline>
</glyph>
<glyph name="bar" format="2">
	<advance width="295"/>
	<unicode hex="007C"/>
	<outline>
		<contour>
			<point x="106" y="740" type="line"/>
			<point x="106" y="-213" type="line"/>
			<point x="188" y="-213" type="line"/>
			<point x="188" y="740" type="line"/>
		</contour>
	</outline>
</glyph>
<glyph name="braceright" format="1">
  <advance width="377"/>
  <unicode hex="007D"/>
  <outline>
    <contour>
      <point x="241" y="49" type="curve" smooth="yes"/>
      <point x="221" y="147" type="line" smooth="yes"/>
      <point x="207" y="214"/>
      <point x="216" y="261"/>
      <point x="291" y="261" type="curve" smooth="yes"/>
      <point x="356" y="261" type="line"/>
      <point x="356" y="333" type="line"/>
      <point x="291" y="333" type="line" smooth="yes"/>
      <point x="216" y="333"/>
      <point x="207" y="380"/>
      <point x="221" y="449" type="curve" smooth="yes"/>
      <point x="241" y="547" type="line" smooth="yes"/>
      <point x="266" y="664"/>
      <point x="220" y="740"/>
      <point x="91" y="740" type="curve" smooth="yes"/>
      <point x="2" y="740" type="line"/>
      <point x="2" y="668" type="line"/>
      <point x="89" y="668" type="line" smooth="yes"/>
      <point x="155" y="668"/>
      <point x="173" y="623"/>
      <point x="161" y="566" type="curve" smooth="yes"/>
      <point x="141" y="468" type="line" smooth="yes"/>
      <point x="122" y="375"/>
      <point x="147" y="318"/>
      <point x="205" y="298" type="curve"/>
      <point x="147" y="278"/>
      <point x="122" y="220"/>
      <point x="141" y="128" type="curve" smooth="yes"/>
      <point x="161" y="30" type="line" smooth="yes"/>
      <point x="173" y="-27"/>
      <point x="155" y="-72"/>
      <point x="89" y="-72" type="curve" smooth="yes"/>
      <point x="2" y="-72" type="line"/>
      <point x="2" y="-144" type="line"/>
      <point x="91" y="-144" type="line" smooth="yes"/>
      <point x="220" y="-144"/>
      <point x="266" y="-68"/>
    </contour>
  </outline>
</glyph>
<glyph name="asciitilde" format="1">
  <advance width="588"/>
  <unicode hex="007E"/>
  <outline>
    <contour>
      <point x="382" y="208" type="curve" smooth="yes"/>
      <point x="439" y="208"/>
      <point x="488" y="244"/>
      <point x="511" y="364" type="curve"/>
      <point x="445" y="380" type="line"/>
      <point x="428" y="300"/>
      <point x="408" y="280"/>
      <point x="383" y="280" type="curve" smooth="yes"/>
      <point x="327" y="280"/>
      <point x="301" y="392"/>
      <point x="204" y="392" type="curve" smooth="yes"/>
      <point x="147" y="392"/>
      <point x="98" y="356"/>
      <point x="77" y="237" type="curve"/>
      <point x="143" y="221" type="line"/>
      <point x="158" y="301"/>
      <point x="179" y="320"/>
      <point x="203" y="320" type="curve" smooth="yes"/>
      <point x="259" y="320"/>
      <point x="284" y="208"/>
    </contour>
  </outline>
</glyph>
<glyph name="exclamdown" format="2">
	<advance width="280"/>
	<unicode hex="00A1"/>
	<outline>
		<contour>
			<point x="94" y="495" type="line"/>
			<point x="94" y="403" type="line"/>
			<point x="186" y="403" type="line"/>
			<point x="186" y="495" type="line"/>
		</contour>
		<contour>
			<point x="107" y="312" type="line"/>
			<point x="98" y="65" type="line"/>
			<point x="98" y="-185" type="line"/>
			<point x="180" y="-185" type="line"/>
			<point x="180" y="65" type="line"/>
			<point x="173" y="312" type="line"/>
		</contour>
	</outline>
</glyph>
<glyph name="cent" format="1">
  <advance width="449"/>
  <unicode hex="00A2"/>
  <outline>
    <contour>
      <point x="417" y="27" type="curve"/>
      <point x="392" y="96" type="line"/>
      <point x="345" y="75"/>
      <point x="302" y="65"/>
      <point x="263" y="65" type="curve" smooth="yes"/>
      <point x="181" y="65"/>
      <point x="146" y="117"/>
      <point x="146" y="218" type="curve" smooth="yes"/>
      <point x="146" y="277" type="line" smooth="yes"/>
      <point x="146" y="377"/>
      <point x="181" y="429"/>
      <point x="263" y="429" type="curve" smooth="yes"/>
      <point x="300" y="429"/>
      <point x="341" y="418"/>
      <point x="385" y="399" type="curve"/>
      <point x="410" y="469" type="line"/>
      <point x="373" y="485"/>
      <point x="336" y="497"/>
      <point x="300" y="502" type="curve"/>
      <point x="300" y="620" type="line"/>
      <point x="220" y="620" type="line"/>
      <point x="220" y="502" type="line"/>
      <point x="117" y="486"/>
      <point x="62" y="403"/>
      <point x="62" y="277" type="curve" smooth="yes"/>
      <point x="62" y="218" type="line" smooth="yes"/>
      <point x="62" y="91"/>
      <point x="117" y="9"/>
      <point x="220" y="-7" type="curve"/>
      <point x="220" y="-125" type="line"/>
      <point x="300" y="-125" type="line"/>
      <point x="300" y="-7" type="line"/>
      <point x="339" y="-2"/>
      <point x="378" y="9"/>
    </contour>
  </outline>
</glyph>
<glyph name="sterling" format="1">
  <advance width="486"/>
  <unicode hex="00A3"/>
  <outline>
    <contour>
      <point x="460" y="0" type="line"/>
      <point x="460" y="81" type="line"/>
      <point x="174" y="81" type="line"/>
      <point x="224" y="138"/>
      <point x="249" y="189"/>
      <point x="249" y="243" type="curve" smooth="yes"/>
      <point x="249" y="255"/>
      <point x="248" y="267"/>
      <point x="245" y="279" type="curve"/>
      <point x="391" y="279" type="line"/>
      <point x="391" y="355" type="line"/>
      <point x="218" y="355" type="line"/>
      <point x="195" y="406"/>
      <point x="166" y="455"/>
      <point x="166" y="513" type="curve" smooth="yes"/>
      <point x="166" y="581"/>
      <point x="205" y="609"/>
      <point x="273" y="609" type="curve" smooth="yes"/>
      <point x="315" y="609"/>
      <point x="361" y="599"/>
      <point x="422" y="572" type="curve"/>
      <point x="450" y="648" type="line"/>
      <point x="386" y="677"/>
      <point x="326" y="690"/>
      <point x="271" y="690" type="curve" smooth="yes"/>
      <point x="132" y="690"/>
      <point x="76" y="615"/>
      <point x="76" y="520" type="curve" smooth="yes"/>
      <point x="76" y="457"/>
      <point x="102" y="404"/>
      <point x="126" y="355" type="curve"/>
      <point x="61" y="355" type="line"/>
      <point x="61" y="279" type="line"/>
      <point x="157" y="279" type="line"/>
      <point x="161" y="265"/>
      <point x="163" y="250"/>
      <point x="163" y="235" type="curve" smooth="yes"/>
      <point x="163" y="191"/>
      <point x="144" y="147"/>
      <point x="69" y="69" type="curve"/>
      <point x="69" y="0" type="line"/>
    </contour>
  </outline>
</glyph>
<glyph name="currency" format="1">
  <advance width="576"/>
  <unicode hex="00A4"/>
  <outline>
    <contour>
      <point x="547" y="79" type="line"/>
      <point x="446" y="184" type="line"/>
      <point x="467" y="216"/>
      <point x="480" y="256"/>
      <point x="480" y="300" type="curve" smooth="yes"/>
      <point x="480" y="344"/>
      <point x="468" y="384"/>
      <point x="446" y="416" type="curve"/>
      <point x="547" y="520" type="line"/>
      <point x="501" y="567" type="line"/>
      <point x="400" y="463" type="line"/>
      <point x="369" y="485"/>
      <point x="330" y="497"/>
      <point x="288" y="497" type="curve" smooth="yes"/>
      <point x="245" y="497"/>
      <point x="207" y="485"/>
      <point x="176" y="463" type="curve"/>
      <point x="74" y="567" type="line"/>
      <point x="28" y="520" type="line"/>
      <point x="129" y="415" type="line"/>
      <point x="108" y="383"/>
      <point x="96" y="344"/>
      <point x="96" y="300" type="curve" smooth="yes"/>
      <point x="96" y="256"/>
      <point x="108" y="216"/>
      <point x="130" y="184" type="curve"/>
      <point x="28" y="79" type="line"/>
      <point x="74" y="32" type="line"/>
      <point x="176" y="137" type="line"/>
      <point x="207" y="115"/>
      <point x="245" y="103"/>
      <point x="288" y="103" type="curve" smooth="yes"/>
      <point x="330" y="103"/>
      <point x="368" y="115"/>
      <point x="399" y="137" type="curve"/>
      <point x="501" y="32" type="line"/>
    </contour>
    <contour>
      <point x="288" y="170" type="curve" smooth="yes"/>
      <point x="218" y="170"/>
      <point x="168" y="221"/>
      <point x="168" y="300" type="curve" smooth="yes"/>
      <point x="168" y="378"/>
      <point x="218" y="429"/>
      <point x="288" y="429" type="curve" smooth="yes"/>
      <point x="357" y="429"/>
      <point x="407" y="378"/>
      <point x="407" y="300" type="curve" smooth="yes"/>
      <point x="407" y="221"/>
      <point x="357" y="170"/>
    </contour>
  </outline>
</glyph>
<glyph name="yen" format="1">
  <advance width="554"/>
  <unicode hex="00A5"/>
  <outline>
    <contour>
      <point x="503" y="164" type="line"/>
      <point x="503" y="232" type="line"/>
      <point x="320" y="232" type="line"/>
      <point x="320" y="272" type="line"/>
      <point x="351" y="332" type="line"/>
      <point x="503" y="332" type="line"/>
      <point x="503" y="400" type="line"/>
      <point x="385" y="400" type="line"/>
      <point x="528" y="680" type="line"/>
      <point x="438" y="680" type="line"/>
      <point x="281" y="358" type="line"/>
      <point x="118" y="680" type="line"/>
      <point x="24" y="680" type="line"/>
      <point x="167" y="400" type="line"/>
      <point x="52" y="400" type="line"/>
      <point x="52" y="332" type="line"/>
      <point x="202" y="332" type="line"/>
      <point x="233" y="272" type="line"/>
      <point x="233" y="232" type="line"/>
      <point x="52" y="232" type="line"/>
      <point x="52" y="164" type="line"/>
      <point x="233" y="164" type="line"/>
      <point x="233" y="0" type="line"/>
      <point x="320" y="0" type="line"/>
      <point x="320" y="164" type="line"/>
    </contour>
  </outline>
</glyph>
<glyph name="brokenbar" format="2">
	<advance width="282"/>
	<unicode hex="00A6"/>
	<outline>
		<contour>
			<point x="100" y="740" type="line"/>
			<point x="100" y="357" type="line"/>
			<point x="182" y="357" type="line"/>
			<point x="182" y="740" type="line"/>
		</contour>
		<contour>
			<point x="100" y="170" type="line"/>
			<point x="100" y="-213" type="line"/>
			<point x="182" y="-213" type="line"/>
			<point x="182" y="170" type="line"/>
		</contour>
	</outline>
</glyph>
<glyph name="section" format="1">
  <advance width="509"/>
  <unicode hex="00A7"/>
  <outline>
    <contour>
      <point x="448" y="-50" type="curve" smooth="yes"/>
      <point x="448" y="10"/>
      <point x="424" y="57"/>
      <point x="376" y="90" type="curve"/>
      <point x="434" y="123"/>
      <point x="467" y="177"/>
      <point x="467" y="236" type="curve" smooth="yes"/>
      <point x="467" y="313"/>
      <point x="419" y="369"/>
      <point x="325" y="399" type="curve" smooth="yes"/>
      <point x="246" y="424" type="line" smooth="yes"/>
      <point x="181" y="445"/>
      <point x="161" y="478"/>
      <point x="161" y="522" type="curve" smooth="yes"/>
      <point x="161" y="583"/>
      <point x="200" y="610"/>
      <point x="267" y="610" type="curve" smooth="yes"/>
      <point x="311" y="610"/>
      <point x="356" y="601"/>
      <point x="418" y="575" type="curve"/>
      <point x="445" y="650" type="line"/>
      <point x="379" y="678"/>
      <point x="320" y="690"/>
      <point x="265" y="690" type="curve" smooth="yes"/>
      <point x="130" y="690"/>
      <point x="72" y="612"/>
      <point x="72" y="518" type="curve" smooth="yes"/>
      <point x="72" y="461"/>
      <point x="92" y="412"/>
      <point x="136" y="379" type="curve"/>
      <point x="81" y="347"/>
      <point x="46" y="292"/>
      <point x="46" y="232" type="curve" smooth="yes"/>
      <point x="46" y="158"/>
      <point x="88" y="101"/>
      <point x="184" y="69" type="curve" smooth="yes"/>
      <point x="262" y="44" type="line" smooth="yes"/>
      <point x="331" y="21"/>
      <point x="359" y="-12"/>
      <point x="359" y="-58" type="curve" smooth="yes"/>
      <point x="359" y="-116"/>
      <point x="315" y="-143"/>
      <point x="239" y="-143" type="curve" smooth="yes"/>
      <point x="185" y="-143"/>
      <point x="132" y="-130"/>
      <point x="65" y="-100" type="curve"/>
      <point x="38" y="-176" type="line"/>
      <point x="107" y="-208"/>
      <point x="177" y="-223"/>
      <point x="239" y="-223" type="curve" smooth="yes"/>
      <point x="383" y="-223"/>
      <point x="448" y="-149"/>
    </contour>
    <contour>
      <point x="230" y="147" type="line" smooth="yes"/>
      <point x="158" y="170"/>
      <point x="135" y="198"/>
      <point x="135" y="244" type="curve" smooth="yes"/>
      <point x="135" y="288"/>
      <point x="155" y="321"/>
      <point x="198" y="348" type="curve"/>
      <point x="278" y="322" type="line" smooth="yes"/>
      <point x="349" y="301"/>
      <point x="378" y="273"/>
      <point x="378" y="222" type="curve" smooth="yes"/>
      <point x="378" y="177"/>
      <point x="356" y="147"/>
      <point x="312" y="121" type="curve"/>
    </contour>
  </outline>
</glyph>
<glyph name="dieresis" format="1">
  <advance width="500"/>
  <unicode hex="00A8"/>
  <outline>
    <contour>
      <point x="197" y="619" type="line"/>
      <point x="197" y="705" type="line"/>
      <point x="111" y="705" type="line"/>
      <point x="111" y="619" type="line"/>
    </contour>
    <contour>
      <point x="388" y="619" type="line"/>
      <point x="388" y="705" type="line"/>
      <point x="302" y="705" type="line"/>
      <point x="302" y="619" type="line"/>
    </contour>
  </outline>
</glyph>
<glyph name="copyright" format="1">
  <advance width="840"/>
  <unicode hex="00A9"/>
  <outline>
    <contour>
      <point x="420" y="-37" type="curve" smooth="yes"/>
      <point x="634" y="-37"/>
      <point x="792" y="122"/>
      <point x="792" y="340" type="curve" smooth="yes"/>
      <point x="792" y="558"/>
      <point x="634" y="717"/>
      <point x="420" y="717" type="curve" smooth="yes"/>
      <point x="205" y="717"/>
      <point x="48" y="558"/>
      <point x="48" y="340" type="curve" smooth="yes"/>
      <point x="48" y="122"/>
      <point x="205" y="-37"/>
    </contour>
    <contour>
      <point x="420" y="21" type="curve" smooth="yes"/>
      <point x="241" y="21"/>
      <point x="112" y="153"/>
      <point x="112" y="340" type="curve" smooth="yes"/>
      <point x="112" y="525"/>
      <point x="241" y="659"/>
      <point x="420" y="659" type="curve" smooth="yes"/>
      <point x="598" y="659"/>
      <point x="728" y="525"/>
      <point x="728" y="340" type="curve" smooth="yes"/>
      <point x="728" y="153"/>
      <point x="598" y="21"/>
    </contour>
    <contour>
      <point x="319" y="361" type="line" smooth="yes"/>
      <point x="319" y="445"/>
      <point x="350" y="490"/>
      <point x="422" y="490" type="curve" smooth="yes"/>
      <point x="456" y="490"/>
      <point x="491" y="480"/>
      <point x="527" y="464" type="curve"/>
      <point x="550" y="525" type="line"/>
      <point x="508" y="547"/>
      <point x="460" y="557"/>
      <point x="417" y="557" type="curve" smooth="yes"/>
      <point x="303" y="557"/>
      <point x="244" y="484"/>
      <point x="244" y="361" type="curve" smooth="yes"/>
      <point x="244" y="320" type="line" smooth="yes"/>
      <point x="244" y="196"/>
      <point x="303" y="123"/>
      <point x="417" y="123" type="curve" smooth="yes"/>
      <point x="464" y="123"/>
      <point x="514" y="135"/>
      <point x="559" y="158" type="curve"/>
      <point x="536" y="219" type="line"/>
      <point x="497" y="200"/>
      <point x="459" y="190"/>
      <point x="422" y="190" type="curve" smooth="yes"/>
      <point x="350" y="190"/>
      <point x="319" y="234"/>
      <point x="319" y="320" type="curve" smooth="yes"/>
    </contour>
  </outline>
</glyph>
<glyph name="ordfeminine" format="1">
  <advance width="335"/>
  <unicode hex="00AA"/>
  <outline>
    <contour>
      <point x="306" y="338" type="curve" smooth="yes"/>
      <point x="313" y="338" type="line"/>
      <point x="313" y="398" type="line"/>
      <point x="304" y="398" type="line" smooth="yes"/>
      <point x="284" y="398"/>
      <point x="279" y="411"/>
      <point x="279" y="431" type="curve" smooth="yes"/>
      <point x="279" y="575" type="line" smooth="yes"/>
      <point x="279" y="630"/>
      <point x="256" y="685"/>
      <point x="154" y="685" type="curve" smooth="yes"/>
      <point x="114" y="685"/>
      <point x="77" y="674"/>
      <point x="39" y="655" type="curve"/>
      <point x="58" y="600" type="line"/>
      <point x="91" y="616"/>
      <point x="121" y="625"/>
      <point x="153" y="625" type="curve" smooth="yes"/>
      <point x="196" y="625"/>
      <point x="216" y="611"/>
      <point x="216" y="568" type="curve" smooth="yes"/>
      <point x="216" y="522" type="line"/>
      <point x="189" y="526"/>
      <point x="164" y="529"/>
      <point x="143" y="529" type="curve" smooth="yes"/>
      <point x="56" y="529"/>
      <point x="29" y="486"/>
      <point x="29" y="432" type="curve" smooth="yes"/>
      <point x="29" y="379"/>
      <point x="58" y="335"/>
      <point x="122" y="335" type="curve" smooth="yes"/>
      <point x="151" y="335"/>
      <point x="182" y="345"/>
      <point x="225" y="381" type="curve"/>
      <point x="237" y="353"/>
      <point x="267" y="338"/>
    </contour>
    <contour>
      <point x="93" y="434" type="curve" smooth="yes"/>
      <point x="93" y="463"/>
      <point x="108" y="478"/>
      <point x="147" y="478" type="curve" smooth="yes"/>
      <point x="163" y="478"/>
      <point x="189" y="476"/>
      <point x="216" y="472" type="curve"/>
      <point x="216" y="430" type="line"/>
      <point x="178" y="399"/>
      <point x="153" y="390"/>
      <point x="131" y="390" type="curve" smooth="yes"/>
      <point x="106" y="390"/>
      <point x="93" y="407"/>
    </contour>
  </outline>
</glyph>
<glyph name="guillemotleft" format="1">
  <advance width="667"/>
  <unicode hex="00AB"/>
  <outline>
    <contour>
      <point x="322" y="105" type="line"/>
      <point x="120" y="248" type="line"/>
      <point x="322" y="390" type="line"/>
      <point x="322" y="478" type="line"/>
      <point x="38" y="274" type="line"/>
      <point x="38" y="221" type="line"/>
      <point x="322" y="14" type="line"/>
    </contour>
    <contour>
      <point x="612" y="105" type="line"/>
      <point x="410" y="248" type="line"/>
      <point x="612" y="390" type="line"/>
      <point x="612" y="478" type="line"/>
      <point x="328" y="274" type="line"/>
      <point x="328" y="221" type="line"/>
      <point x="612" y="14" type="line"/>
    </contour>
  </outline>
</glyph>
<glyph name="logicalnot" format="1">
  <advance width="588"/>
  <unicode hex="00AC"/>
  <outline>
    <contour>
      <point x="87" y="376" type="line"/>
      <point x="426" y="376" type="line"/>
      <point x="426" y="205" type="line"/>
      <point x="501" y="205" type="line"/>
      <point x="501" y="448" type="line"/>
      <point x="87" y="448" type="line"/>
    </contour>
  </outline>
</glyph>
<glyph name="registered" format="1">
  <advance width="543"/>
  <unicode hex="00AE"/>
  <outline>
    <contour>
      <point x="271" y="241" type="curve" smooth="yes"/>
      <point x="405" y="241"/>
      <point x="505" y="343"/>
      <point x="505" y="479" type="curve" smooth="yes"/>
      <point x="505" y="616"/>
      <point x="405" y="717"/>
      <point x="271" y="717" type="curve" smooth="yes"/>
      <point x="137" y="717"/>
      <point x="37" y="616"/>
      <point x="37" y="479" type="curve" smooth="yes"/>
      <point x="37" y="343"/>
      <point x="137" y="241"/>
    </contour>
    <contour>
      <point x="271" y="290" type="curve" smooth="yes"/>
      <point x="167" y="290"/>
      <point x="90" y="370"/>
      <point x="90" y="479" type="curve" smooth="yes"/>
      <point x="90" y="588"/>
      <point x="167" y="668"/>
      <point x="271" y="668" type="curve" smooth="yes"/>
      <point x="376" y="668"/>
      <point x="452" y="588"/>
      <point x="452" y="479" type="curve" smooth="yes"/>
      <point x="452" y="370"/>
      <point x="376" y="290"/>
    </contour>
    <contour>
      <point x="190" y="353" type="line"/>
      <point x="241" y="353" type="line"/>
      <point x="241" y="439" type="line"/>
      <point x="274" y="439" type="line"/>
      <point x="290" y="411"/>
      <point x="303" y="383"/>
      <point x="316" y="353" type="curve"/>
      <point x="373" y="353" type="line"/>
      <point x="359" y="387"/>
      <point x="342" y="419"/>
      <point x="323" y="450" type="curve"/>
      <point x="346" y="463"/>
      <point x="358" y="486"/>
      <point x="358" y="517" type="curve" smooth="yes"/>
      <point x="358" y="531" type="line" smooth="yes"/>
      <point x="358" y="577"/>
      <point x="329" y="608"/>
      <point x="277" y="608" type="curve" smooth="yes"/>
      <point x="190" y="608" type="line"/>
    </contour>
    <contour>
      <point x="277" y="559" type="line" smooth="yes"/>
      <point x="294" y="559"/>
      <point x="305" y="548"/>
      <point x="305" y="531" type="curve" smooth="yes"/>
      <point x="305" y="517" type="line" smooth="yes"/>
      <point x="305" y="499"/>
      <point x="294" y="488"/>
      <point x="277" y="488" type="curve" smooth="yes"/>
      <point x="241" y="488" type="line"/>
      <point x="241" y="559" type="line"/>
    </contour>
  </outline>
</glyph>
<glyph name="macron" format="1">
  <advance width="500"/>
  <unicode hex="00AF"/>
  <outline>
    <contour>
      <point x="393" y="672" type="line"/>
      <point x="107" y="672" type="line"/>
      <point x="107" y="609" type="line"/>
      <point x="393" y="609" type="line"/>
    </contour>
  </outline>
</glyph>
<glyph name="degree" format="1">
  <advance width="363"/>
  <unicode hex="00B0"/>
  <outline>
    <contour>
      <point x="181" y="366" type="curve" smooth="yes"/>
      <point x="273" y="366"/>
      <point x="338" y="433"/>
      <point x="338" y="528" type="curve" smooth="yes"/>
      <point x="338" y="624"/>
      <point x="273" y="690"/>
      <point x="181" y="690" type="curve" smooth="yes"/>
      <point x="88" y="690"/>
      <point x="24" y="624"/>
      <point x="24" y="528" type="curve" smooth="yes"/>
      <point x="24" y="433"/>
      <point x="88" y="366"/>
    </contour>
    <contour>
      <point x="181" y="428" type="curve" smooth="yes"/>
      <point x="126" y="428"/>
      <point x="89" y="467"/>
      <point x="89" y="528" type="curve" smooth="yes"/>
      <point x="89" y="589"/>
      <point x="126" y="628"/>
      <point x="181" y="628" type="curve" smooth="yes"/>
      <point x="236" y="628"/>
      <point x="273" y="589"/>
      <point x="273" y="528" type="curve" smooth="yes"/>
      <point x="273" y="467"/>
      <point x="236" y="428"/>
    </contour>
  </outline>
</glyph>
<glyph name="plusminus" format="1">
  <advance width="588"/>
  <unicode hex="00B1"/>
  <outline>
    <contour>
      <point x="501" y="302" type="line"/>
      <point x="501" y="374" type="line"/>
      <point x="331" y="374" type="line"/>
      <point x="331" y="545" type="line"/>
      <point x="256" y="545" type="line"/>
      <point x="256" y="374" type="line"/>
      <point x="87" y="374" type="line"/>
      <point x="87" y="302" type="line"/>
      <point x="256" y="302" type="line"/>
      <point x="256" y="131" type="line"/>
      <point x="331" y="131" type="line"/>
      <point x="331" y="302" type="line"/>
    </contour>
    <contour>
      <point x="87" y="0" type="line"/>
      <point x="501" y="0" type="line"/>
      <point x="501" y="71" type="line"/>
      <point x="87" y="71" type="line"/>
    </contour>
  </outline>
</glyph>
<glyph name="mu" format="1">
  <advance width="566"/>
  <unicode hex="00B5"/>
  <outline>
    <contour>
      <point x="170" y="-213" type="line"/>
      <point x="170" y="-125" type="line"/>
      <point x="154" y="16" type="line"/>
      <point x="173" y="-1"/>
      <point x="198" y="-10"/>
      <point x="230" y="-10" type="curve" smooth="yes"/>
      <point x="279" y="-10"/>
      <point x="331" y="11"/>
      <point x="403" y="73" type="curve"/>
      <point x="414" y="27"/>
      <point x="451" y="-5"/>
      <point x="518" y="-5" type="curve" smooth="yes"/>
      <point x="533" y="-5" type="line"/>
      <point x="533" y="70" type="line"/>
      <point x="521" y="70" type="line" smooth="yes"/>
      <point x="485" y="70"/>
      <point x="476" y="93"/>
      <point x="476" y="124" type="curve" smooth="yes"/>
      <point x="476" y="495" type="line"/>
      <point x="394" y="495" type="line"/>
      <point x="394" y="137" type="line"/>
      <point x="325" y="81"/>
      <point x="281" y="67"/>
      <point x="244" y="67" type="curve" smooth="yes"/>
      <point x="194" y="67"/>
      <point x="170" y="98"/>
      <point x="170" y="168" type="curve" smooth="yes"/>
      <point x="170" y="495" type="line"/>
      <point x="88" y="495" type="line"/>
      <point x="88" y="-213" type="line"/>
    </contour>
  </outline>
</glyph>
<glyph name="paragraph" format="1">
  <advance width="562"/>
  <unicode hex="00B6"/>
  <outline>
    <contour>
      <point x="43" y="491" type="curve" smooth="yes"/>
      <point x="43" y="438" type="line" smooth="yes"/>
      <point x="43" y="323"/>
      <point x="113" y="248"/>
      <point x="244" y="248" type="curve"/>
      <point x="301" y="248" type="line"/>
      <point x="301" y="609" type="line"/>
      <point x="368" y="609" type="line"/>
      <point x="368" y="-143" type="line"/>
      <point x="455" y="-143" type="line"/>
      <point x="455" y="609" type="line"/>
      <point x="542" y="609" type="line"/>
      <point x="542" y="680" type="line"/>
      <point x="244" y="680" type="line" smooth="yes"/>
      <point x="113" y="680"/>
      <point x="43" y="605"/>
    </contour>
  </outline>
</glyph>
<glyph name="periodcentered" format="2">
	<advance width="500"/>
	<unicode hex="00B7"/>
	<outline>
		<contour>
			<point x="296" y="338" type="line"/>
			<point x="296" y="430" type="line"/>
			<point x="204" y="430" type="line"/>
			<point x="204" y="338" type="line"/>
		</contour>
	</outline>
</glyph>
<glyph name="cedilla" format="1">
  <advance width="500"/>
  <unicode hex="00B8"/>
  <outline>
    <contour>
      <point x="349" y="-132" type="curve" smooth="yes"/>
      <point x="349" y="-81"/>
      <point x="314" y="-50"/>
      <point x="250" y="-50" type="curve"/>
      <point x="259" y="0" type="line"/>
      <point x="199" y="0" type="line"/>
      <point x="187" y="-67" type="line"/>
      <point x="211" y="-105" type="line"/>
      <point x="219" y="-104"/>
      <point x="226" y="-103"/>
      <point x="234" y="-103" type="curve" smooth="yes"/>
      <point x="271" y="-103"/>
      <point x="282" y="-117"/>
      <point x="282" y="-133" type="curve" smooth="yes"/>
      <point x="282" y="-150"/>
      <point x="271" y="-164"/>
      <point x="235" y="-164" type="curve" smooth="yes"/>
      <point x="216" y="-164"/>
      <point x="191" y="-160"/>
      <point x="168" y="-152" type="curve"/>
      <point x="157" y="-208" type="line"/>
      <point x="182" y="-217"/>
      <point x="208" y="-223"/>
      <point x="236" y="-223" type="curve" smooth="yes"/>
      <point x="304" y="-223"/>
      <point x="349" y="-190"/>
    </contour>
  </outline>
</glyph>
<glyph name="ordmasculine" format="1">
  <advance width="348"/>
  <unicode hex="00BA"/>
  <outline>
    <contour>
      <point x="321" y="531" type="line" smooth="yes"/>
      <point x="321" y="624"/>
      <point x="268" y="685"/>
      <point x="174" y="685" type="curve" smooth="yes"/>
      <point x="79" y="685"/>
      <point x="27" y="624"/>
      <point x="27" y="531" type="curve" smooth="yes"/>
      <point x="27" y="489" type="line" smooth="yes"/>
      <point x="27" y="391"/>
      <point x="80" y="335"/>
      <point x="174" y="335" type="curve" smooth="yes"/>
      <point x="267" y="335"/>
      <point x="321" y="391"/>
      <point x="321" y="489" type="curve" smooth="yes"/>
    </contour>
    <contour>
      <point x="256" y="531" type="curve" smooth="yes"/>
      <point x="256" y="489" type="line" smooth="yes"/>
      <point x="256" y="427"/>
      <point x="226" y="395"/>
      <point x="174" y="395" type="curve" smooth="yes"/>
      <point x="122" y="395"/>
      <point x="92" y="427"/>
      <point x="92" y="489" type="curve" smooth="yes"/>
      <point x="92" y="531" type="line" smooth="yes"/>
      <point x="92" y="590"/>
      <point x="122" y="625"/>
      <point x="174" y="625" type="curve" smooth="yes"/>
      <point x="226" y="625"/>
      <point x="256" y="590"/>
    </contour>
  </outline>
</glyph>
<glyph name="guillemotright" format="1">
  <advance width="667"/>
  <unicode hex="00BB"/>
  <outline>
    <contour>
      <point x="628" y="218" type="line"/>
      <point x="628" y="271" type="line"/>
      <point x="344" y="478" type="line"/>
      <point x="344" y="386" type="line"/>
      <point x="546" y="243" type="line"/>
      <point x="344" y="101" type="line"/>
      <point x="344" y="14" type="line"/>
    </contour>
    <contour>
      <point x="338" y="218" type="line"/>
      <point x="338" y="271" type="line"/>
      <point x="54" y="478" type="line"/>
      <point x="54" y="386" type="line"/>
      <point x="256" y="243" type="line"/>
      <point x="54" y="101" type="line"/>
      <point x="54" y="14" type="line"/>
    </contour>
  </outline>
</glyph>
<glyph name="questiondown" format="1">
  <advance width="434"/>
  <unicode hex="00BF"/>
  <outline>
    <contour>
      <point x="200" y="495" type="line"/>
      <point x="200" y="403" type="line"/>
      <point x="292" y="403" type="line"/>
      <point x="292" y="495" type="line"/>
    </contour>
    <contour>
      <point x="250" y="-119" type="curve" smooth="yes"/>
      <point x="172" y="-119"/>
      <point x="132" y="-81"/>
      <point x="132" y="-22" type="curve" smooth="yes"/>
      <point x="132" y="-4" type="line" smooth="yes"/>
      <point x="132" y="44"/>
      <point x="146" y="74"/>
      <point x="178" y="104" type="curve" smooth="yes"/>
      <point x="212" y="135" type="line" smooth="yes"/>
      <point x="270" y="188"/>
      <point x="289" y="222"/>
      <point x="289" y="290" type="curve" smooth="yes"/>
      <point x="289" y="312" type="line"/>
      <point x="205" y="312" type="line"/>
      <point x="205" y="293" type="line" smooth="yes"/>
      <point x="205" y="251"/>
      <point x="197" y="228"/>
      <point x="154" y="188" type="curve" smooth="yes"/>
      <point x="120" y="157" type="line" smooth="yes"/>
      <point x="71" y="113"/>
      <point x="47" y="65"/>
      <point x="47" y="-8" type="curve" smooth="yes"/>
      <point x="47" y="-26" type="line" smooth="yes"/>
      <point x="47" y="-122"/>
      <point x="108" y="-195"/>
      <point x="247" y="-195" type="curve" smooth="yes"/>
      <point x="304" y="-195"/>
      <point x="370" y="-183"/>
      <point x="437" y="-152" type="curve"/>
      <point x="409" y="-80" type="line"/>
      <point x="347" y="-108"/>
      <point x="296" y="-119"/>
    </contour>
  </outline>
</glyph>
<glyph name="Aring" format="1">
  <advance width="577"/>
  <unicode hex="00C5"/>
  <outline>
    <contour>
      <point x="157" y="158" type="line"/>
      <point x="415" y="158" type="line"/>
      <point x="466" y="0" type="line"/>
      <point x="556" y="0" type="line"/>
      <point x="344" y="636" type="line"/>
      <point x="381" y="653"/>
      <point x="403" y="688"/>
      <point x="403" y="734" type="curve" smooth="yes"/>
      <point x="403" y="745" type="line" smooth="yes"/>
      <point x="403" y="809"/>
      <point x="358" y="853"/>
      <point x="289" y="853" type="curve" smooth="yes"/>
      <point x="219" y="853"/>
      <point x="175" y="809"/>
      <point x="175" y="745" type="curve" smooth="yes"/>
      <point x="175" y="734" type="line" smooth="yes"/>
      <point x="175" y="689"/>
      <point x="196" y="654"/>
      <point x="233" y="637" type="curve"/>
      <point x="21" y="0" type="line"/>
      <point x="106" y="0" type="line"/>
    </contour>
    <contour>
      <point x="343" y="745" type="curve" smooth="yes"/>
      <point x="343" y="734" type="line" smooth="yes"/>
      <point x="343" y="701"/>
      <point x="321" y="680"/>
      <point x="289" y="680" type="curve" smooth="yes"/>
      <point x="256" y="680"/>
      <point x="234" y="701"/>
      <point x="234" y="734" type="curve" smooth="yes"/>
      <point x="234" y="745" type="line" smooth="yes"/>
      <point x="234" y="777"/>
      <point x="256" y="798"/>
      <point x="289" y="798" type="curve" smooth="yes"/>
      <point x="321" y="798"/>
      <point x="343" y="777"/>
    </contour>
    <contour>
      <point x="220" y="354" type="line"/>
      <point x="286" y="564" type="line"/>
      <point x="351" y="354" type="line"/>
      <point x="389" y="237" type="line"/>
      <point x="182" y="237" type="line"/>
    </contour>
  </outline>
</glyph>
<glyph name="AE" format="1">
  <advance width="834"/>
  <unicode hex="00C6"/>
  <outline>
    <contour>
      <point x="3" y="0" type="line"/>
      <point x="97" y="0" type="line"/>
      <point x="181" y="158" type="line"/>
      <point x="409" y="158" type="line"/>
      <point x="409" y="0" type="line"/>
      <point x="789" y="0" type="line"/>
      <point x="789" y="81" type="line"/>
      <point x="496" y="81" type="line"/>
      <point x="496" y="303" type="line"/>
      <point x="749" y="303" type="line"/>
      <point x="749" y="385" type="line"/>
      <point x="496" y="385" type="line"/>
      <point x="496" y="598" type="line"/>
      <point x="779" y="598" type="line"/>
      <point x="779" y="680" type="line"/>
      <point x="368" y="680" type="line"/>
    </contour>
    <contour>
      <point x="222" y="237" type="line"/>
      <point x="409" y="590" type="line"/>
      <point x="409" y="237" type="line"/>
    </contour>
  </outline>
</glyph>
<glyph name="Ccedilla" format="1">
  <advance width="529"/>
  <unicode hex="00C7"/>
  <outline>
    <contour>
      <point x="412" y="-132" type="curve" smooth="yes"/>
      <point x="412" y="-81"/>
      <point x="377" y="-50"/>
      <point x="313" y="-50" type="curve"/>
      <point x="320" y="-10" type="line"/>
      <point x="374" y="-9"/>
      <point x="430" y="3"/>
      <point x="493" y="32" type="curve"/>
      <point x="464" y="106" type="line"/>
      <point x="403" y="79"/>
      <point x="363" y="70"/>
      <point x="318" y="70" type="curve" smooth="yes"/>
      <point x="214" y="70"/>
      <point x="165" y="139"/>
      <point x="165" y="265" type="curve" smooth="yes"/>
      <point x="165" y="415" type="line" smooth="yes"/>
      <point x="165" y="540"/>
      <point x="214" y="609"/>
      <point x="318" y="609" type="curve" smooth="yes"/>
      <point x="362" y="609"/>
      <point x="407" y="598"/>
      <point x="463" y="573" type="curve"/>
      <point x="491" y="648" type="line"/>
      <point x="430" y="677"/>
      <point x="370" y="690"/>
      <point x="315" y="690" type="curve" smooth="yes"/>
      <point x="158" y="690"/>
      <point x="75" y="584"/>
      <point x="75" y="415" type="curve" smooth="yes"/>
      <point x="75" y="265" type="line" smooth="yes"/>
      <point x="75" y="116"/>
      <point x="139" y="16"/>
      <point x="261" y="-5" type="curve"/>
      <point x="250" y="-67" type="line"/>
      <point x="274" y="-105" type="line"/>
      <point x="282" y="-104"/>
      <point x="289" y="-103"/>
      <point x="297" y="-103" type="curve" smooth="yes"/>
      <point x="334" y="-103"/>
      <point x="345" y="-117"/>
      <point x="345" y="-133" type="curve" smooth="yes"/>
      <point x="345" y="-150"/>
      <point x="334" y="-164"/>
      <point x="298" y="-164" type="curve" smooth="yes"/>
      <point x="279" y="-164"/>
      <point x="254" y="-160"/>
      <point x="231" y="-152" type="curve"/>
      <point x="220" y="-208" type="line"/>
      <point x="245" y="-217"/>
      <point x="271" y="-223"/>
      <point x="299" y="-223" type="curve" smooth="yes"/>
      <point x="367" y="-223"/>
      <point x="412" y="-190"/>
    </contour>
  </outline>
</glyph>
<glyph name="Eth" format="1">
  <advance width="647"/>
  <unicode hex="00D0"/>
  <outline>
    <contour>
      <point x="29" y="384" type="line"/>
      <point x="29" y="305" type="line"/>
      <point x="116" y="305" type="line"/>
      <point x="116" y="0" type="line"/>
      <point x="327" y="0" type="line" smooth="yes"/>
      <point x="483" y="0"/>
      <point x="569" y="99"/>
      <point x="569" y="266" type="curve" smooth="yes"/>
      <point x="569" y="415" type="line" smooth="yes"/>
      <point x="569" y="580"/>
      <point x="483" y="680"/>
      <point x="327" y="680" type="curve" smooth="yes"/>
      <point x="116" y="680" type="line"/>
      <point x="116" y="384" type="line"/>
    </contour>
    <contour>
      <point x="340" y="305" type="line"/>
      <point x="340" y="384" type="line"/>
      <point x="203" y="384" type="line"/>
      <point x="203" y="598" type="line"/>
      <point x="325" y="598" type="line" smooth="yes"/>
      <point x="429" y="598"/>
      <point x="479" y="536"/>
      <point x="479" y="415" type="curve" smooth="yes"/>
      <point x="479" y="266" type="line" smooth="yes"/>
      <point x="479" y="144"/>
      <point x="429" y="81"/>
      <point x="325" y="81" type="curve" smooth="yes"/>
      <point x="203" y="81" type="line"/>
      <point x="203" y="305" type="line"/>
    </contour>
  </outline>
</glyph>
<glyph name="multiply" format="1">
  <advance width="588"/>
  <unicode hex="00D7"/>
  <outline>
    <contour>
      <point x="493" y="153" type="line"/>
      <point x="344" y="303" type="line"/>
      <point x="493" y="452" type="line"/>
      <point x="442" y="503" type="line"/>
      <point x="294" y="354" type="line"/>
      <point x="145" y="503" type="line"/>
      <point x="94" y="452" type="line"/>
      <point x="243" y="303" type="line"/>
      <point x="94" y="153" type="line"/>
      <point x="145" y="103" type="line"/>
      <point x="294" y="252" type="line"/>
      <point x="442" y="103" type="line"/>
    </contour>
  </outline>
</glyph>
<glyph name="Oslash" format="1">
  <advance width="647"/>
  <unicode hex="00D8"/>
  <outline>
    <contour>
      <point x="323" y="-10" type="curve" smooth="yes"/>
      <point x="482" y="-10"/>
      <point x="569" y="97"/>
      <point x="569" y="266" type="curve" smooth="yes"/>
      <point x="569" y="415" type="line" smooth="yes"/>
      <point x="569" y="495"/>
      <point x="549" y="560"/>
      <point x="512" y="608" type="curve"/>
      <point x="569" y="710" type="line"/>
      <point x="492" y="710" type="line"/>
      <point x="461" y="654" type="line"/>
      <point x="423" y="677"/>
      <point x="377" y="690"/>
      <point x="323" y="690" type="curve" smooth="yes"/>
      <point x="164" y="690"/>
      <point x="77" y="583"/>
      <point x="77" y="415" type="curve" smooth="yes"/>
      <point x="77" y="266" type="line" smooth="yes"/>
      <point x="77" y="186"/>
      <point x="97" y="119"/>
      <point x="134" y="72" type="curve"/>
      <point x="77" y="-30" type="line"/>
      <point x="154" y="-30" type="line"/>
      <point x="185" y="26" type="line"/>
      <point x="222" y="3"/>
      <point x="268" y="-10"/>
    </contour>
    <contour>
      <point x="166" y="266" type="curve" smooth="yes"/>
      <point x="166" y="415" type="line" smooth="yes"/>
      <point x="166" y="540"/>
      <point x="220" y="610"/>
      <point x="323" y="610" type="curve" smooth="yes"/>
      <point x="362" y="610"/>
      <point x="394" y="600"/>
      <point x="419" y="580" type="curve"/>
      <point x="184" y="160" type="line"/>
      <point x="172" y="189"/>
      <point x="166" y="225"/>
    </contour>
    <contour>
      <point x="480" y="415" type="curve" smooth="yes"/>
      <point x="480" y="266" type="line" smooth="yes"/>
      <point x="480" y="141"/>
      <point x="426" y="69"/>
      <point x="323" y="69" type="curve" smooth="yes"/>
      <point x="284" y="69"/>
      <point x="251" y="80"/>
      <point x="227" y="100" type="curve"/>
      <point x="463" y="520" type="line"/>
      <point x="474" y="491"/>
      <point x="480" y="456"/>
    </contour>
  </outline>
</glyph>
<glyph name="Thorn" format="1">
  <advance width="564"/>
  <unicode hex="00DE"/>
  <outline>
    <contour>
      <point x="318" y="128" type="line" smooth="yes"/>
      <point x="449" y="128"/>
      <point x="519" y="203"/>
      <point x="519" y="318" type="curve" smooth="yes"/>
      <point x="519" y="371" type="line" smooth="yes"/>
      <point x="519" y="485"/>
      <point x="449" y="560"/>
      <point x="318" y="560" type="curve" smooth="yes"/>
      <point x="193" y="560" type="line"/>
      <point x="193" y="680" type="line"/>
      <point x="106" y="680" type="line"/>
      <point x="106" y="0" type="line"/>
      <point x="193" y="0" type="line"/>
      <point x="193" y="128" type="line"/>
    </contour>
    <contour>
      <point x="318" y="478" type="line" smooth="yes"/>
      <point x="390" y="478"/>
      <point x="429" y="438"/>
      <point x="429" y="371" type="curve" smooth="yes"/>
      <point x="429" y="318" type="line" smooth="yes"/>
      <point x="429" y="250"/>
      <point x="390" y="209"/>
      <point x="318" y="209" type="curve" smooth="yes"/>
      <point x="193" y="209" type="line"/>
      <point x="193" y="478" type="line"/>
    </contour>
  </outline>
</glyph>
<glyph name="germandbls" format="1">
  <advance width="608"/>
  <unicode hex="00DF"/>
  <outline>
    <contour>
      <point x="578" y="138" type="curve" smooth="yes"/>
      <point x="578" y="193"/>
      <point x="557" y="243"/>
      <point x="494" y="286" type="curve" smooth="yes"/>
      <point x="444" y="320" type="line" smooth="yes"/>
      <point x="407" y="345"/>
      <point x="398" y="367"/>
      <point x="398" y="392" type="curve" smooth="yes"/>
      <point x="398" y="458"/>
      <point x="465" y="507"/>
      <point x="465" y="600" type="curve" smooth="yes"/>
      <point x="465" y="706"/>
      <point x="382" y="750"/>
      <point x="284" y="750" type="curve" smooth="yes"/>
      <point x="150" y="750"/>
      <point x="104" y="665"/>
      <point x="104" y="569" type="curve" smooth="yes"/>
      <point x="104" y="495" type="line"/>
      <point x="18" y="495" type="line"/>
      <point x="18" y="423" type="line"/>
      <point x="104" y="423" type="line"/>
      <point x="104" y="0" type="line"/>
      <point x="186" y="0" type="line"/>
      <point x="186" y="569" type="line" smooth="yes"/>
      <point x="186" y="644"/>
      <point x="219" y="675"/>
      <point x="285" y="675" type="curve" smooth="yes"/>
      <point x="342" y="675"/>
      <point x="384" y="648"/>
      <point x="384" y="596" type="curve" smooth="yes"/>
      <point x="384" y="523"/>
      <point x="317" y="465"/>
      <point x="317" y="381" type="curve" smooth="yes"/>
      <point x="317" y="329"/>
      <point x="341" y="291"/>
      <point x="394" y="254" type="curve" smooth="yes"/>
      <point x="444" y="219" type="line" smooth="yes"/>
      <point x="485" y="190"/>
      <point x="498" y="164"/>
      <point x="498" y="132" type="curve" smooth="yes"/>
      <point x="498" y="88"/>
      <point x="469" y="62"/>
      <point x="414" y="62" type="curve" smooth="yes"/>
      <point x="378" y="62"/>
      <point x="338" y="71"/>
      <point x="290" y="94" type="curve"/>
      <point x="268" y="23" type="line"/>
      <point x="321" y="0"/>
      <point x="372" y="-10"/>
      <point x="415" y="-10" type="curve" smooth="yes"/>
      <point x="528" y="-10"/>
      <point x="578" y="56"/>
    </contour>
  </outline>
</glyph>
<glyph name="ae" format="1">
  <advance width="771"/>
  <unicode hex="00E6"/>
  <outline>
    <contour>
      <point x="715" y="29" type="curve"/>
      <point x="690" y="97" type="line"/>
      <point x="639" y="74"/>
      <point x="586" y="64"/>
      <point x="544" y="64" type="curve" smooth="yes"/>
      <point x="450" y="64"/>
      <point x="410" y="117"/>
      <point x="410" y="218" type="curve" smooth="yes"/>
      <point x="410" y="222" type="line"/>
      <point x="705" y="222" type="line"/>
      <point x="714" y="257"/>
      <point x="718" y="288"/>
      <point x="718" y="316" type="curve" smooth="yes"/>
      <point x="718" y="445"/>
      <point x="632" y="505"/>
      <point x="531" y="505" type="curve" smooth="yes"/>
      <point x="464" y="505"/>
      <point x="414" y="478"/>
      <point x="383" y="432" type="curve"/>
      <point x="362" y="476"/>
      <point x="319" y="505"/>
      <point x="237" y="505" type="curve" smooth="yes"/>
      <point x="180" y="505"/>
      <point x="125" y="490"/>
      <point x="64" y="462" type="curve"/>
      <point x="90" y="394" type="line"/>
      <point x="142" y="417"/>
      <point x="189" y="429"/>
      <point x="233" y="429" type="curve" smooth="yes"/>
      <point x="296" y="429"/>
      <point x="329" y="406"/>
      <point x="329" y="332" type="curve" smooth="yes"/>
      <point x="329" y="265" type="line"/>
      <point x="285" y="272"/>
      <point x="241" y="277"/>
      <point x="205" y="277" type="curve" smooth="yes"/>
      <point x="82" y="277"/>
      <point x="42" y="216"/>
      <point x="42" y="135" type="curve" smooth="yes"/>
      <point x="42" y="54"/>
      <point x="82" y="-10"/>
      <point x="170" y="-10" type="curve" smooth="yes"/>
      <point x="228" y="-10"/>
      <point x="286" y="12"/>
      <point x="361" y="80" type="curve"/>
      <point x="394" y="22"/>
      <point x="454" y="-10"/>
      <point x="541" y="-10" type="curve" smooth="yes"/>
      <point x="592" y="-10"/>
      <point x="654" y="1"/>
    </contour>
    <contour>
      <point x="531" y="433" type="curve" smooth="yes"/>
      <point x="588" y="433"/>
      <point x="637" y="399"/>
      <point x="637" y="324" type="curve" smooth="yes"/>
      <point x="637" y="313"/>
      <point x="636" y="302"/>
      <point x="634" y="289" type="curve"/>
      <point x="410" y="289" type="line"/>
      <point x="413" y="380"/>
      <point x="454" y="433"/>
    </contour>
    <contour>
      <point x="124" y="136" type="curve" smooth="yes"/>
      <point x="124" y="187"/>
      <point x="149" y="212"/>
      <point x="209" y="212" type="curve" smooth="yes"/>
      <point x="242" y="212"/>
      <point x="286" y="208"/>
      <point x="329" y="200" type="curve"/>
      <point x="330" y="180"/>
      <point x="333" y="161"/>
      <point x="337" y="143" type="curve"/>
      <point x="267" y="75"/>
      <point x="219" y="60"/>
      <point x="185" y="60" type="curve" smooth="yes"/>
      <point x="145" y="60"/>
      <point x="124" y="90"/>
    </contour>
  </outline>
</glyph>
<glyph name="ccedilla" format="1">
  <advance width="449"/>
  <unicode hex="00E7"/>
  <outline>
    <contour>
      <point x="359" y="-132" type="curve" smooth="yes"/>
      <point x="359" y="-81"/>
      <point x="324" y="-50"/>
      <point x="260" y="-50" type="curve"/>
      <point x="267" y="-10" type="line"/>
      <point x="316" y="-8"/>
      <point x="367" y="4"/>
      <point x="417" y="27" type="curve"/>
      <point x="392" y="96" type="line"/>
      <point x="345" y="75"/>
      <point x="302" y="65"/>
      <point x="263" y="65" type="curve" smooth="yes"/>
      <point x="181" y="65"/>
      <point x="146" y="117"/>
      <point x="146" y="218" type="curve" smooth="yes"/>
      <point x="146" y="277" type="line" smooth="yes"/>
      <point x="146" y="377"/>
      <point x="181" y="429"/>
      <point x="263" y="429" type="curve" smooth="yes"/>
      <point x="300" y="429"/>
      <point x="341" y="418"/>
      <point x="385" y="399" type="curve"/>
      <point x="410" y="469" type="line"/>
      <point x="358" y="492"/>
      <point x="306" y="505"/>
      <point x="258" y="505" type="curve" smooth="yes"/>
      <point x="130" y="505"/>
      <point x="62" y="418"/>
      <point x="62" y="277" type="curve" smooth="yes"/>
      <point x="62" y="218" type="line" smooth="yes"/>
      <point x="62" y="96"/>
      <point x="112" y="15"/>
      <point x="208" y="-5" type="curve"/>
      <point x="197" y="-67" type="line"/>
      <point x="221" y="-105" type="line"/>
      <point x="229" y="-104"/>
      <point x="236" y="-103"/>
      <point x="244" y="-103" type="curve" smooth="yes"/>
      <point x="281" y="-103"/>
      <point x="292" y="-117"/>
      <point x="292" y="-133" type="curve" smooth="yes"/>
      <point x="292" y="-150"/>
      <point x="281" y="-164"/>
      <point x="245" y="-164" type="curve" smooth="yes"/>
      <point x="226" y="-164"/>
      <point x="201" y="-160"/>
      <point x="178" y="-152" type="curve"/>
      <point x="167" y="-208" type="line"/>
      <point x="192" y="-217"/>
      <point x="218" y="-223"/>
      <point x="246" y="-223" type="curve" smooth="yes"/>
      <point x="314" y="-223"/>
      <point x="359" y="-190"/>
    </contour>
  </outline>
</glyph>
<glyph name="eth" format="1">
  <advance width="538"/>
  <unicode hex="00F0"/>
  <outline>
    <contour>
      <point x="480" y="254" type="curve" smooth="yes"/>
      <point x="480" y="294" type="line" smooth="yes"/>
      <point x="480" y="405"/>
      <point x="441" y="513"/>
      <point x="350" y="611" type="curve"/>
      <point x="441" y="673" type="line"/>
      <point x="441" y="750" type="line"/>
      <point x="303" y="657" type="line"/>
      <point x="266" y="689"/>
      <point x="222" y="720"/>
      <point x="172" y="750" type="curve"/>
      <point x="139" y="686" type="line"/>
      <point x="178" y="663"/>
      <point x="211" y="639"/>
      <point x="241" y="614" type="curve"/>
      <point x="159" y="559" type="line"/>
      <point x="159" y="482" type="line"/>
      <point x="288" y="569" type="line"/>
      <point x="337" y="515"/>
      <point x="368" y="456"/>
      <point x="384" y="393" type="curve"/>
      <point x="340" y="426"/>
      <point x="297" y="442"/>
      <point x="245" y="442" type="curve" smooth="yes"/>
      <point x="129" y="442"/>
      <point x="55" y="360"/>
      <point x="55" y="232" type="curve" smooth="yes"/>
      <point x="55" y="196" type="line" smooth="yes"/>
      <point x="55" y="64"/>
      <point x="130" y="-10"/>
      <point x="264" y="-10" type="curve" smooth="yes"/>
      <point x="400" y="-10"/>
      <point x="480" y="78"/>
    </contour>
    <contour>
      <point x="140" y="196" type="curve" smooth="yes"/>
      <point x="140" y="232" type="line" smooth="yes"/>
      <point x="140" y="317"/>
      <point x="186" y="366"/>
      <point x="259" y="366" type="curve" smooth="yes"/>
      <point x="301" y="366"/>
      <point x="342" y="351"/>
      <point x="395" y="307" type="curve"/>
      <point x="395" y="254" type="line" smooth="yes"/>
      <point x="395" y="122"/>
      <point x="347" y="64"/>
      <point x="264" y="64" type="curve" smooth="yes"/>
      <point x="184" y="64"/>
      <point x="140" y="109"/>
    </contour>
  </outline>
</glyph>
<glyph name="divide" format="1">
  <advance width="588"/>
  <unicode hex="00F7"/>
  <outline>
    <contour>
      <point x="340" y="456" type="line"/>
      <point x="340" y="547" type="line"/>
      <point x="248" y="547" type="line"/>
      <point x="248" y="456" type="line"/>
    </contour>
    <contour>
      <point x="87" y="266" type="line"/>
      <point x="501" y="266" type="line"/>
      <point x="501" y="338" type="line"/>
      <point x="87" y="338" type="line"/>
    </contour>
    <contour>
      <point x="340" y="53" type="line"/>
      <point x="340" y="145" type="line"/>
      <point x="248" y="145" type="line"/>
      <point x="248" y="53" type="line"/>
    </contour>
  </outline>
</glyph>
<glyph name="oslash" format="1">
  <advance width="541"/>
  <unicode hex="00F8"/>
  <outline>
    <contour>
      <point x="270" y="-10" type="curve" smooth="yes"/>
      <point x="404" y="-10"/>
      <point x="480" y="76"/>
      <point x="480" y="218" type="curve" smooth="yes"/>
      <point x="480" y="278" type="line" smooth="yes"/>
      <point x="480" y="346"/>
      <point x="462" y="402"/>
      <point x="428" y="441" type="curve"/>
      <point x="480" y="525" type="line"/>
      <point x="407" y="525" type="line"/>
      <point x="379" y="480" type="line"/>
      <point x="349" y="496"/>
      <point x="312" y="505"/>
      <point x="270" y="505" type="curve" smooth="yes"/>
      <point x="135" y="505"/>
      <point x="60" y="416"/>
      <point x="60" y="278" type="curve" smooth="yes"/>
      <point x="60" y="218" type="line" smooth="yes"/>
      <point x="60" y="149"/>
      <point x="78" y="93"/>
      <point x="112" y="54" type="curve"/>
      <point x="60" y="-30" type="line"/>
      <point x="134" y="-30" type="line"/>
      <point x="162" y="14" type="line"/>
      <point x="192" y="-2"/>
      <point x="228" y="-10"/>
    </contour>
    <contour>
      <point x="143" y="218" type="curve" smooth="yes"/>
      <point x="143" y="278" type="line" smooth="yes"/>
      <point x="143" y="375"/>
      <point x="189" y="432"/>
      <point x="270" y="432" type="curve" smooth="yes"/>
      <point x="297" y="432"/>
      <point x="319" y="426"/>
      <point x="338" y="415" type="curve"/>
      <point x="159" y="129" type="line"/>
      <point x="149" y="153"/>
      <point x="143" y="183"/>
    </contour>
    <contour>
      <point x="397" y="278" type="curve" smooth="yes"/>
      <point x="397" y="218" type="line" smooth="yes"/>
      <point x="397" y="117"/>
      <point x="352" y="62"/>
      <point x="270" y="62" type="curve" smooth="yes"/>
      <point x="244" y="62"/>
      <point x="221" y="68"/>
      <point x="202" y="79" type="curve"/>
      <point x="380" y="365" type="line"/>
      <point x="391" y="342"/>
      <point x="397" y="312"/>
    </contour>
  </outline>
</glyph>
<glyph name="thorn" format="1">
  <advance width="554"/>
  <unicode hex="00FE"/>
  <outline>
    <contour>
      <point x="286" y="-10" type="curve" smooth="yes"/>
      <point x="419" y="-10"/>
      <point x="490" y="79"/>
      <point x="490" y="218" type="curve" smooth="yes"/>
      <point x="490" y="276" type="line" smooth="yes"/>
      <point x="490" y="421"/>
      <point x="432" y="505"/>
      <point x="328" y="505" type="curve" smooth="yes"/>
      <point x="276" y="505"/>
      <point x="229" y="485"/>
      <point x="170" y="429" type="curve"/>
      <point x="170" y="740" type="line"/>
      <point x="88" y="740" type="line"/>
      <point x="88" y="-213" type="line"/>
      <point x="170" y="-213" type="line"/>
      <point x="170" y="13" type="line"/>
      <point x="209" y="-2"/>
      <point x="247" y="-10"/>
    </contour>
    <contour>
      <point x="308" y="428" type="curve" smooth="yes"/>
      <point x="373" y="428"/>
      <point x="405" y="380"/>
      <point x="405" y="276" type="curve" smooth="yes"/>
      <point x="405" y="218" type="line" smooth="yes"/>
      <point x="405" y="123"/>
      <point x="369" y="64"/>
      <point x="279" y="64" type="curve" smooth="yes"/>
      <point x="244" y="64"/>
      <point x="209" y="71"/>
      <point x="170" y="88" type="curve"/>
      <point x="170" y="352" type="line"/>
      <point x="233" y="413"/>
      <point x="269" y="428"/>
    </contour>
  </outline>
</glyph>
<glyph name="Aogonek" format="1">
  <advance width="577"/>
  <unicode hex="0104"/>
  <outline>
    <contour>
      <point x="556" y="-206" type="curve"/>
      <point x="541" y="-143" type="line"/>
      <point x="522" y="-151"/>
      <point x="504" y="-155"/>
      <point x="488" y="-155" type="curve" smooth="yes"/>
      <point x="463" y="-155"/>
      <point x="451" y="-143"/>
      <point x="451" y="-123" type="curve" smooth="yes"/>
      <point x="451" y="-94"/>
      <point x="471" y="-66"/>
      <point x="556" y="0" type="curve"/>
      <point x="329" y="680" type="line"/>
      <point x="247" y="680" type="line"/>
      <point x="21" y="0" type="line"/>
      <point x="106" y="0" type="line"/>
      <point x="157" y="158" type="line"/>
      <point x="415" y="158" type="line"/>
      <point x="466" y="1" type="line"/>
      <point x="398" y="-55"/>
      <point x="376" y="-95"/>
      <point x="376" y="-136" type="curve" smooth="yes"/>
      <point x="376" y="-188"/>
      <point x="412" y="-223"/>
      <point x="477" y="-223" type="curve" smooth="yes"/>
      <point x="503" y="-223"/>
      <point x="529" y="-217"/>
    </contour>
    <contour>
      <point x="220" y="354" type="line"/>
      <point x="286" y="564" type="line"/>
      <point x="351" y="354" type="line"/>
      <point x="389" y="237" type="line"/>
      <point x="182" y="237" type="line"/>
    </contour>
  </outline>
</glyph>
<glyph name="aogonek" format="1">
  <advance width="493"/>
  <unicode hex="0105"/>
  <outline>
    <contour>
      <point x="465" y="-206" type="curve"/>
      <point x="450" y="-143" type="line"/>
      <point x="431" y="-151"/>
      <point x="413" y="-155"/>
      <point x="397" y="-155" type="curve" smooth="yes"/>
      <point x="372" y="-155"/>
      <point x="360" y="-143"/>
      <point x="360" y="-123" type="curve" smooth="yes"/>
      <point x="360" y="-96"/>
      <point x="380" y="-66"/>
      <point x="465" y="-5" type="curve"/>
      <point x="465" y="70" type="line"/>
      <point x="454" y="70" type="line" smooth="yes"/>
      <point x="418" y="70"/>
      <point x="409" y="93"/>
      <point x="409" y="124" type="curve" smooth="yes"/>
      <point x="409" y="338" type="line" smooth="yes"/>
      <point x="409" y="428"/>
      <point x="376" y="505"/>
      <point x="237" y="505" type="curve" smooth="yes"/>
      <point x="180" y="505"/>
      <point x="125" y="490"/>
      <point x="64" y="462" type="curve"/>
      <point x="90" y="394" type="line"/>
      <point x="142" y="417"/>
      <point x="189" y="429"/>
      <point x="233" y="429" type="curve" smooth="yes"/>
      <point x="296" y="429"/>
      <point x="329" y="406"/>
      <point x="329" y="332" type="curve" smooth="yes"/>
      <point x="329" y="265" type="line"/>
      <point x="285" y="272"/>
      <point x="241" y="277"/>
      <point x="205" y="277" type="curve" smooth="yes"/>
      <point x="82" y="277"/>
      <point x="42" y="216"/>
      <point x="42" y="135" type="curve" smooth="yes"/>
      <point x="42" y="53"/>
      <point x="82" y="-10"/>
      <point x="169" y="-10" type="curve" smooth="yes"/>
      <point x="222" y="-10"/>
      <point x="273" y="10"/>
      <point x="338" y="68" type="curve"/>
      <point x="347" y="42"/>
      <point x="364" y="21"/>
      <point x="389" y="8" type="curve"/>
      <point x="309" y="-50"/>
      <point x="285" y="-94"/>
      <point x="285" y="-136" type="curve" smooth="yes"/>
      <point x="285" y="-188"/>
      <point x="322" y="-223"/>
      <point x="387" y="-223" type="curve" smooth="yes"/>
      <point x="413" y="-223"/>
      <point x="438" y="-217"/>
    </contour>
    <contour>
      <point x="123" y="136" type="curve" smooth="yes"/>
      <point x="123" y="187"/>
      <point x="148" y="212"/>
      <point x="209" y="212" type="curve" smooth="yes"/>
      <point x="242" y="212"/>
      <point x="286" y="208"/>
      <point x="329" y="201" type="curve"/>
      <point x="329" y="138" type="line"/>
      <point x="262" y="75"/>
      <point x="219" y="60"/>
      <point x="185" y="60" type="curve" smooth="yes"/>
      <point x="145" y="60"/>
      <point x="123" y="90"/>
    </contour>
  </outline>
</glyph>
<glyph name="dcroat" format="1">
  <advance width="556"/>
  <unicode hex="0111"/>
  <outline>
    <contour>
      <point x="389" y="0" type="line"/>
      <point x="467" y="0" type="line"/>
      <point x="467" y="586" type="line"/>
      <point x="554" y="586" type="line"/>
      <point x="554" y="648" type="line"/>
      <point x="467" y="648" type="line"/>
      <point x="467" y="740" type="line"/>
      <point x="385" y="740" type="line"/>
      <point x="385" y="648" type="line"/>
      <point x="231" y="648" type="line"/>
      <point x="231" y="586" type="line"/>
      <point x="385" y="586" type="line"/>
      <point x="385" y="482" type="line"/>
      <point x="346" y="496"/>
      <point x="308" y="505"/>
      <point x="269" y="505" type="curve" smooth="yes"/>
      <point x="135" y="505"/>
      <point x="64" y="416"/>
      <point x="64" y="276" type="curve" smooth="yes"/>
      <point x="64" y="218" type="line" smooth="yes"/>
      <point x="64" y="74"/>
      <point x="123" y="-10"/>
      <point x="228" y="-10" type="curve" smooth="yes"/>
      <point x="281" y="-10"/>
      <point x="328" y="10"/>
      <point x="389" y="69" type="curve"/>
    </contour>
    <contour>
      <point x="149" y="218" type="curve" smooth="yes"/>
      <point x="149" y="276" type="line" smooth="yes"/>
      <point x="149" y="372"/>
      <point x="185" y="430"/>
      <point x="276" y="430" type="curve" smooth="yes"/>
      <point x="311" y="430"/>
      <point x="346" y="423"/>
      <point x="385" y="406" type="curve"/>
      <point x="385" y="142" type="line"/>
      <point x="322" y="81"/>
      <point x="286" y="67"/>
      <point x="247" y="67" type="curve" smooth="yes"/>
      <point x="182" y="67"/>
      <point x="149" y="114"/>
    </contour>
  </outline>
</glyph>
<glyph name="Eogonek" format="1">
  <advance width="531"/>
  <unicode hex="0118"/>
  <outline>
    <contour>
      <point x="486" y="-206" type="curve"/>
      <point x="471" y="-143" type="line"/>
      <point x="452" y="-151"/>
      <point x="434" y="-155"/>
      <point x="418" y="-155" type="curve" smooth="yes"/>
      <point x="393" y="-155"/>
      <point x="381" y="-143"/>
      <point x="381" y="-123" type="curve" smooth="yes"/>
      <point x="381" y="-95"/>
      <point x="402" y="-66"/>
      <point x="486" y="0" type="curve"/>
      <point x="486" y="81" type="line"/>
      <point x="193" y="81" type="line"/>
      <point x="193" y="303" type="line"/>
      <point x="446" y="303" type="line"/>
      <point x="446" y="385" type="line"/>
      <point x="193" y="385" type="line"/>
      <point x="193" y="598" type="line"/>
      <point x="476" y="598" type="line"/>
      <point x="476" y="680" type="line"/>
      <point x="106" y="680" type="line"/>
      <point x="106" y="0" type="line"/>
      <point x="398" y="0" type="line"/>
      <point x="329" y="-56"/>
      <point x="306" y="-95"/>
      <point x="306" y="-136" type="curve" smooth="yes"/>
      <point x="306" y="-188"/>
      <point x="343" y="-223"/>
      <point x="407" y="-223" type="curve" smooth="yes"/>
      <point x="433" y="-223"/>
      <point x="459" y="-217"/>
    </contour>
  </outline>
</glyph>
<glyph name="eogonek" format="1">
  <advance width="504"/>
  <unicode hex="0119"/>
  <outline>
    <contour>
      <point x="445" y="-206" type="curve"/>
      <point x="430" y="-143" type="line"/>
      <point x="411" y="-151"/>
      <point x="393" y="-155"/>
      <point x="377" y="-155" type="curve" smooth="yes"/>
      <point x="352" y="-155"/>
      <point x="340" y="-143"/>
      <point x="340" y="-120" type="curve" smooth="yes"/>
      <point x="340" y="-92"/>
      <point x="357" y="-54"/>
      <point x="447" y="29" type="curve"/>
      <point x="422" y="97" type="line"/>
      <point x="371" y="74"/>
      <point x="318" y="64"/>
      <point x="276" y="64" type="curve" smooth="yes"/>
      <point x="182" y="64"/>
      <point x="143" y="117"/>
      <point x="143" y="218" type="curve" smooth="yes"/>
      <point x="143" y="222" type="line"/>
      <point x="438" y="222" type="line"/>
      <point x="446" y="257"/>
      <point x="450" y="288"/>
      <point x="450" y="316" type="curve" smooth="yes"/>
      <point x="450" y="445"/>
      <point x="365" y="505"/>
      <point x="263" y="505" type="curve" smooth="yes"/>
      <point x="135" y="505"/>
      <point x="62" y="415"/>
      <point x="62" y="278" type="curve" smooth="yes"/>
      <point x="62" y="218" type="line" smooth="yes"/>
      <point x="62" y="76"/>
      <point x="132" y="-10"/>
      <point x="269" y="-10" type="curve" smooth="yes"/>
      <point x="288" y="-10"/>
      <point x="310" y="-8"/>
      <point x="331" y="-3" type="curve"/>
      <point x="281" y="-56"/>
      <point x="265" y="-97"/>
      <point x="265" y="-133" type="curve" smooth="yes"/>
      <point x="265" y="-188"/>
      <point x="301" y="-223"/>
      <point x="366" y="-223" type="curve" smooth="yes"/>
      <point x="392" y="-223"/>
      <point x="418" y="-217"/>
    </contour>
    <contour>
      <point x="263" y="433" type="curve" smooth="yes"/>
      <point x="321" y="433"/>
      <point x="370" y="399"/>
      <point x="370" y="324" type="curve" smooth="yes"/>
      <point x="370" y="313"/>
      <point x="369" y="302"/>
      <point x="367" y="289" type="curve"/>
      <point x="143" y="289" type="line"/>
      <point x="146" y="380"/>
      <point x="186" y="433"/>
    </contour>
  </outline>
</glyph>
<glyph name="Hbar" format="1">
  <advance width="703"/>
  <unicode hex="0126"/>
  <outline>
    <contour>
      <point x="202" y="303" type="line"/>
      <point x="499" y="303" type="line"/>
      <point x="499" y="0" type="line"/>
      <point x="586" y="0" type="line"/>
      <point x="586" y="504" type="line"/>
      <point x="673" y="504" type="line"/>
      <point x="673" y="571" type="line"/>
      <point x="586" y="571" type="line"/>
      <point x="586" y="680" type="line"/>
      <point x="499" y="680" type="line"/>
      <point x="499" y="571" type="line"/>
      <point x="202" y="571" type="line"/>
      <point x="202" y="680" type="line"/>
      <point x="115" y="680" type="line"/>
      <point x="115" y="571" type="line"/>
      <point x="29" y="571" type="line"/>
      <point x="29" y="504" type="line"/>
      <point x="115" y="504" type="line"/>
      <point x="115" y="0" type="line"/>
      <point x="202" y="0" type="line"/>
    </contour>
    <contour>
      <point x="202" y="385" type="line"/>
      <point x="202" y="504" type="line"/>
      <point x="499" y="504" type="line"/>
      <point x="499" y="385" type="line"/>
    </contour>
  </outline>
</glyph>
<glyph name="hbar" format="1">
  <advance width="571"/>
  <unicode hex="0127"/>
  <outline>
    <contour>
      <point x="170" y="357" type="line"/>
      <point x="241" y="414"/>
      <point x="288" y="428"/>
      <point x="326" y="428" type="curve" smooth="yes"/>
      <point x="380" y="428"/>
      <point x="406" y="396"/>
      <point x="406" y="326" type="curve" smooth="yes"/>
      <point x="406" y="0" type="line"/>
      <point x="488" y="0" type="line"/>
      <point x="488" y="338" type="line" smooth="yes"/>
      <point x="488" y="444"/>
      <point x="438" y="505"/>
      <point x="346" y="505" type="curve" smooth="yes"/>
      <point x="293" y="505"/>
      <point x="239" y="487"/>
      <point x="170" y="429" type="curve"/>
      <point x="170" y="588" type="line"/>
      <point x="325" y="588" type="line"/>
      <point x="325" y="648" type="line"/>
      <point x="170" y="648" type="line"/>
      <point x="170" y="740" type="line"/>
      <point x="88" y="740" type="line"/>
      <point x="88" y="648" type="line"/>
      <point x="1" y="648" type="line"/>
      <point x="1" y="588" type="line"/>
      <point x="88" y="588" type="line"/>
      <point x="88" y="0" type="line"/>
      <point x="170" y="0" type="line"/>
    </contour>
  </outline>
</glyph>
<glyph name="Iogonek" format="1">
  <advance width="300"/>
  <unicode hex="012E"/>
  <outline>
    <contour>
      <point x="217" y="-206" type="curve"/>
      <point x="202" y="-143" type="line"/>
      <point x="183" y="-151"/>
      <point x="165" y="-155"/>
      <point x="149" y="-155" type="curve" smooth="yes"/>
      <point x="124" y="-155"/>
      <point x="112" y="-143"/>
      <point x="112" y="-122" type="curve" smooth="yes"/>
      <point x="112" y="-92"/>
      <point x="135" y="-56"/>
      <point x="193" y="0" type="curve"/>
      <point x="193" y="680" type="line"/>
      <point x="106" y="680" type="line"/>
      <point x="106" y="-4" type="line"/>
      <point x="59" y="-54"/>
      <point x="37" y="-97"/>
      <point x="37" y="-136" type="curve" smooth="yes"/>
      <point x="37" y="-188"/>
      <point x="74" y="-223"/>
      <point x="139" y="-223" type="curve" smooth="yes"/>
      <point x="165" y="-223"/>
      <point x="190" y="-217"/>
    </contour>
  </outline>
</glyph>
<glyph name="iogonek" format="1">
  <advance width="259"/>
  <unicode hex="012F"/>
  <outline>
    <contour>
      <point x="172" y="619" type="line"/>
      <point x="172" y="705" type="line"/>
      <point x="86" y="705" type="line"/>
      <point x="86" y="619" type="line"/>
    </contour>
    <contour>
      <point x="194" y="-206" type="curve"/>
      <point x="179" y="-143" type="line"/>
      <point x="160" y="-151"/>
      <point x="142" y="-155"/>
      <point x="126" y="-155" type="curve" smooth="yes"/>
      <point x="101" y="-155"/>
      <point x="89" y="-143"/>
      <point x="89" y="-122" type="curve" smooth="yes"/>
      <point x="89" y="-92"/>
      <point x="112" y="-56"/>
      <point x="170" y="0" type="curve"/>
      <point x="170" y="495" type="line"/>
      <point x="88" y="495" type="line"/>
      <point x="88" y="1" type="line"/>
      <point x="37" y="-51"/>
      <point x="14" y="-95"/>
      <point x="14" y="-136" type="curve" smooth="yes"/>
      <point x="14" y="-188"/>
      <point x="51" y="-223"/>
      <point x="116" y="-223" type="curve" smooth="yes"/>
      <point x="142" y="-223"/>
      <point x="167" y="-217"/>
    </contour>
  </outline>
</glyph>
<glyph name="dotlessi" format="2">
	<advance width="259"/>
	<unicode hex="0131"/>
	<outline>
		<contour>
			<point x="170" y="0" type="line"/>
			<point x="170" y="495" type="line"/>
			<point x="88" y="495" type="line"/>
			<point x="88" y="0" type="line"/>
		</contour>
	</outline>
</glyph>
<glyph name="kgreenlandic" format="1">
  <advance width="508"/>
  <unicode hex="0138"/>
  <outline>
    <contour>
      <point x="393" y="0" type="line"/>
      <point x="492" y="0" type="line"/>
      <point x="314" y="282" type="line"/>
      <point x="376" y="351"/>
      <point x="424" y="415"/>
      <point x="472" y="495" type="curve"/>
      <point x="378" y="495" type="line"/>
      <point x="322" y="402"/>
      <point x="257" y="326"/>
      <point x="170" y="242" type="curve"/>
      <point x="170" y="495" type="line"/>
      <point x="88" y="495" type="line"/>
      <point x="88" y="0" type="line"/>
      <point x="170" y="0" type="line"/>
      <point x="170" y="150" type="line"/>
      <point x="200" y="177"/>
      <point x="228" y="203"/>
      <point x="254" y="229" type="curve"/>
    </contour>
  </outline>
</glyph>
<glyph name="Lslash" format="1">
  <advance width="516"/>
  <unicode hex="0141"/>
  <outline>
    <contour>
      <point x="488" y="81" type="line"/>
      <point x="203" y="81" type="line"/>
      <point x="203" y="318" type="line"/>
      <point x="339" y="382" type="line"/>
      <point x="339" y="466" type="line"/>
      <point x="203" y="402" type="line"/>
      <point x="203" y="680" type="line"/>
      <point x="116" y="680" type="line"/>
      <point x="116" y="361" type="line"/>
      <point x="29" y="320" type="line"/>
      <point x="29" y="236" type="line"/>
      <point x="116" y="277" type="line"/>
      <point x="116" y="0" type="line"/>
      <point x="488" y="0" type="line"/>
    </contour>
  </outline>
</glyph>
<glyph name="lslash" format="1">
  <advance width="302"/>
  <unicode hex="0142"/>
  <outline>
    <contour>
      <point x="249" y="70" type="line"/>
      <point x="233" y="70" type="line" smooth="yes"/>
      <point x="198" y="70"/>
      <point x="190" y="88"/>
      <point x="190" y="124" type="curve" smooth="yes"/>
      <point x="190" y="353" type="line"/>
      <point x="277" y="403" type="line"/>
      <point x="277" y="486" type="line"/>
      <point x="190" y="436" type="line"/>
      <point x="190" y="740" type="line"/>
      <point x="108" y="740" type="line"/>
      <point x="108" y="390" type="line"/>
      <point x="21" y="340" type="line"/>
      <point x="21" y="257" type="line"/>
      <point x="108" y="307" type="line"/>
      <point x="108" y="120" type="line" smooth="yes"/>
      <point x="108" y="46"/>
      <point x="137" y="-5"/>
      <point x="226" y="-5" type="curve" smooth="yes"/>
      <point x="249" y="-5" type="line"/>
    </contour>
  </outline>
</glyph>
<glyph name="Eng" format="1">
  <advance width="690"/>
  <unicode hex="014A"/>
  <outline>
    <contour>
      <point x="498" y="680" type="line"/>
      <point x="498" y="404" type="line"/>
      <point x="508" y="154" type="line"/>
      <point x="417" y="341"/>
      <point x="316" y="510"/>
      <point x="197" y="680" type="curve"/>
      <point x="106" y="680" type="line"/>
      <point x="106" y="0" type="line"/>
      <point x="191" y="0" type="line"/>
      <point x="191" y="278" type="line"/>
      <point x="185" y="554" type="line"/>
      <point x="301" y="379"/>
      <point x="405" y="190"/>
      <point x="498" y="-3" type="curve"/>
      <point x="494" y="-104"/>
      <point x="446" y="-139"/>
      <point x="340" y="-139" type="curve"/>
      <point x="340" y="-223" type="line"/>
      <point x="529" y="-223"/>
      <point x="583" y="-129"/>
      <point x="583" y="8" type="curve" smooth="yes"/>
      <point x="583" y="680" type="line"/>
    </contour>
  </outline>
</glyph>
<glyph name="eng" format="1">
  <advance width="571"/>
  <unicode hex="014B"/>
  <outline>
    <contour>
      <point x="346" y="505" type="curve" smooth="yes"/>
      <point x="292" y="505"/>
      <point x="237" y="486"/>
      <point x="166" y="426" type="curve"/>
      <point x="166" y="495" type="line"/>
      <point x="88" y="495" type="line"/>
      <point x="88" y="0" type="line"/>
      <point x="170" y="0" type="line"/>
      <point x="170" y="357" type="line"/>
      <point x="241" y="414"/>
      <point x="288" y="428"/>
      <point x="326" y="428" type="curve" smooth="yes"/>
      <point x="380" y="428"/>
      <point x="406" y="396"/>
      <point x="406" y="326" type="curve" smooth="yes"/>
      <point x="406" y="-23" type="line" smooth="yes"/>
      <point x="406" y="-119"/>
      <point x="367" y="-145"/>
      <point x="296" y="-145" type="curve"/>
      <point x="296" y="-223" type="line"/>
      <point x="444" y="-223"/>
      <point x="488" y="-139"/>
      <point x="488" y="-23" type="curve" smooth="yes"/>
      <point x="488" y="338" type="line" smooth="yes"/>
      <point x="488" y="444"/>
      <point x="438" y="505"/>
    </contour>
  </outline>
</glyph>
<glyph name="OE" format="1">
  <advance width="868"/>
  <unicode hex="0152"/>
  <outline>
    <contour>
      <point x="77" y="415" type="curve" smooth="yes"/>
      <point x="77" y="266" type="line" smooth="yes"/>
      <point x="77" y="99"/>
      <point x="164" y="0"/>
      <point x="320" y="0" type="curve" smooth="yes"/>
      <point x="823" y="0" type="line"/>
      <point x="823" y="81" type="line"/>
      <point x="531" y="81" type="line"/>
      <point x="531" y="303" type="line"/>
      <point x="783" y="303" type="line"/>
      <point x="783" y="385" type="line"/>
      <point x="531" y="385" type="line"/>
      <point x="531" y="598" type="line"/>
      <point x="813" y="598" type="line"/>
      <point x="813" y="680" type="line"/>
      <point x="320" y="680" type="line" smooth="yes"/>
      <point x="164" y="680"/>
      <point x="77" y="580"/>
    </contour>
    <contour>
      <point x="322" y="81" type="line" smooth="yes"/>
      <point x="218" y="81"/>
      <point x="167" y="144"/>
      <point x="167" y="266" type="curve" smooth="yes"/>
      <point x="167" y="415" type="line" smooth="yes"/>
      <point x="167" y="536"/>
      <point x="218" y="598"/>
      <point x="322" y="598" type="curve" smooth="yes"/>
      <point x="444" y="598" type="line"/>
      <point x="444" y="81" type="line"/>
    </contour>
  </outline>
</glyph>
<glyph name="oe" format="1">
  <advance width="838"/>
  <unicode hex="0153"/>
  <outline>
    <contour>
      <point x="781" y="29" type="curve"/>
      <point x="756" y="97" type="line"/>
      <point x="705" y="74"/>
      <point x="652" y="64"/>
      <point x="610" y="64" type="curve" smooth="yes"/>
      <point x="516" y="64"/>
      <point x="476" y="117"/>
      <point x="476" y="218" type="curve" smooth="yes"/>
      <point x="476" y="222" type="line"/>
      <point x="772" y="222" type="line"/>
      <point x="780" y="257"/>
      <point x="784" y="288"/>
      <point x="784" y="316" type="curve" smooth="yes"/>
      <point x="784" y="445"/>
      <point x="698" y="505"/>
      <point x="597" y="505" type="curve" smooth="yes"/>
      <point x="523" y="505"/>
      <point x="468" y="471"/>
      <point x="437" y="412" type="curve"/>
      <point x="405" y="471"/>
      <point x="348" y="505"/>
      <point x="270" y="505" type="curve" smooth="yes"/>
      <point x="135" y="505"/>
      <point x="60" y="416"/>
      <point x="60" y="278" type="curve" smooth="yes"/>
      <point x="60" y="218" type="line" smooth="yes"/>
      <point x="60" y="76"/>
      <point x="136" y="-10"/>
      <point x="270" y="-10" type="curve" smooth="yes"/>
      <point x="347" y="-10"/>
      <point x="405" y="23"/>
      <point x="437" y="81" type="curve"/>
      <point x="468" y="23"/>
      <point x="525" y="-10"/>
      <point x="608" y="-10" type="curve" smooth="yes"/>
      <point x="658" y="-10"/>
      <point x="720" y="1"/>
    </contour>
    <contour>
      <point x="597" y="433" type="curve" smooth="yes"/>
      <point x="655" y="433"/>
      <point x="703" y="399"/>
      <point x="703" y="324" type="curve" smooth="yes"/>
      <point x="703" y="313"/>
      <point x="702" y="302"/>
      <point x="700" y="289" type="curve"/>
      <point x="476" y="289" type="line"/>
      <point x="479" y="380"/>
      <point x="520" y="433"/>
    </contour>
    <contour>
      <point x="395" y="278" type="curve" smooth="yes"/>
      <point x="395" y="218" type="line" smooth="yes"/>
      <point x="395" y="119"/>
      <point x="351" y="64"/>
      <point x="270" y="64" type="curve" smooth="yes"/>
      <point x="190" y="64"/>
      <point x="145" y="119"/>
      <point x="145" y="218" type="curve" smooth="yes"/>
      <point x="145" y="278" type="line" smooth="yes"/>
      <point x="145" y="374"/>
      <point x="190" y="430"/>
      <point x="270" y="430" type="curve" smooth="yes"/>
      <point x="351" y="430"/>
      <point x="395" y="374"/>
    </contour>
  </outline>
</glyph>
<glyph name="Scedilla" format="1">
  <advance width="506"/>
  <unicode hex="015E"/>
  <outline>
    <contour>
      <point x="349" y="-132" type="curve" smooth="yes"/>
      <point x="349" y="-81"/>
      <point x="314" y="-50"/>
      <point x="250" y="-50" type="curve"/>
      <point x="257" y="-10" type="line"/>
      <point x="402" y="-6"/>
      <point x="464" y="71"/>
      <point x="464" y="183" type="curve" smooth="yes"/>
      <point x="464" y="283"/>
      <point x="413" y="347"/>
      <point x="312" y="377" type="curve" smooth="yes"/>
      <point x="231" y="401" type="line" smooth="yes"/>
      <point x="159" y="423"/>
      <point x="135" y="458"/>
      <point x="135" y="510" type="curve" smooth="yes"/>
      <point x="135" y="582"/>
      <point x="179" y="611"/>
      <point x="255" y="611" type="curve" smooth="yes"/>
      <point x="302" y="611"/>
      <point x="351" y="599"/>
      <point x="415" y="571" type="curve"/>
      <point x="443" y="646" type="line"/>
      <point x="377" y="676"/>
      <point x="313" y="690"/>
      <point x="253" y="690" type="curve" smooth="yes"/>
      <point x="104" y="690"/>
      <point x="47" y="607"/>
      <point x="47" y="504" type="curve" smooth="yes"/>
      <point x="47" y="413"/>
      <point x="93" y="350"/>
      <point x="195" y="320" type="curve" smooth="yes"/>
      <point x="276" y="296" type="line" smooth="yes"/>
      <point x="347" y="275"/>
      <point x="376" y="235"/>
      <point x="376" y="176" type="curve" smooth="yes"/>
      <point x="376" y="105"/>
      <point x="329" y="68"/>
      <point x="245" y="68" type="curve" smooth="yes"/>
      <point x="187" y="68"/>
      <point x="135" y="80"/>
      <point x="64" y="112" type="curve"/>
      <point x="37" y="38" type="line"/>
      <point x="93" y="12"/>
      <point x="147" y="-2"/>
      <point x="198" y="-7" type="curve"/>
      <point x="187" y="-67" type="line"/>
      <point x="211" y="-105" type="line"/>
      <point x="219" y="-104"/>
      <point x="226" y="-103"/>
      <point x="234" y="-103" type="curve" smooth="yes"/>
      <point x="271" y="-103"/>
      <point x="282" y="-117"/>
      <point x="282" y="-133" type="curve" smooth="yes"/>
      <point x="282" y="-150"/>
      <point x="271" y="-164"/>
      <point x="235" y="-164" type="curve" smooth="yes"/>
      <point x="216" y="-164"/>
      <point x="191" y="-160"/>
      <point x="168" y="-152" type="curve"/>
      <point x="157" y="-208" type="line"/>
      <point x="182" y="-217"/>
      <point x="208" y="-223"/>
      <point x="236" y="-223" type="curve" smooth="yes"/>
      <point x="304" y="-223"/>
      <point x="349" y="-190"/>
    </contour>
  </outline>
</glyph>
<glyph name="scedilla" format="1">
  <advance width="431"/>
  <unicode hex="015F"/>
  <outline>
    <contour>
      <point x="311" y="-132" type="curve" smooth="yes"/>
      <point x="311" y="-81"/>
      <point x="276" y="-50"/>
      <point x="212" y="-50" type="curve"/>
      <point x="219" y="-10" type="line"/>
      <point x="342" y="-7"/>
      <point x="388" y="55"/>
      <point x="388" y="136" type="curve" smooth="yes"/>
      <point x="388" y="212"/>
      <point x="348" y="259"/>
      <point x="260" y="281" type="curve" smooth="yes"/>
      <point x="205" y="295" type="line" smooth="yes"/>
      <point x="146" y="309"/>
      <point x="129" y="333"/>
      <point x="129" y="367" type="curve" smooth="yes"/>
      <point x="129" y="411"/>
      <point x="160" y="432"/>
      <point x="216" y="432" type="curve" smooth="yes"/>
      <point x="255" y="432"/>
      <point x="299" y="421"/>
      <point x="348" y="399" type="curve"/>
      <point x="374" y="468" type="line"/>
      <point x="319" y="494"/>
      <point x="266" y="505"/>
      <point x="216" y="505" type="curve" smooth="yes"/>
      <point x="97" y="505"/>
      <point x="49" y="438"/>
      <point x="49" y="362" type="curve" smooth="yes"/>
      <point x="49" y="292"/>
      <point x="89" y="240"/>
      <point x="170" y="220" type="curve" smooth="yes"/>
      <point x="225" y="206" type="line" smooth="yes"/>
      <point x="289" y="190"/>
      <point x="309" y="169"/>
      <point x="309" y="131" type="curve" smooth="yes"/>
      <point x="309" y="86"/>
      <point x="277" y="63"/>
      <point x="209" y="63" type="curve" smooth="yes"/>
      <point x="161" y="63"/>
      <point x="117" y="73"/>
      <point x="60" y="96" type="curve"/>
      <point x="38" y="28" type="line"/>
      <point x="80" y="9"/>
      <point x="120" y="-2"/>
      <point x="160" y="-7" type="curve"/>
      <point x="149" y="-67" type="line"/>
      <point x="173" y="-105" type="line"/>
      <point x="181" y="-104"/>
      <point x="188" y="-103"/>
      <point x="196" y="-103" type="curve" smooth="yes"/>
      <point x="233" y="-103"/>
      <point x="244" y="-117"/>
      <point x="244" y="-133" type="curve" smooth="yes"/>
      <point x="244" y="-150"/>
      <point x="233" y="-164"/>
      <point x="197" y="-164" type="curve" smooth="yes"/>
      <point x="178" y="-164"/>
      <point x="153" y="-160"/>
      <point x="130" y="-152" type="curve"/>
      <point x="119" y="-208" type="line"/>
      <point x="144" y="-217"/>
      <point x="170" y="-223"/>
      <point x="198" y="-223" type="curve" smooth="yes"/>
      <point x="266" y="-223"/>
      <point x="311" y="-190"/>
    </contour>
  </outline>
</glyph>
<glyph name="Tbar" format="1">
  <advance width="509"/>
  <unicode hex="0166"/>
  <outline>
    <contour>
      <point x="427" y="298" type="line"/>
      <point x="427" y="365" type="line"/>
      <point x="298" y="365" type="line"/>
      <point x="298" y="598" type="line"/>
      <point x="496" y="598" type="line"/>
      <point x="496" y="680" type="line"/>
      <point x="13" y="680" type="line"/>
      <point x="13" y="598" type="line"/>
      <point x="211" y="598" type="line"/>
      <point x="211" y="365" type="line"/>
      <point x="82" y="365" type="line"/>
      <point x="82" y="298" type="line"/>
      <point x="211" y="298" type="line"/>
      <point x="211" y="0" type="line"/>
      <point x="298" y="0" type="line"/>
      <point x="298" y="298" type="line"/>
    </contour>
  </outline>
</glyph>
<glyph name="tbar" format="1">
  <advance width="399"/>
  <unicode hex="0167"/>
  <outline>
    <contour>
      <point x="377" y="18" type="curve"/>
      <point x="352" y="85" type="line"/>
      <point x="321" y="70"/>
      <point x="296" y="65"/>
      <point x="272" y="65" type="curve" smooth="yes"/>
      <point x="222" y="65"/>
      <point x="200" y="86"/>
      <point x="200" y="156" type="curve" smooth="yes"/>
      <point x="200" y="232" type="line"/>
      <point x="331" y="232" type="line"/>
      <point x="331" y="292" type="line"/>
      <point x="200" y="292" type="line"/>
      <point x="200" y="423" type="line"/>
      <point x="362" y="423" type="line"/>
      <point x="362" y="495" type="line"/>
      <point x="200" y="495" type="line"/>
      <point x="200" y="633" type="line"/>
      <point x="118" y="633" type="line"/>
      <point x="118" y="495" type="line"/>
      <point x="32" y="495" type="line"/>
      <point x="32" y="423" type="line"/>
      <point x="118" y="423" type="line"/>
      <point x="118" y="292" type="line"/>
      <point x="32" y="292" type="line"/>
      <point x="32" y="232" type="line"/>
      <point x="118" y="232" type="line"/>
      <point x="118" y="153" type="line" smooth="yes"/>
      <point x="118" y="62"/>
      <point x="150" y="-10"/>
      <point x="258" y="-10" type="curve" smooth="yes"/>
      <point x="299" y="-10"/>
      <point x="341" y="0"/>
    </contour>
  </outline>
</glyph>
<glyph name="Uogonek" format="1">
  <advance width="648"/>
  <unicode hex="0172"/>
  <outline>
    <contour>
      <point x="456" y="-206" type="curve"/>
      <point x="441" y="-143" type="line"/>
      <point x="422" y="-151"/>
      <point x="404" y="-155"/>
      <point x="388" y="-155" type="curve" smooth="yes"/>
      <point x="363" y="-155"/>
      <point x="351" y="-143"/>
      <point x="351" y="-123" type="curve" smooth="yes"/>
      <point x="351" y="-92"/>
      <point x="380" y="-53"/>
      <point x="486" y="46" type="curve" smooth="yes"/>
      <point x="534" y="91"/>
      <point x="556" y="157"/>
      <point x="556" y="244" type="curve" smooth="yes"/>
      <point x="556" y="680" type="line"/>
      <point x="466" y="680" type="line"/>
      <point x="466" y="244" type="line" smooth="yes"/>
      <point x="466" y="135"/>
      <point x="423" y="70"/>
      <point x="324" y="70" type="curve" smooth="yes"/>
      <point x="226" y="70"/>
      <point x="182" y="135"/>
      <point x="182" y="244" type="curve" smooth="yes"/>
      <point x="182" y="680" type="line"/>
      <point x="92" y="680" type="line"/>
      <point x="92" y="244" type="line" smooth="yes"/>
      <point x="92" y="85"/>
      <point x="168" y="-10"/>
      <point x="324" y="-10" type="curve" smooth="yes"/>
      <point x="331" y="-10"/>
      <point x="338" y="-10"/>
      <point x="344" y="-9" type="curve"/>
      <point x="293" y="-63"/>
      <point x="276" y="-100"/>
      <point x="276" y="-136" type="curve" smooth="yes"/>
      <point x="276" y="-188"/>
      <point x="313" y="-223"/>
      <point x="378" y="-223" type="curve" smooth="yes"/>
      <point x="404" y="-223"/>
      <point x="429" y="-217"/>
    </contour>
  </outline>
</glyph>
<glyph name="uogonek" format="1">
  <advance width="559"/>
  <unicode hex="0173"/>
  <outline>
    <contour>
      <point x="470" y="-206" type="curve"/>
      <point x="455" y="-143" type="line"/>
      <point x="436" y="-151"/>
      <point x="418" y="-155"/>
      <point x="402" y="-155" type="curve" smooth="yes"/>
      <point x="377" y="-155"/>
      <point x="365" y="-143"/>
      <point x="365" y="-123" type="curve" smooth="yes"/>
      <point x="365" y="-94"/>
      <point x="385" y="-66"/>
      <point x="470" y="0" type="curve"/>
      <point x="470" y="495" type="line"/>
      <point x="388" y="495" type="line"/>
      <point x="388" y="137" type="line"/>
      <point x="319" y="81"/>
      <point x="275" y="67"/>
      <point x="238" y="67" type="curve" smooth="yes"/>
      <point x="188" y="67"/>
      <point x="164" y="98"/>
      <point x="164" y="168" type="curve" smooth="yes"/>
      <point x="164" y="495" type="line"/>
      <point x="82" y="495" type="line"/>
      <point x="82" y="156" type="line" smooth="yes"/>
      <point x="82" y="50"/>
      <point x="130" y="-10"/>
      <point x="218" y="-10" type="curve" smooth="yes"/>
      <point x="272" y="-10"/>
      <point x="323" y="10"/>
      <point x="393" y="70" type="curve"/>
      <point x="393" y="11" type="line"/>
      <point x="314" y="-50"/>
      <point x="290" y="-92"/>
      <point x="290" y="-136" type="curve" smooth="yes"/>
      <point x="290" y="-188"/>
      <point x="326" y="-223"/>
      <point x="391" y="-223" type="curve" smooth="yes"/>
      <point x="417" y="-223"/>
      <point x="443" y="-217"/>
    </contour>
  </outline>
</glyph>
<glyph name="florin" format="1">
  <advance width="362"/>
  <unicode hex="0192"/>
  <outline>
    <contour>
      <point x="184" y="-54" type="curve" smooth="yes"/>
      <point x="217" y="321" type="line"/>
      <point x="344" y="321" type="line"/>
      <point x="344" y="393" type="line"/>
      <point x="223" y="393" type="line"/>
      <point x="240" y="581" type="line" smooth="yes"/>
      <point x="246" y="647"/>
      <point x="265" y="675"/>
      <point x="313" y="675" type="curve" smooth="yes"/>
      <point x="333" y="675"/>
      <point x="355" y="671"/>
      <point x="382" y="660" type="curve"/>
      <point x="405" y="729" type="line"/>
      <point x="372" y="743"/>
      <point x="334" y="750"/>
      <point x="303" y="750" type="curve" smooth="yes"/>
      <point x="192" y="750"/>
      <point x="165" y="671"/>
      <point x="157" y="581" type="curve" smooth="yes"/>
      <point x="140" y="393" type="line"/>
      <point x="13" y="393" type="line"/>
      <point x="13" y="321" type="line"/>
      <point x="134" y="321" type="line"/>
      <point x="100" y="-54" type="line" smooth="yes"/>
      <point x="94" y="-120"/>
      <point x="75" y="-148"/>
      <point x="27" y="-148" type="curve" smooth="yes"/>
      <point x="8" y="-148"/>
      <point x="-14" y="-144"/>
      <point x="-40" y="-133" type="curve"/>
      <point x="-64" y="-202" type="line"/>
      <point x="-31" y="-216"/>
      <point x="7" y="-223"/>
      <point x="38" y="-223" type="curve" smooth="yes"/>
      <point x="149" y="-223"/>
      <point x="175" y="-144"/>
    </contour>
  </outline>
</glyph>
<glyph name="circumflex" format="1">
  <advance width="500"/>
  <unicode hex="02C6"/>
  <outline>
    <contour>
      <point x="315" y="579" type="line"/>
      <point x="384" y="579" type="line"/>
      <point x="291" y="740" type="line"/>
      <point x="209" y="740" type="line"/>
      <point x="116" y="579" type="line"/>
      <point x="181" y="579" type="line"/>
      <point x="248" y="674" type="line"/>
    </contour>
  </outline>
</glyph>
<glyph name="caron" format="1">
  <advance width="500"/>
  <unicode hex="02C7"/>
  <outline>
    <contour>
      <point x="384" y="740" type="line"/>
      <point x="319" y="740" type="line"/>
      <point x="252" y="645" type="line"/>
      <point x="185" y="740" type="line"/>
      <point x="116" y="740" type="line"/>
      <point x="209" y="579" type="line"/>
      <point x="291" y="579" type="line"/>
    </contour>
  </outline>
</glyph>
<glyph name="breve" format="1">
  <advance width="500"/>
  <unicode hex="02D8"/>
  <outline>
    <contour>
      <point x="250" y="648" type="curve" smooth="yes"/>
      <point x="211" y="648"/>
      <point x="188" y="669"/>
      <point x="184" y="731" type="curve"/>
      <point x="119" y="731" type="line"/>
      <point x="126" y="627"/>
      <point x="177" y="585"/>
      <point x="250" y="585" type="curve" smooth="yes"/>
      <point x="322" y="585"/>
      <point x="374" y="627"/>
      <point x="381" y="731" type="curve"/>
      <point x="315" y="731" type="line"/>
      <point x="311" y="669"/>
      <point x="289" y="648"/>
    </contour>
  </outline>
</glyph>
<glyph name="dotaccent" format="1">
  <advance width="500"/>
  <unicode hex="02D9"/>
  <outline>
    <contour>
      <point x="296" y="616" type="line"/>
      <point x="296" y="708" type="line"/>
      <point x="204" y="708" type="line"/>
      <point x="204" y="616" type="line"/>
    </contour>
  </outline>
</glyph>
<glyph name="ring" format="1">
  <advance width="500"/>
  <unicode hex="02DA"/>
  <outline>
    <contour>
      <point x="364" y="683" type="line" smooth="yes"/>
      <point x="364" y="747"/>
      <point x="319" y="791"/>
      <point x="250" y="791" type="curve" smooth="yes"/>
      <point x="180" y="791"/>
      <point x="136" y="747"/>
      <point x="136" y="683" type="curve" smooth="yes"/>
      <point x="136" y="672" type="line" smooth="yes"/>
      <point x="136" y="607"/>
      <point x="180" y="563"/>
      <point x="250" y="563" type="curve" smooth="yes"/>
      <point x="319" y="563"/>
      <point x="364" y="607"/>
      <point x="364" y="672" type="curve" smooth="yes"/>
    </contour>
    <contour>
      <point x="304" y="683" type="curve" smooth="yes"/>
      <point x="304" y="672" type="line" smooth="yes"/>
      <point x="304" y="639"/>
      <point x="282" y="618"/>
      <point x="250" y="618" type="curve" smooth="yes"/>
      <point x="217" y="618"/>
      <point x="195" y="639"/>
      <point x="195" y="672" type="curve" smooth="yes"/>
      <point x="195" y="683" type="line" smooth="yes"/>
      <point x="195" y="715"/>
      <point x="217" y="736"/>
      <point x="250" y="736" type="curve" smooth="yes"/>
      <point x="282" y="736"/>
      <point x="304" y="715"/>
    </contour>
  </outline>
</glyph>
<glyph name="ogonek" format="1">
  <advance width="500"/>
  <unicode hex="02DB"/>
  <outline>
    <contour>
      <point x="271" y="-155" type="curve" smooth="yes"/>
      <point x="246" y="-155"/>
      <point x="234" y="-143"/>
      <point x="234" y="-123" type="curve" smooth="yes"/>
      <point x="234" y="-94"/>
      <point x="254" y="-66"/>
      <point x="339" y="0" type="curve"/>
      <point x="306" y="43" type="line"/>
      <point x="192" y="-36"/>
      <point x="159" y="-85"/>
      <point x="159" y="-136" type="curve" smooth="yes"/>
      <point x="159" y="-188"/>
      <point x="195" y="-223"/>
      <point x="260" y="-223" type="curve" smooth="yes"/>
      <point x="286" y="-223"/>
      <point x="312" y="-217"/>
      <point x="339" y="-206" type="curve"/>
      <point x="324" y="-143" type="line"/>
      <point x="305" y="-151"/>
      <point x="287" y="-155"/>
    </contour>
  </outline>
</glyph>
<glyph name="tilde" format="1">
  <advance width="500"/>
  <unicode hex="02DC"/>
  <outline>
    <contour>
      <point x="310" y="588" type="curve" smooth="yes"/>
      <point x="359" y="588"/>
      <point x="394" y="623"/>
      <point x="396" y="725" type="curve"/>
      <point x="333" y="725" type="line"/>
      <point x="332" y="669"/>
      <point x="322" y="655"/>
      <point x="308" y="655" type="curve" smooth="yes"/>
      <point x="273" y="655"/>
      <point x="257" y="738"/>
      <point x="189" y="738" type="curve" smooth="yes"/>
      <point x="140" y="738"/>
      <point x="105" y="701"/>
      <point x="104" y="600" type="curve"/>
      <point x="167" y="600" type="line"/>
      <point x="167" y="656"/>
      <point x="177" y="670"/>
      <point x="191" y="670" type="curve" smooth="yes"/>
      <point x="226" y="670"/>
      <point x="242" y="588"/>
    </contour>
  </outline>
</glyph>
<glyph name="hungarumlaut" format="1">
  <advance width="500"/>
  <unicode hex="02DD"/>
  <outline>
    <contour>
      <point x="215" y="579" type="line"/>
      <point x="297" y="709" type="line"/>
      <point x="230" y="745" type="line"/>
      <point x="148" y="579" type="line"/>
    </contour>
    <contour>
      <point x="353" y="579" type="line"/>
      <point x="435" y="709" type="line"/>
      <point x="368" y="745" type="line"/>
      <point x="286" y="579" type="line"/>
    </contour>
  </outline>
</glyph>
<glyph name="pi" format="1">
  <advance width="561"/>
  <unicode hex="03C0"/>
  <outline>
    <contour>
      <point x="25" y="423" type="line"/>
      <point x="104" y="423" type="line"/>
      <point x="104" y="0" type="line"/>
      <point x="186" y="0" type="line"/>
      <point x="186" y="423" type="line"/>
      <point x="372" y="423" type="line"/>
      <point x="372" y="131" type="line" smooth="yes"/>
      <point x="372" y="44"/>
      <point x="401" y="-5"/>
      <point x="500" y="-5" type="curve" smooth="yes"/>
      <point x="533" y="-5" type="line"/>
      <point x="533" y="70" type="line"/>
      <point x="504" y="70" type="line" smooth="yes"/>
      <point x="464" y="70"/>
      <point x="454" y="90"/>
      <point x="454" y="131" type="curve" smooth="yes"/>
      <point x="454" y="423" type="line"/>
      <point x="533" y="423" type="line"/>
      <point x="533" y="495" type="line"/>
      <point x="25" y="495" type="line"/>
    </contour>
  </outline>
</glyph>
<glyph name="uni1E9E" format="1">
  <advance width="603"/>
  <unicode hex="1E9E"/>
  <outline>
    <contour>
      <point x="560" y="160" type="curve" smooth="yes"/>
      <point x="560" y="176" type="line" smooth="yes"/>
      <point x="560" y="282"/>
      <point x="511" y="331"/>
      <point x="422" y="366" type="curve" smooth="yes"/>
      <point x="381" y="382" type="line"/>
      <point x="482" y="565" type="line"/>
      <point x="482" y="624" type="line"/>
      <point x="437" y="665"/>
      <point x="373" y="690"/>
      <point x="295" y="690" type="curve" smooth="yes"/>
      <point x="164" y="690"/>
      <point x="89" y="606"/>
      <point x="89" y="469" type="curve" smooth="yes"/>
      <point x="89" y="0" type="line"/>
      <point x="176" y="0" type="line"/>
      <point x="176" y="469" type="line" smooth="yes"/>
      <point x="176" y="562"/>
      <point x="220" y="610"/>
      <point x="298" y="610" type="curve" smooth="yes"/>
      <point x="337" y="610"/>
      <point x="372" y="601"/>
      <point x="402" y="584" type="curve"/>
      <point x="298" y="391" type="line"/>
      <point x="298" y="326" type="line"/>
      <point x="386" y="291" type="line" smooth="yes"/>
      <point x="445" y="267"/>
      <point x="471" y="237"/>
      <point x="471" y="176" type="curve" smooth="yes"/>
      <point x="471" y="160" type="line" smooth="yes"/>
      <point x="471" y="104"/>
      <point x="443" y="69"/>
      <point x="384" y="69" type="curve" smooth="yes"/>
      <point x="344" y="69"/>
      <point x="303" y="77"/>
      <point x="255" y="101" type="curve"/>
      <point x="231" y="27" type="line"/>
      <point x="285" y="1"/>
      <point x="339" y="-10"/>
      <point x="387" y="-10" type="curve" smooth="yes"/>
      <point x="498" y="-10"/>
      <point x="560" y="57"/>
    </contour>
  </outline>
</glyph>
<glyph name="endash" format="1">
  <advance width="592"/>
  <unicode hex="2013"/>
  <outline>
    <contour>
      <point x="56" y="267" type="line"/>
      <point x="536" y="267" type="line"/>
      <point x="536" y="339" type="line"/>
      <point x="56" y="339" type="line"/>
    </contour>
  </outline>
</glyph>
<glyph name="emdash" format="1">
  <advance width="792"/>
  <unicode hex="2014"/>
  <outline>
    <contour>
      <point x="56" y="267" type="line"/>
      <point x="736" y="267" type="line"/>
      <point x="736" y="339" type="line"/>
      <point x="56" y="339" type="line"/>
    </contour>
  </outline>
</glyph>
<glyph name="quoteleft" format="1">
  <advance width="192"/>
  <unicode hex="2018"/>
  <outline>
    <contour>
      <point x="37" y="430" type="line"/>
      <point x="119" y="430" type="line"/>
      <point x="119" y="531"/>
      <point x="127" y="579"/>
      <point x="165" y="662" type="curve"/>
      <point x="111" y="690" type="line"/>
      <point x="61" y="603"/>
      <point x="37" y="532"/>
      <point x="37" y="449" type="curve" smooth="yes"/>
    </contour>
  </outline>
</glyph>
<glyph name="quoteright" format="1">
  <advance width="192"/>
  <unicode hex="2019"/>
  <outline>
    <contour>
      <point x="155" y="680" type="line"/>
      <point x="73" y="680" type="line"/>
      <point x="73" y="579"/>
      <point x="64" y="530"/>
      <point x="26" y="447" type="curve"/>
      <point x="81" y="420" type="line"/>
      <point x="131" y="506"/>
      <point x="155" y="577"/>
      <point x="155" y="661" type="curve" smooth="yes"/>
    </contour>
  </outline>
</glyph>
<glyph name="quotesinglbase" format="1">
  <advance width="192"/>
  <unicode hex="201A"/>
  <outline>
    <contour>
      <point x="137" y="91" type="line"/>
      <point x="55" y="91" type="line"/>
      <point x="55" y="-9"/>
      <point x="46" y="-58"/>
      <point x="8" y="-141" type="curve"/>
      <point x="63" y="-168" type="line"/>
      <point x="113" y="-82"/>
      <point x="137" y="-11"/>
      <point x="137" y="72" type="curve" smooth="yes"/>
    </contour>
  </outline>
</glyph>
<glyph name="quotedblleft" format="1">
  <advance width="356"/>
  <unicode hex="201C"/>
  <outline>
    <contour>
      <point x="201" y="430" type="line"/>
      <point x="283" y="430" type="line"/>
      <point x="283" y="531"/>
      <point x="291" y="579"/>
      <point x="329" y="662" type="curve"/>
      <point x="275" y="690" type="line"/>
      <point x="225" y="603"/>
      <point x="201" y="532"/>
      <point x="201" y="449" type="curve" smooth="yes"/>
    </contour>
    <contour>
      <point x="37" y="430" type="line"/>
      <point x="119" y="430" type="line"/>
      <point x="119" y="531"/>
      <point x="127" y="579"/>
      <point x="165" y="662" type="curve"/>
      <point x="111" y="690" type="line"/>
      <point x="61" y="603"/>
      <point x="37" y="532"/>
      <point x="37" y="449" type="curve" smooth="yes"/>
    </contour>
  </outline>
</glyph>
<glyph name="quotedblright" format="2">
	<advance width="356"/>
	<unicode hex="201D"/>
	<outline>
		<contour>
			<point x="155" y="680" type="line"/>
			<point x="73" y="680" type="line"/>
			<point x="73" y="579"/>
			<point x="64" y="530"/>
			<point x="26" y="447" type="curve"/>
			<point x="81" y="420" type="line"/>
			<point x="131" y="506"/>
			<point x="155" y="577"/>
			<point x="155" y="661" type="curve" smooth="yes"/>
		</contour>
		<contour>
			<point x="319" y="680" type="line"/>
			<point x="237" y="680" type="line"/>
			<point x="237" y="579"/>
			<point x="228" y="530"/>
			<point x="190" y="447" type="curve"/>
			<point x="245" y="420" type="line"/>
			<point x="295" y="506"/>
			<point x="319" y="577"/>
			<point x="319" y="661" type="curve" smooth="yes"/>
		</contour>
	</outline>
</glyph>
<glyph name="quotedblbase" format="1">
  <advance width="356"/>
  <unicode hex="201E"/>
  <outline>
    <contour>
      <point x="137" y="91" type="line"/>
      <point x="55" y="91" type="line"/>
      <point x="55" y="-9"/>
      <point x="46" y="-58"/>
      <point x="8" y="-141" type="curve"/>
      <point x="63" y="-168" type="line"/>
      <point x="113" y="-82"/>
      <point x="137" y="-11"/>
      <point x="137" y="72" type="curve" smooth="yes"/>
    </contour>
    <contour>
      <point x="301" y="91" type="line"/>
      <point x="219" y="91" type="line"/>
      <point x="219" y="-9"/>
      <point x="210" y="-58"/>
      <point x="172" y="-141" type="curve"/>
      <point x="227" y="-168" type="line"/>
      <point x="277" y="-82"/>
      <point x="301" y="-11"/>
      <point x="301" y="72" type="curve" smooth="yes"/>
    </contour>
  </outline>
</glyph>
<glyph name="dagger" format="1">
  <advance width="431"/>
  <unicode hex="2020"/>
  <outline>
    <contour>
      <point x="380" y="434" type="line"/>
      <point x="416" y="434" type="line"/>
      <point x="416" y="516" type="line"/>
      <point x="380" y="516" type="line"/>
      <point x="244" y="503" type="line"/>
      <point x="258" y="644" type="line"/>
      <point x="258" y="680" type="line"/>
      <point x="172" y="680" type="line"/>
      <point x="172" y="644" type="line"/>
      <point x="186" y="503" type="line"/>
      <point x="50" y="517" type="line"/>
      <point x="14" y="517" type="line"/>
      <point x="14" y="435" type="line"/>
      <point x="50" y="435" type="line"/>
      <point x="186" y="448" type="line"/>
      <point x="172" y="296" type="line"/>
      <point x="172" y="230" type="line"/>
      <point x="187" y="-143" type="line"/>
      <point x="242" y="-143" type="line"/>
      <point x="258" y="230" type="line"/>
      <point x="258" y="296" type="line"/>
      <point x="244" y="448" type="line"/>
    </contour>
  </outline>
</glyph>
<glyph name="daggerdbl" format="1">
  <advance width="453"/>
  <unicode hex="2021"/>
  <outline>
    <contour>
      <point x="269" y="-107" type="line"/>
      <point x="255" y="33" type="line"/>
      <point x="391" y="20" type="line"/>
      <point x="427" y="20" type="line"/>
      <point x="427" y="102" type="line"/>
      <point x="391" y="102" type="line"/>
      <point x="255" y="88" type="line"/>
      <point x="269" y="240" type="line"/>
      <point x="269" y="296" type="line"/>
      <point x="256" y="448" type="line"/>
      <point x="392" y="434" type="line"/>
      <point x="428" y="434" type="line"/>
      <point x="428" y="516" type="line"/>
      <point x="392" y="516" type="line"/>
      <point x="256" y="503" type="line"/>
      <point x="269" y="644" type="line"/>
      <point x="269" y="680" type="line"/>
      <point x="184" y="680" type="line"/>
      <point x="184" y="644" type="line"/>
      <point x="197" y="503" type="line"/>
      <point x="61" y="517" type="line"/>
      <point x="25" y="517" type="line"/>
      <point x="25" y="435" type="line"/>
      <point x="61" y="435" type="line"/>
      <point x="197" y="448" type="line"/>
      <point x="183" y="296" type="line"/>
      <point x="183" y="240" type="line"/>
      <point x="197" y="88" type="line"/>
      <point x="61" y="102" type="line"/>
      <point x="25" y="102" type="line"/>
      <point x="25" y="20" type="line"/>
      <point x="61" y="20" type="line"/>
      <point x="197" y="33" type="line"/>
      <point x="183" y="-107" type="line"/>
      <point x="183" y="-143" type="line"/>
      <point x="269" y="-143" type="line"/>
    </contour>
  </outline>
</glyph>
<glyph name="bullet" format="1">
  <advance width="243"/>
  <unicode hex="2022"/>
  <outline>
    <contour>
      <point x="184" y="271" type="line"/>
      <point x="184" y="396" type="line"/>
      <point x="59" y="396" type="line"/>
      <point x="59" y="271" type="line"/>
    </contour>
  </outline>
</glyph>
<glyph name="perthousand" format="1">
  <advance width="1097"/>
  <unicode hex="2030"/>
  <outline>
    <contour>
      <point x="309" y="546" type="line" smooth="yes"/>
      <point x="309" y="634"/>
      <point x="259" y="685"/>
      <point x="175" y="685" type="curve" smooth="yes"/>
      <point x="90" y="685"/>
      <point x="41" y="634"/>
      <point x="41" y="546" type="curve" smooth="yes"/>
      <point x="41" y="515" type="line" smooth="yes"/>
      <point x="41" y="426"/>
      <point x="90" y="375"/>
      <point x="175" y="375" type="curve" smooth="yes"/>
      <point x="259" y="375"/>
      <point x="309" y="426"/>
      <point x="309" y="515" type="curve" smooth="yes"/>
    </contour>
    <contour>
      <point x="518" y="680" type="line"/>
      <point x="170" y="0" type="line"/>
      <point x="241" y="0" type="line"/>
      <point x="589" y="680" type="line"/>
    </contour>
    <contour>
      <point x="243" y="546" type="curve" smooth="yes"/>
      <point x="243" y="515" type="line" smooth="yes"/>
      <point x="243" y="463"/>
      <point x="218" y="436"/>
      <point x="175" y="436" type="curve" smooth="yes"/>
      <point x="132" y="436"/>
      <point x="107" y="463"/>
      <point x="107" y="515" type="curve" smooth="yes"/>
      <point x="107" y="546" type="line" smooth="yes"/>
      <point x="107" y="597"/>
      <point x="132" y="624"/>
      <point x="175" y="624" type="curve" smooth="yes"/>
      <point x="218" y="624"/>
      <point x="243" y="597"/>
    </contour>
    <contour>
      <point x="718" y="166" type="line" smooth="yes"/>
      <point x="718" y="254"/>
      <point x="669" y="305"/>
      <point x="584" y="305" type="curve" smooth="yes"/>
      <point x="499" y="305"/>
      <point x="450" y="254"/>
      <point x="450" y="166" type="curve" smooth="yes"/>
      <point x="450" y="135" type="line" smooth="yes"/>
      <point x="450" y="46"/>
      <point x="499" y="-5"/>
      <point x="584" y="-5" type="curve" smooth="yes"/>
      <point x="668" y="-5"/>
      <point x="718" y="46"/>
      <point x="718" y="135" type="curve" smooth="yes"/>
    </contour>
    <contour>
      <point x="1056" y="166" type="line" smooth="yes"/>
      <point x="1056" y="254"/>
      <point x="1006" y="305"/>
      <point x="922" y="305" type="curve" smooth="yes"/>
      <point x="837" y="305"/>
      <point x="788" y="254"/>
      <point x="788" y="166" type="curve" smooth="yes"/>
      <point x="788" y="135" type="line" smooth="yes"/>
      <point x="788" y="46"/>
      <point x="837" y="-5"/>
      <point x="922" y="-5" type="curve" smooth="yes"/>
      <point x="1006" y="-5"/>
      <point x="1056" y="46"/>
      <point x="1056" y="135" type="curve" smooth="yes"/>
    </contour>
    <contour>
      <point x="653" y="166" type="curve" smooth="yes"/>
      <point x="653" y="135" type="line" smooth="yes"/>
      <point x="653" y="83"/>
      <point x="628" y="56"/>
      <point x="584" y="56" type="curve" smooth="yes"/>
      <point x="541" y="56"/>
      <point x="516" y="83"/>
      <point x="516" y="135" type="curve" smooth="yes"/>
      <point x="516" y="166" type="line" smooth="yes"/>
      <point x="516" y="217"/>
      <point x="541" y="244"/>
      <point x="584" y="244" type="curve" smooth="yes"/>
      <point x="628" y="244"/>
      <point x="653" y="217"/>
    </contour>
    <contour>
      <point x="990" y="166" type="curve" smooth="yes"/>
      <point x="990" y="135" type="line" smooth="yes"/>
      <point x="990" y="83"/>
      <point x="965" y="56"/>
      <point x="922" y="56" type="curve" smooth="yes"/>
      <point x="879" y="56"/>
      <point x="854" y="83"/>
      <point x="854" y="135" type="curve" smooth="yes"/>
      <point x="854" y="166" type="line" smooth="yes"/>
      <point x="854" y="217"/>
      <point x="879" y="244"/>
      <point x="922" y="244" type="curve" smooth="yes"/>
      <point x="965" y="244"/>
      <point x="990" y="217"/>
    </contour>
  </outline>
</glyph>
<glyph name="guilsinglleft" format="1">
  <advance width="377"/>
  <unicode hex="2039"/>
  <outline>
    <contour>
      <point x="322" y="105" type="line"/>
      <point x="120" y="248" type="line"/>
      <point x="322" y="390" type="line"/>
      <point x="322" y="478" type="line"/>
      <point x="38" y="274" type="line"/>
      <point x="38" y="221" type="line"/>
      <point x="322" y="14" type="line"/>
    </contour>
  </outline>
</glyph>
<glyph name="guilsinglright" format="1">
  <advance width="377"/>
  <unicode hex="203A"/>
  <outline>
    <contour>
      <point x="338" y="218" type="line"/>
      <point x="338" y="271" type="line"/>
      <point x="54" y="478" type="line"/>
      <point x="54" y="386" type="line"/>
      <point x="256" y="243" type="line"/>
      <point x="54" y="101" type="line"/>
      <point x="54" y="14" type="line"/>
    </contour>
  </outline>
</glyph>
<glyph name="fraction" format="1">
  <advance width="111"/>
  <unicode hex="2044"/>
  <outline>
    <contour>
      <point x="194" y="680" type="line"/>
      <point x="-154" y="0" type="line"/>
      <point x="-83" y="0" type="line"/>
      <point x="265" y="680" type="line"/>
    </contour>
  </outline>
</glyph>
